<?xml version="1.0" encoding="utf-8"?>
<!-- Generator: Adobe Illustrator 24.0.1, SVG Export Plug-In . SVG Version: 6.00 Build 0)  -->
<svg version="1.1" id="Layer_1" xmlns="http://www.w3.org/2000/svg" xmlns:xlink="http://www.w3.org/1999/xlink" x="0px" y="0px"
	 viewBox="0 0 270.6 100" style="enable-background:new 0 0 270.6 100;" xml:space="preserve">
<style type="text/css">
	.st0{fill:#EE1E3D;}
	.st1{fill:#FFFFFF;}
</style>
<g>
	<path class="st0" d="M270.5,35.4c0.1-0.1,0.1-0.2,0-0.3c0,0,0-0.1-0.1-0.1c0,0,0,0,0,0c0-0.1-0.1-0.2-0.1-0.2
		c-1.5-2.8-5.4-1.7-8-1.3c-2.2,0.4-4.3,0.8-6.5,1.3c-1.8,0.3-3.6,0.4-5.4,0.8c0-2.2,0.2-4.5,0.3-6.7c0-0.1,0-0.1-0.1-0.2
		c0-0.2,0-0.3,0.1-0.5c0.8,0,1.6,0,2.4,0c1.8,0,3.6-0.9,3.5-1.9c0,0,0,0,0,0h0c0,0,0-0.1,0-0.1c0-0.1,0-0.2,0-0.3l0,0c0,0,0,0,0-0.1
		c0-0.1,0-0.1-0.1-0.2c-0.1-0.3-0.3-0.5-0.6-0.7c-0.7-0.5-1.7-0.7-2.7-0.8c-1.8-0.2-3.6,0-5.4-0.1c0-0.1-0.1-0.2-0.2-0.2
		c-7.6-2.6-80.6-4.2-88.6-5.4c-1.1-0.2-2.2-0.3-3.3-0.5c0-0.1-0.1-0.2-0.2-0.2c-1.4-0.3-2.7-0.8-3.8-1.7c-1.2-1-1.4-2.5-1.8-3.9
		c-0.7-2.3-1.7-4.6-3-6.7c-1.2-1.8-2.8-3.3-4.7-4.3c-2.4-1.2-4.9-1.1-7.5-1.2c0,0,0,0,0,0c0,0,0,0-0.1,0c0,0,0,0-0.1,0c0,0,0,0,0,0
		c-2.6,0-5.1-0.2-7.5,1c-2,0.9-3.6,2.3-4.8,4.1c-1.4,2-2.5,4.3-3.2,6.6c-0.4,1.4-0.8,2.9-2,3.9c-1.1,0.9-2.4,1.3-3.8,1.6
		c-0.2,0-0.3,0.3-0.2,0.4c-1,0.1-2,0.3-3,0.5c-7.8,1.2-80,3-87.7,4.2c-0.6,0-1.3,0.1-1.9,0.1c-1.5,0-2.9,0.3-4.3,0.8
		c-0.1,0-0.1,0-0.2,0.1c-0.2,0.1-0.4,0.2-0.6,0.3c0,0,0,0,0,0c-0.1,0.1-0.3,0.1-0.4,0.3c0,0.1-0.1,0.1-0.1,0.2
		c-0.1,0-0.1,0.1-0.1,0.2c0,0,0,0.1,0,0.1c0,0,0,0,0,0v0c-0.1,0.6,0.1,1.1,0.6,1.4c0.2,0.2,0.6,0.3,0.9,0.3c0.2,0,0.3,0.1,0.4,0.3
		c0,0,0,0.1,0,0.1h3.4c0,0,0,0,0,0.1c0,0.2,0.1,0.4,0.1,0.5c0,0-0.1,0.1-0.1,0.2c0,2.2,0.1,4.5,0.1,6.7c-1.8-0.4-3.6-0.6-5.4-1
		c-2.1-0.5-4.3-1-6.4-1.5c-2.6-0.5-6.4-1.7-8,1c-0.1,0-0.1,0.1-0.1,0.2c0,0,0,0,0,0c0,0,0,0.1-0.1,0.1c-0.1,0.1,0,0.2,0,0.3
		c-0.1,0.6-0.2,1.1-0.1,1.7c0.1,0.8,0.6,1.4,1.1,1.9C2.5,38,5.1,38,6.8,38.5c2.3,0.6,4.7,1.1,7,1.8c1.2,0.3,2.4,0.5,3.6,0.8
		c0.2,0.1,2.1,0.7,2.9,0.9c0,0,0,0,0,0c0,0,0,0,0,0l0,0c0,0,0,0,0,0c0,4.7-0.3,9.3,0.2,14c0.5,4.6,1.2,9.1,1.9,13.6
		c0.8,4.6,1.7,9.1,3.4,13.4c0.8,2,1.6,4,2.6,5.9c0.2,0.4,0.4,0.8,0.6,1.1c0,0,0,0,0,0c0,0.1,0.1,0.1,0.1,0.2
		c0.8,1.4,1.8,2.8,2.6,4.2c0,0,0,0.1,0,0.1c0.5,0.9,2.4,1.4,4.7,2c0.4,0.1,0.8,0.2,1,0.3c1.5,0.4,2.8,0.7,4.2,0.9
		c0.6,0.1,1.1,0.2,1.7,0.3c3,0.6,6.2,0.8,9.3,1.1c1,0.1,2.1,0.1,3.1,0.2c5.1,0.4,9.2,0.6,13.5,0.7c4.8,0.1,132.5,0,139.7-0.1l0.3,0
		c4.5-0.1,16.6-0.2,27.3-3.7c0.1,0,0.2-0.1,0.2-0.2c0,0,0,0,0.1-0.1c1.3-1.8,2.6-3.6,3.7-5.6c1.1-1.9,1.9-3.8,2.7-5.8
		c1.9-4.3,2.9-8.7,3.8-13.3c0.9-4.5,1.8-9,2.4-13.6c0.6-4.7,0.5-9.3,0.6-14c0,0,0,0,0,0l0,0c0,0,0,0,0,0l0,0
		c0.7-0.2,2.7-0.8,2.9-0.8c1.2-0.3,2.4-0.4,3.6-0.7c2.3-0.6,4.7-1.1,7-1.6c1.7-0.4,4.3-0.3,5.7-1.6c0.5-0.5,1.1-1.1,1.2-1.9
		C270.7,36.5,270.5,36,270.5,35.4z M134.5,16c-4.8-0.2-9.6,0.1-14.4,0.7c0.8-0.4,1.6-0.9,2.2-1.7c1.1-1.5,1.7-3.3,2.5-4.9
		c0.9-1.9,2-3.8,4-4.7c1.8-0.8,3.9-0.9,5.9-1c2,0.1,4,0.3,5.8,1.2c2,0.9,3,2.9,3.8,4.8c0.7,1.7,1.2,3.5,2.3,5
		c0.5,0.8,1.3,1.3,2.1,1.8C144,16.6,139.2,16.1,134.5,16z"/>
	<g>
		<g>
			<path class="st1" d="M116.7,45.1c-0.2,0.5-0.4,0.9-0.6,1.3c-0.1,0.2-0.1,0.5-0.1,0.7c-0.1,0.4-0.2,0.8-0.2,1.1
				c-0.1,0.3-0.1,0.7-0.2,1c0,0.1-0.1,0.2-0.1,0.3c0,0.1,0,0.2-0.1,0.3c-0.1,0.3-0.1,0.6-0.2,0.9c-0.1,0.4-0.2,0.9-0.3,1.3
				c-0.1,0.3-0.1,0.6-0.1,0.8c-0.1,0.4-0.2,0.8-0.2,1.2c0,0.2-0.1,0.4-0.1,0.5c0,0.3-0.1,0.7-0.1,1c0,0.3-0.1,0.5-0.1,0.8
				c0,0.6-0.3,1.1-0.2,1.8c0,0.6-0.1,1.2-0.3,1.7c0,0,0,0.1,0,0.1c0,0.6-0.1,1.2-0.1,1.8c0,0.3,0,0.5,0,0.8c0,0.4,0.1,0.8,0.1,1.2
				c0,0.5,0,1.1,0.1,1.6c0,0.3,0.1,0.6,0.1,0.9c0,0.4,0.1,0.7,0.1,1.1c0,0.2,0.1,0.4,0.1,0.6c0,0.2,0.1,0.4,0.1,0.6
				c0.1,0.2,0.2,0.5,0.3,0.7c0.1,0.3,0.2,0.6,0.3,0.9c0,0,0,0,0,0.1c0,0.4,0.2,0.6,0.3,0.9c0,0.1,0.1,0.2,0.1,0.4
				c0,0.1,0,0.2,0.1,0.2c0.3,0.3,0.5,0.8,0.5,1.2c0,0.1,0.1,0.2,0.2,0.3c0.3,0.5,0.6,0.9,0.9,1.4c0.2,0.3,0.5,0.6,0.8,0.9
				c0.3,0.3,0.6,0.6,0.8,0.8c0,0,0.1,0.1,0.1,0.1c0.2,0.1,0.3,0.3,0.5,0.4c0.3,0.3,0.6,0.5,0.9,0.7c0.4,0.3,0.8,0.5,1.2,0.7
				c0.4,0.3,0.9,0.4,1.3,0.5c0.1,0,0.3,0.1,0.4,0.1c0.3,0.1,0.6,0.2,0.9,0.3c0,0,0.1,0,0.1,0c1,0,2.1,0,3.1-0.2
				c0.3-0.1,0.6-0.1,0.9-0.2c0.5-0.1,1.1-0.3,1.6-0.4c0.2,0,0.3-0.1,0.5-0.2c0,0,0.1-0.1,0.1-0.1c0.9-0.2,1.6-0.7,2.3-1.1
				c0.6-0.3,1.1-0.6,1.5-1c0.1-0.1,0.1-0.1,0.2-0.1c0.1-0.1,0.3-0.1,0.3-0.3c0.4-0.5,0.9-0.9,1.4-1.3c0.3-0.2,0.5-0.5,0.8-0.8
				c0.5-0.4,0.9-0.9,1.3-1.3c0.2-0.2,0.4-0.4,0.6-0.7c0.4-0.5,0.8-1.1,1.3-1.5c0.1-0.1,0.2-0.2,0.2-0.3c0.2-0.3,0.4-0.5,0.7-0.6
				c0-0.3,0-0.5,0.2-0.6c0.1-0.1,0.2-0.3,0.3-0.4c0.4-0.5,0.7-1,1.1-1.3c0.1,0,0.2-0.1,0.2-0.2c0-0.4,0.3-0.6,0.5-0.9
				c0.1-0.2,0.3-0.3,0.5-0.3c0.1,0,0.1,0,0.2,0c-0.1-0.3,0-0.5,0.1-0.7c0.1-0.1,0-0.2,0.1-0.3c0.3-0.3,0.5-0.5,0.7-0.7
				c0,0,0-0.1,0-0.2c0-0.2,0.1-0.3,0.2-0.5c0.2-0.2,0.3-0.5,0.5-0.7c0.2-0.2,0.3-0.5,0.6-0.7c0.4-0.3,0.6-0.7,0.8-1
				c0.1-0.2,0.3-0.3,0.2-0.6c0,0,0-0.1,0.1-0.2c0-0.2,0.1-0.4,0.1-0.7c0,0,0-0.1,0-0.1c0.3-0.5,0.2-1.1,0.3-1.7
				c0.1-0.4,0.1-0.8,0.3-1.2c0.3-0.8,0.5-1.5,0.7-2.3c0.2-0.5,0.4-1,0.6-1.5c0.1-0.3,0.2-0.6,0.4-0.9c0.2-0.4,0.4-0.9,0.6-1.3
				c0.2-0.3,0.4-0.7,0.5-1c0.1-0.3,0.3-0.6,0.5-0.9c0.1-0.2,0.1-0.4,0.1-0.6c0.5,0.1,1.1,0.1,1.6,0.3c0.1-0.1,0.3-0.2,0.5,0
				c0,0,0.1,0.1,0.2,0c0.3-0.1,0.5,0.1,0.8,0.3c0.1,0.1,0.3,0.2,0.5,0.2c0.2,0.1,0.4,0.2,0.6,0.4c0.3,0.4,0.5,0.9,0.7,1.4
				c0.1,0.4,0.1,0.8,0.2,1.2c0,0.1,0,0.2,0,0.3c-0.1,0.3,0,0.6-0.1,0.9c0,0.2,0,0.3-0.1,0.5c0,0.2-0.1,0.3-0.1,0.5
				c0,0.6-0.2,1.1-0.2,1.7c0,0.4,0,0.9-0.1,1.3c-0.1,0.5-0.2,1-0.4,1.5c-0.1,0.1-0.1,0.3-0.1,0.5c0,0.3,0,0.7-0.2,1
				c-0.1,0.2-0.2,0.4-0.2,0.6c0,0.2,0,0.4-0.1,0.7c-0.1,0.1-0.1,0.3,0,0.5c0,0.3,0,0.5-0.1,0.7c-0.1,0.1,0,0.3,0,0.4
				c0,0.3-0.1,0.6-0.1,0.9c0,0.6-0.3,1.2-0.3,1.8c0,0.1,0,0.1-0.1,0.2c-0.1,0.1-0.1,0.3-0.2,0.4c0,0.1-0.1,0.3-0.1,0.4
				c0,0,0,0.1,0,0.1c0.2,0.5-0.1,0.9-0.2,1.4c0,0.3,0,0.7,0,1c0,0.5-0.1,0.9-0.2,1.4c0,0.1,0,0.2,0,0.3c0,0.3,0.1,0.6,0.1,0.9
				c0,0.1,0,0.2,0,0.2c-0.1,0.2,0,0.4,0,0.6c0.1,0.3,0.2,0.6,0.2,0.9c0.1,0.4,0.2,0.8,0.3,1.2c0,0.1,0.1,0.2,0.2,0.2
				c0.1,0.1,0.2,0.2,0.2,0.2c0.6,0.7,1.4,0.9,2.3,0.8c0,0,0.1,0,0.1,0c0.5,0.1,0.8-0.1,1.2-0.3c0.2-0.1,0.5-0.3,0.8-0.3
				c0.1,0,0.2-0.1,0.3-0.2c0.5-0.4,0.9-0.7,1.3-1.1c0.3-0.2,0.5-0.5,0.8-0.7c0.5-0.5,1-1,1.5-1.5c0.3-0.3,0.7-0.6,0.9-1
				c0.2-0.3,0.4-0.6,0.7-0.9c0.3-0.3,0.5-0.7,0.8-1c0.1-0.1,0.1-0.2,0.2-0.3c0,0,0.1-0.1,0.1-0.1c0.2-0.2,0.4-0.4,0.6-0.6
				c0.3-0.3,0.5-0.6,0.7-1c0.2-0.4,0.5-0.5,0.8-0.8c0.2-0.3,0.5-0.5,0.7-0.8c0-0.2,0-0.5,0-0.7c0-0.9-0.1-1.8,0-2.8c0-0.5,0-1,0-1.4
				c0-1.3,0-2.5,0-3.8c0-0.7,0.1-1.4,0.2-2.1c0.1-0.7,0.1-1.4,0.2-2.1c0.1-0.9,0.3-1.8,0.4-2.7c0.1-0.6,0.2-1.2,0.3-1.7
				c0.2-0.9,0.3-1.9,0.6-2.8c0.2-0.7,0.3-1.4,0.5-2.1c0.2-0.7,0.4-1.4,0.5-2.1c0.2-0.7,0.5-1.3,0.7-1.9c0.2-0.5,0.4-1,0.5-1.6
				c0.1-0.4,0.3-0.8,0.4-1.3c0.1-0.5,0.4-1,0.6-1.5c0.1-0.1,0.2-0.2,0.2-0.3c0.1-0.2,0.1-0.4,0.2-0.6c0.3-0.8,0.7-1.5,1-2.2
				c0.5-1.2,1-2.5,1.5-3.7c0.3-0.6,0.6-1.2,0.9-1.8c0.3-0.6,0.7-1,1-1.5c0.3-0.5,0.7-0.9,1.1-1.4c0.2-0.3,0.6-0.5,0.8-0.9
				c0.1-0.1,0.2-0.2,0.3-0.3c0.4-0.4,0.7-0.8,1.2-1.2c0.3-0.3,0.7-0.5,1.1-0.8c0.2-0.1,0.3-0.2,0.5-0.4c0.4-0.4,0.9-0.8,1.4-1.1
				c0,0,0.1,0,0.1-0.1c0.5-0.5,1.1-0.6,1.7-0.7c0.6-0.1,1.3-0.2,1.9-0.2c0.7,0,1.4-0.1,2.1,0.1c0.4,0.1,0.9,0.2,1.3,0.4
				c0.5,0.3,1,0.5,1.3,1.1c0,0,0.1,0.1,0.1,0.1c0.2,0.2,0.3,0.4,0.3,0.7c0,0.5,0,1,0,1.4c0,0.2,0,0.4,0,0.6c0,0.2,0,0.4,0.1,0.5
				c0.2,0.3,0.3,0.6,0.2,0.9c-0.2,0.8-0.5,1.6-0.8,2.4c-0.1,0.3-0.2,0.7-0.2,1c-0.1,0.5-0.2,1-0.3,1.5c0,0.1,0,0.2,0,0.4
				c0,0.3-0.1,0.7-0.1,1c0,0.2,0,0.4,0,0.6c0,0.4-0.1,0.8-0.3,1.2c-0.1,0.3-0.2,0.7-0.3,1c-0.2,0.7-0.5,1.3-0.8,2
				c-0.2,0.4-0.2,0.8-0.3,1.2c-0.1,0.3-0.1,0.6-0.3,0.8c-0.2,0.2-0.2,0.6-0.3,0.9c-0.1,0.2-0.2,0.5-0.3,0.7
				c-0.2,0.4-0.4,0.8-0.6,1.1c-0.1,0.2-0.2,0.3-0.3,0.5c-0.3,0.4-0.5,0.9-0.8,1.3c-0.1,0.2-0.2,0.5-0.3,0.7
				c-0.2,0.7-0.5,1.4-0.8,2.1c-0.1,0.2-0.2,0.3-0.3,0.5c-0.2,0.4-0.7,0.7-0.8,1.2c-0.4,0.5-0.6,1.1-1.2,1.4c0,0.3-0.1,0.4-0.3,0.6
				c-0.2,0.3-0.4,0.6-0.7,0.9c0,0-0.1,0.1-0.1,0.1c-0.1,0.3-0.2,0.5-0.3,0.8c-0.1,0-0.3,0-0.3,0.2c-0.1,0.7-0.5,1.3-1,1.8
				c-0.2,0.3-0.6,0.6-0.7,1c-0.3,0.2-0.3,0.6-0.6,0.9c-0.2,0.2-0.3,0.5-0.5,0.7c-0.4,0.5-0.7,1-1.1,1.5c-0.1,0.2-0.3,0.4-0.5,0.5
				c-0.2,0.1-0.3,0.3-0.3,0.5c0,0.1,0,0.1-0.1,0.2c-0.2,0.3-0.5,0.5-0.6,0.8c-0.1,0.3-0.3,0.5-0.6,0.7c0,0-0.1,0.1-0.1,0.1
				c0,0.3-0.4,0.5-0.4,0.8c0,0.1-0.1,0.1-0.2,0.2c0,0.3,0,0.6,0,0.9c0,0.6,0.1,1.1,0.1,1.7c0,0.3,0.1,0.6,0.1,0.9c0,0.3,0,0.7,0,1
				c0,0.2,0,0.4,0.1,0.6c0.1,0.2,0.1,0.5,0.1,0.7c0,0.5,0,0.9,0,1.4c0,0.2-0.1,0.3-0.1,0.5c0.1,0.3,0,0.6,0,1c0,0.3,0.1,0.6,0.1,0.9
				c0.1,0.4,0.1,0.9,0.2,1.3c0,0.3,0.1,0.6,0.1,0.8c0.1,0.5,0.2,0.9,0.2,1.4c0.1,0.5,0,0.9,0.1,1.4c0,0.4-0.1,0.8,0.1,1.2
				c0,0,0,0.1,0,0.1c0,0.4,0.1,0.8,0.2,1.2c0.1,0.5,0.4,1,0.4,1.6c0,0.1,0.1,0.1,0.2,0.3c0-0.2,0.1-0.4,0.1-0.5
				c0.1-0.8,0.2-1.5,0.3-2.3c0-0.4,0.1-0.7,0.1-1.1c0.1-0.7,0.2-1.3,0.3-2c0.1-0.7,0.2-1.3,0.3-2c0.1-0.6,0.2-1.1,0.4-1.7
				c0.2-0.7,0.4-1.5,0.6-2.2c0.1-0.3,0.2-0.5,0.3-0.7c0.2-0.6,0.4-1.2,0.8-1.7c0.2-0.2,0.2-0.5,0.3-0.8c0.2-0.7,0.5-1.2,0.9-1.8
				c0.1-0.1,0.1-0.2,0.2-0.4c0.2-0.3,0.3-0.6,0.5-0.9c0.2-0.3,0.3-0.7,0.5-1c0.5-0.9,0.9-1.9,1.6-2.8c0,0,0.1-0.1,0.1-0.1
				c0-0.3,0.3-0.4,0.4-0.7c0.1-0.2,0.3-0.4,0.5-0.6c0.3-0.3,0.6-0.6,0.9-0.9c0.3-0.3,0.6-0.6,0.9-0.9c0.2-0.3,0.5-0.4,0.8-0.7
				c0,0,0.1-0.1,0.2-0.1c0.4-0.4,0.9-0.6,1.3-0.9c0.3-0.2,0.6-0.4,0.9-0.5c0.1-0.1,0.3-0.1,0.5-0.2c0.6-0.3,1.3-0.4,1.9-0.3
				c0.4,0,0.8,0.1,1.2,0.3c0.7,0.3,1.3,0.7,1.9,1.2c0.3,0.2,0.4,0.5,0.6,0.8c0,0.1,0,0.1,0.1,0.2c0.2,0.2,0.3,0.5,0.5,0.8
				c0.1,0.2,0.1,0.4,0.2,0.5c0.1,0.9,0.1,1.9,0.1,2.8c0,0.3,0,0.5,0,0.8c-0.1,0.5-0.3,1.1-0.4,1.6c-0.1,0.4-0.4,0.8-0.4,1.3
				c0,0.1-0.1,0.2-0.1,0.3c-0.2,0.3-0.3,0.7-0.4,1c0,0.1-0.1,0.1-0.1,0.2c-0.1,0.1-0.1,0.3-0.2,0.4c-0.1,0.2-0.1,0.4-0.3,0.5
				c-0.1,0-0.2,0.2-0.2,0.3c0,0.5-0.3,0.9-0.6,1.3c-0.1,0.1-0.1,0.2-0.2,0.2c-0.2,0.5-0.5,0.9-0.9,1.2c-0.2,0.2-0.3,0.4-0.4,0.5
				c-0.1,0.1-0.2,0.3-0.4,0.4c-0.2,0.2-0.4,0.4-0.5,0.6c-0.3,0.4-0.6,0.8-1,1c-0.2,0.2-0.5,0.4-0.7,0.6c-0.4,0.5-0.9,0.8-1.3,1.2
				c-0.3,0.2-0.5,0.5-0.9,0.7c0,0-0.1,0.1-0.1,0.1c0.1,0,0.2,0,0.3,0c0.2,0.3,0.5,0.3,0.8,0.4c0.4,0.1,0.8,0.1,1.1,0.4
				c0.1,0.1,0.2,0.1,0.3,0.1c0.3,0.1,0.5,0.4,0.7,0.5c0.1,0.1,0.3,0.2,0.4,0.2c0.3,0.2,0.5,0.3,0.7,0.5c0,0,0.1,0.1,0.1,0.1
				c0.5,0.1,0.8,0.6,1.2,0.9c0.1,0.1,0.1,0.1,0.2,0.2c0.7,0.4,1.2,0.9,1.8,1.5c0.3,0.3,0.6,0.5,0.9,0.7c0.2,0.1,0.3,0.2,0.4,0.4
				c0.2,0.3,0.6,0.5,0.9,0.7c0.5,0.3,0.9,0.6,1.3,0.9c0.3,0.3,0.7,0.5,1.1,0.6c0.7,0.2,1.3,0.4,2,0.5c0.4,0.1,0.9,0.1,1.3,0.1
				c0.4,0,0.8,0,1.2,0c0.4,0,0.8-0.1,1.1-0.3c-0.1-0.2-0.2-0.3-0.3-0.4c-0.7-0.7-1.1-1.5-1.5-2.3c-0.4-0.8-0.6-1.6-0.9-2.4
				c-0.2-0.7-0.4-1.5-0.5-2.2c-0.1-0.8,0-1.7,0-2.5c0.1-0.6,0.1-1.2,0.2-1.7c0-0.2,0-0.3,0.1-0.5c0-0.3,0.1-0.5,0.2-0.8
				c0-0.1,0-0.2,0.1-0.3c0.1-0.3,0.2-0.6,0.3-0.9c0.1-0.6,0.3-1.1,0.5-1.6c0.1-0.4,0.3-0.8,0.5-1.1c0.4-0.9,0.8-1.7,1.4-2.5
				c0.2-0.3,0.4-0.5,0.6-0.8c0.3-0.5,0.7-0.9,0.7-1.5c0-0.1,0.1-0.3,0.2-0.5c0.2,0.1,0.4,0.1,0.6,0.2c0-0.1,0.1-0.1,0.2-0.2
				c0.1,0,0.2,0.1,0.4,0.1c0-0.1,0-0.2,0.1-0.3c0,0,0.1,0,0.1,0c0.2,0.2,0.3,0.4,0.5,0.6c0.1,0.1,0.1,0.2,0.2,0.2
				c0.5,0.2,0.9,0.4,1.3,0.7c0.1,0.2,0.4,0.2,0.5,0.4c0.5,0.4,0.8,0.8,0.9,1.4c0,0.2,0.2,0.4,0,0.6c0,0,0,0.1,0,0.2
				c0,0.3,0.1,0.6,0,0.9c0.1,0.4-0.1,0.8,0,1.3c0.1,0.3-0.1,0.6-0.2,0.9c-0.1,0.3-0.2,0.6-0.2,0.9c0,0.2,0,0.5,0.1,0.7
				c0.1,0.3,0.1,0.6,0,0.9c-0.1,0.4-0.3,0.8-0.5,1.2c-0.1,0.5-0.2,1-0.2,1.5c0,0.4,0,0.8-0.1,1.1c0,0.1,0,0.2,0,0.3
				c0,0.4,0,0.7,0,1.1c0,0.3,0.1,0.6,0.1,0.9c0.1,0.4,0.1,0.8,0.1,1.2c0,0.4,0.2,0.8,0.4,1.2c0.1,0.3,0.2,0.6,0.4,0.8
				c0.3,0.8,0.8,1.4,1.6,1.8c0.6,0.3,1.2,0.4,1.9,0.3c0.5-0.1,0.9-0.3,1.3-0.7c0.2-0.3,0.5-0.5,0.8-0.7c0.1-0.1,0.2-0.3,0.4-0.4
				c0,0,0-0.1,0.1-0.1c0.4-0.3,0.6-0.7,0.9-1c0.2-0.3,0.4-0.6,0.6-0.9c0,0,0-0.1,0-0.1c0.2-0.2,0.3-0.4,0.4-0.7
				c0.2-0.4,0.6-0.7,0.7-1.2c0-0.2,0.2-0.3,0.3-0.5c0.4-0.7,0.5-1.6,0.6-2.4c0.1-0.5,0.1-1.1,0.3-1.6c0.2-0.6,0.3-1.2,0.4-1.8
				c0.1-0.4,0.2-0.9,0.4-1.3c0.2-0.7,0.4-1.4,0.5-2.1c0-0.2,0.1-0.4,0.1-0.6c0-0.3,0.1-0.6,0.1-0.9c0.1-0.4,0.1-0.8,0.1-1.2
				c0.3-0.3,0.1-0.8,0.3-1.2c0,0,0-0.1,0-0.2c-0.1,0-0.1,0-0.2,0c0,0-0.1,0.1-0.1,0.1c-0.4,0.1-0.9,0.3-1.3,0.4
				c-0.1,0-0.1,0-0.2,0.1c-0.2,0.2-0.5,0.3-0.8,0.3c-0.1,0-0.3,0.1-0.4,0.1c-0.2,0-0.5,0-0.7,0.1c-0.2,0-0.4,0-0.5,0
				c-0.8,0-1.6-0.1-2.4-0.2c0,0,0,0-0.1,0c-0.5-0.2-1-0.2-1.4-0.3c-0.4-0.1-0.8-0.3-1.2-0.5c-0.2-0.1-0.4-0.3-0.6-0.4
				c-0.5-0.4-0.9-0.9-1.2-1.5c0-0.1-0.1-0.1-0.1-0.2c-0.5-0.6-0.7-1.2-1-1.9c-0.2-0.5-0.3-1.1-0.4-1.7c-0.1-0.5,0-1-0.2-1.4
				c0-0.2,0.1-0.4,0.1-0.5c0.2-0.6,0.5-1.3,0.8-1.9c0.1-0.3,0.3-0.5,0.5-0.8c0.3-0.6,0.8-1.1,1.3-1.5c0.1-0.1,0.3-0.3,0.4-0.4
				c0.4-0.5,0.9-0.9,1.5-1.2c0.3-0.2,0.7-0.4,1.1-0.4c0.1,0,0.3-0.1,0.5-0.1c0.3,0,0.6-0.1,0.8-0.1c0.2,0,0.5-0.1,0.7-0.1
				c0.3-0.1,0.5,0,0.6,0.2c0.2,0.3,0.4,0.4,0.7,0.4c0.1,0,0.3,0.1,0.4,0.1c0.2,0,0.4,0.1,0.5,0.1c0.6,0,1,0.2,1.5,0.5
				c0,0,0.1,0.1,0.1,0.1c0.1,0.3,0.3,0.4,0.5,0.6c0,0,0.1,0.1,0.1,0.1c0.2,0.3,0.4,0.4,0.7,0.6c0.2,0.1,0.3,0.3,0.4,0.5
				c0.1,0.1,0.1,0.2,0.2,0.3c0,0,0.1,0.1,0.1,0.1c0.1,0.3,0.3,0.6,0.4,0.9c0,0.1,0.1,0.2,0.2,0.2c0.3,0.2,0.5,0.5,0.7,0.6
				c0.4,0.3,0.7,0.6,0.9,1.1c0.1,0.2,0.2,0.4,0.2,0.6c0,0.1,0,0.1,0,0.2c0.2,0.3,0.1,0.6,0.2,1c0,0.1,0,0.1,0,0.2c0.1,0,0.2,0,0.3,0
				c0,0,0.1,0,0.1-0.1c0.2-0.3,0.5-0.6,0.9-0.7c0.2-0.1,0.3-0.2,0.4-0.3c0.4-0.4,1-0.8,1.5-1c0.2-0.1,0.3-0.2,0.4-0.3
				c0.2-0.3,0.5-0.4,0.8-0.6c0.1-0.1,0.2-0.1,0.3-0.1c0.4-0.2,0.8-0.4,1.2-0.5c0.2-0.1,0.5-0.3,0.7-0.4c0.8-0.4,1.6-0.8,2.3-1.2
				c0.3-0.2,0.7-0.3,1.1-0.4c0.3-0.2,0.7-0.4,1-0.4c0.5-0.1,0.9-0.3,1.3-0.5c0.8-0.3,1.6-0.5,2.4-0.6c0.4-0.1,0.7-0.1,1.1-0.1
				c0.2,0,0.5-0.1,0.7-0.1c0.7,0,1.4,0,2.1,0.1c0,0,0,0,0,0c0.8,0,1.5,0.4,2.3,0.6c0.4,0.1,0.8,0.5,1.3,0.7c0.2,0.1,0.3,0.2,0.5,0.3
				c0.4,0.3,0.7,0.7,0.9,1.2c0,0.1,0.1,0.2,0.2,0.2c0.2,0.3,0.3,0.5,0.3,0.9c0,0.3,0,0.5,0.1,0.8c0,0.2,0,0.3-0.1,0.4
				c-0.1,0.1-0.2,0.3-0.3,0.4c-0.1,0.2-0.2,0.4-0.5,0.3c-0.1,0.1-0.1,0.2-0.2,0.2c-0.1-0.1-0.1-0.1-0.2-0.2c-0.2,0.1-0.4,0-0.7,0.1
				c-0.7,0.3-1.7,0.1-2.1-0.7c-0.1-0.2-0.1-0.4,0-0.6c0.1-0.2,0.1-0.4,0-0.6c-0.2-0.4-0.4-0.6-0.8-0.8c0,0-0.1,0-0.1-0.1
				c-0.6-0.5-1.1-0.7-1.7-0.8c-0.5-0.1-0.9-0.2-1.4-0.2c-0.2,0-0.5-0.1-0.7,0.1c0,0,0,0,0,0c-0.7,0-1.3,0.4-1.9,0.6
				c-0.4,0.2-0.8,0.3-1.2,0.5c-0.5,0.2-0.9,0.5-1.4,0.7c-0.2,0.1-0.3,0.2-0.5,0.2c-0.5,0.2-0.9,0.5-1.4,0.6c0,0,0,0,0,0
				c-0.5,0.2-0.9,0.5-1.4,0.7c-0.1,0.1-0.2,0.2-0.3,0.3c-0.2,0.1-0.4,0.3-0.5,0.4c-0.3,0.2-0.5,0.4-0.8,0.6
				c-0.4,0.2-0.7,0.5-1.1,0.7c-0.3,0.2-0.6,0.3-0.8,0.5c-0.2,0.1-0.3,0.2-0.4,0.4c-0.3,0.3-0.6,0.5-1,0.7c0,0-0.1,0-0.1,0
				c-0.3,0.3-0.5,0.5-0.8,0.8c-0.1,0.1-0.1,0.1-0.2,0.2c-0.3,0.2-0.7,0.4-1,0.6c-0.1,0.1-0.2,0.2-0.2,0.4c0,0.4,0,0.8,0,1.1
				c0,0.1,0,0.2,0,0.3c-0.1,0.3-0.1,0.6,0,0.9c-0.2,0.2-0.2,0.4-0.2,0.7c0,0.8-0.1,1.7-0.4,2.5c0,0,0,0.1,0,0.1
				c0.1,0.4,0,0.7-0.2,1.1c0,0.1-0.1,0.1-0.1,0.2c-0.1,0.3-0.1,0.5-0.2,0.8c-0.1,0.3-0.1,0.7-0.1,1c0,0.4,0,0.7,0,1.1
				c0,0.7,0,1.4-0.3,2c0,0.1,0,0.2,0,0.3c0,0.2,0.1,0.4-0.1,0.6c0,0,0,0.1,0,0.1c0.1,0.3-0.1,0.6-0.3,0.8c0.1,0.3,0,0.5-0.1,0.8
				c-0.1,0.3-0.2,0.6-0.3,0.9c-0.2,0.4-0.3,0.9-0.7,1.3c0,0,0,0,0,0.1c-0.1,0.3-0.1,0.6-0.2,0.9c-0.1,0.2-0.2,0.4-0.3,0.6
				c-0.2,0.3-0.3,0.6-0.5,0.9c0,0.1,0,0.1,0,0.2c0,0.1-0.1,0.2-0.1,0.3c-0.1,0.1-0.1,0.2-0.2,0.4c-0.1,0.2-0.3,0.5-0.5,0.6
				c-0.3,0.2-0.6,0.5-0.8,0.9c-0.1,0.2-0.3,0.4-0.5,0.6c-0.1,0.1-0.2,0.1-0.2,0.2c-0.1,0.1-0.1,0.3-0.2,0.4
				c-0.2,0.1-0.4,0.4-0.6,0.6c-0.2,0.2-0.5,0.4-0.7,0.5c-0.6,0.4-1.2,0.7-1.9,0.9c-0.4,0.1-0.9,0.3-1.3,0.2c-0.1,0-0.2,0-0.3,0.1
				c-0.1,0.1-0.3-0.2-0.4,0c-0.6,0.1-1.2,0.3-1.9,0.3c-0.1,0-0.2,0-0.4,0c-0.6,0.1-1.1,0.1-1.7-0.1c-0.6-0.2-1.1-0.5-1.6-0.8
				c-0.4-0.3-0.9-0.4-1.3-0.6c-0.2-0.1-0.4-0.2-0.6-0.3c-0.2-0.1-0.4-0.2-0.6-0.4c0,0.1-0.1,0.1-0.1,0.2c-0.1,0.2-0.2,0.3-0.4,0.4
				c-0.3,0.1-0.5,0.4-0.7,0.7c-0.1,0-0.1-0.1-0.2-0.2c-0.7,0.4-1.5,0.5-2.3,0.5c-0.3,0-0.6,0.1-0.9,0.1c-0.3,0-0.6,0-1,0.1
				c-0.3,0-0.6,0.1-1,0.1c-0.3,0-0.7,0-1-0.1c-0.3-0.1-0.6-0.1-0.9-0.2c-0.1,0-0.2,0-0.4-0.1c-0.3-0.1-0.5-0.2-0.8-0.2
				c0,0-0.1,0-0.1,0c-0.5-0.3-1-0.4-1.5-0.6c0,0-0.1,0-0.1,0c-0.5-0.4-1.2-0.7-1.8-1c-0.9-0.6-1.7-1.2-2.5-2
				c-0.2-0.2-0.4-0.5-0.8-0.7c-0.1-0.1-0.2-0.2-0.3-0.3c-0.4-0.4-0.8-0.7-1.1-1.1c-0.2-0.2-0.4-0.5-0.7-0.6c-0.1,0-0.1-0.1-0.1-0.2
				c-0.3-0.4-0.7-0.7-1.1-0.9c-0.5-0.3-1.1-0.5-1.7-0.6c-0.7-0.1-1.3-0.3-2-0.2c-0.1,0-0.2,0-0.4-0.1c-0.5-0.1-0.9,0.1-1.4,0.1
				c-0.1,0-0.2,0.1-0.3,0.2c-0.3,0.2-0.5,0.5-0.4,0.9c0,0.1,0,0.3-0.1,0.5c0,0.3,0,0.6-0.1,0.9c-0.1,0.4-0.1,0.9,0,1.3
				c0,0.2,0,0.5,0,0.7c0,0.4,0,0.9,0.1,1.4c0,0-0.1,0.1-0.1,0.2c0,0,0,0,0,0c0.1,0.2,0.1,0.4,0.1,0.6c0.1,0.6,0.1,1.2-0.1,1.8
				c0,0.1,0,0.1,0,0.2c0,0.4,0,0.9,0,1.3c0,0.1,0,0.2,0,0.3c0,0.3,0.1,0.6,0.1,0.8c0,0.7,0,1.4,0.1,2.1c0,0.3,0.2,0.6,0.2,0.9
				c0.1,0.3,0.1,0.6,0.3,0.9c0.1,0.1,0.1,0.3,0.3,0.4c0.1,0,0.2,0.1,0.3,0.2c0.2,0.2,0.1,0.4,0,0.6c-0.1,0.1-0.2,0.3-0.3,0.4
				c-0.1,0.2-0.2,0.4-0.3,0.4c-0.2,0.1-0.3,0.2-0.5,0.3c-0.1,0.1-0.1,0.2-0.2,0.2c-0.3,0-0.5,0.1-0.7,0.3c-0.2,0-0.5-0.2-0.7,0.1
				c-0.4-0.2-0.8-0.4-1.1-0.6c-0.1,0.2,0.1,0.5-0.3,0.7c0,0-0.1-0.1-0.1-0.2c-0.2-0.2-0.5-0.4-0.8-0.4c-0.3,0-0.5-0.1-0.8-0.1
				c-0.3-0.1-0.6-0.1-0.9-0.2c-0.3-0.1-0.6-0.3-0.9-0.5c-0.3-0.2-0.6-0.4-0.9-0.6c-0.3-0.2-0.5-0.4-0.7-0.7c0,0-0.1-0.1-0.1-0.1
				c0,0-0.1-0.1-0.1-0.1c0-0.1,0-0.2-0.1-0.2c-0.2-0.3-0.3-0.7-0.6-1c-0.1-0.1-0.2-0.3-0.2-0.4c-0.2-0.3-0.3-0.6-0.5-0.9
				c-0.1-0.3-0.3-0.7-0.4-1c-0.1-0.4-0.3-0.8-0.5-1.2c-0.1-0.3-0.2-0.5-0.3-0.8c-0.1-0.2-0.2-0.4-0.3-0.6c0-0.1,0-0.1,0-0.2
				c0-0.2,0-0.4-0.2-0.6c0,0,0,0,0,0c0-0.5-0.4-0.9-0.5-1.4c-0.2-1.1-0.5-2.3-0.8-3.4c0-0.1-0.1-0.2-0.1-0.2c0-0.2-0.1-0.3-0.1-0.5
				c-0.1-0.3-0.1-0.6-0.3-0.8c0-0.1-0.1-0.2-0.1-0.2c0-0.2-0.1-0.5-0.1-0.7c0-0.1,0-0.2,0-0.2c0-0.2,0-0.4-0.1-0.6
				c-0.1-0.4-0.2-0.8-0.2-1.3c-0.1-0.6-0.1-1.2-0.2-1.8c0-0.4,0-0.8-0.1-1.2c0-0.1,0-0.1,0-0.3c-0.2,0.2-0.5,0.4-0.6,0.6
				c-0.1,0.2-0.3,0.2-0.3,0.4c-0.1,0.2-0.1,0.3-0.3,0.4c-0.1,0.3-0.4,0.4-0.6,0.7c-0.2,0.3-0.4,0.5-0.6,0.7
				c-0.1,0.1-0.3,0.2-0.5,0.4c0,0.3-0.2,0.4-0.4,0.6c-0.6,0.6-1.2,1.2-1.8,1.8c-0.2,0.2-0.5,0.4-0.6,0.7c0,0,0,0.1-0.1,0.1
				c-0.4,0.2-0.7,0.7-1.2,0.8c-0.2,0.3-0.5,0.3-0.7,0.6c-0.2,0.3-0.5,0.5-0.8,0.6c-0.3,0.2-0.6,0.3-0.9,0.4c0,0-0.1,0-0.1,0
				c-0.3-0.1-0.5,0.1-0.8,0.2c-0.3,0.1-0.5,0.2-0.8,0.3c-0.1,0-0.3,0-0.4,0c-0.2,0-0.3,0-0.5,0.2c-0.3,0-0.7,0.1-1,0
				c-0.2,0-0.5,0-0.8,0c-0.5,0.1-1,0.1-1.5-0.1c-0.2-0.1-0.3-0.2-0.5-0.3c-0.4-0.2-0.7-0.4-1.2-0.5c-0.6-0.1-1.2-0.4-1.8-0.7
				c-0.7-0.4-1.3-0.9-1.8-1.6c-0.3-0.3-0.5-0.7-0.7-1c-0.1-0.1-0.2-0.3-0.3-0.4c-0.4-0.6-0.6-1.2-0.8-1.9c-0.1-0.3-0.2-0.6-0.3-0.9
				c0-0.1,0-0.2-0.1-0.3c0-0.2,0-0.4-0.1-0.6c0-0.4-0.1-0.9-0.1-1.3c0-0.3,0-0.6,0-0.9c0-0.2,0-0.4,0-0.6c-0.1,0.1-0.2,0.1-0.2,0.2
				c-0.4,0.5-0.8,1.1-1.2,1.7c-0.3,0.3-0.6,0.7-0.8,1.1c-0.1,0.2-0.3,0.4-0.5,0.6c-0.1,0.1-0.2,0.2-0.3,0.3
				c-0.1,0.1-0.1,0.2-0.2,0.3c-0.2,0.2-0.4,0.4-0.5,0.7c0,0-0.1,0.1-0.1,0.1c-0.7,0.8-1.4,1.6-2.2,2.3c-0.1,0-0.1,0.1-0.1,0.2
				c-0.1,0.1-0.2,0.3-0.3,0.4c-0.6,0.4-0.9,1-1.5,1.4c-0.1,0-0.1,0.1-0.2,0.1c-0.5,0.3-0.9,0.6-1.3,0.9c-0.2,0.2-0.5,0.3-0.7,0.5
				c-0.5,0.4-1.1,0.7-1.6,1.1c-0.5,0.3-1,0.5-1.5,0.8c-0.5,0.3-1.1,0.6-1.6,0.9c-0.2,0.1-0.4,0.2-0.6,0.2c-0.2,0.1-0.5,0.2-0.7,0.3
				c-0.3,0.1-0.7,0.2-1,0.3c-0.1,0-0.2,0.1-0.4,0.2c-0.5,0.1-0.9,0.3-1.3,0.5c-0.4,0.2-0.8,0.2-1.2,0.3c-0.2,0-0.3,0.1-0.5,0.1
				c-0.5,0.2-0.9,0.3-1.5,0.2c-0.2,0-0.3,0-0.5,0c-0.6,0-1.1,0-1.7,0c-0.4,0-0.9-0.2-1.3-0.3c-0.5-0.2-1-0.2-1.4-0.3
				c-0.1,0-0.3,0-0.4-0.1c-0.6-0.2-1.2-0.3-1.8-0.6c-0.8-0.4-1.7-0.7-2.5-1.3c-0.5-0.3-1-0.7-1.5-1c-0.2-0.2-0.4-0.4-0.6-0.5
				c-0.6-0.4-1.1-0.9-1.6-1.5c-0.2-0.2-0.4-0.4-0.6-0.6c-0.2-0.3-0.5-0.5-0.7-0.8c-0.2-0.3-0.5-0.5-0.7-0.8
				c-0.2-0.3-0.3-0.6-0.5-0.9c-0.1-0.1-0.1-0.2-0.1-0.3c0-0.3-0.1-0.4-0.4-0.5c0-0.4-0.2-0.7-0.3-1c-0.1-0.1-0.1-0.2-0.2-0.4
				c-0.1-0.5-0.3-0.9-0.4-1.3c-0.1-0.4-0.3-0.7-0.3-1.2c0-0.3-0.1-0.6-0.2-0.8c-0.1-0.2-0.1-0.5-0.2-0.7c0-0.2,0-0.4-0.2-0.6
				c-0.1-0.1-0.1-0.2-0.1-0.3c-0.1-0.6-0.2-1.2-0.3-1.9c-0.1-0.6-0.2-1.1-0.2-1.7c0-0.3,0-0.7,0-1c0,0,0-0.1,0-0.1
				c-0.2-0.4,0-0.9-0.1-1.3c0-0.4,0-0.8,0.1-1.3c0.1-0.7,0.1-1.4,0.2-2c0.1-0.5,0.1-1.1,0.3-1.6c0.1-0.3,0.1-0.7,0.2-1
				c0.1-0.3,0.1-0.7,0.2-1c0.1-0.3,0.1-0.6,0.2-0.8c0.1-0.9,0.4-1.7,0.8-2.6c0.2-0.6,0.4-1.2,0.7-1.8c0.2-0.4,0.3-0.9,0.4-1.3
				c0.1-0.5,0.4-1,0.6-1.5c0.1-0.2,0.1-0.5,0.2-0.7c0.1-0.2,0.2-0.5,0.3-0.7c0.2-0.4,0.3-0.8,0.5-1.1c0.2-0.5,0.4-0.9,0.6-1.4
				c0.3-0.6,0.5-1.2,0.8-1.8c0.1-0.2,0-0.3,0-0.4c-0.1-0.1-0.1-0.2-0.2-0.2c-0.3-0.5-0.5-1-0.8-1.6c-0.1-0.2-0.1-0.4-0.2-0.5
				c-0.2-0.4-0.3-0.8-0.5-1.2c-0.4-1-0.9-1.9-1.2-2.9c0-0.1-0.1-0.2-0.1-0.3c0-0.1-0.1-0.2-0.1-0.3c0-0.3,0-0.6-0.2-0.9
				c0,0,0-0.1,0-0.1c0-0.6-0.3-1.1-0.4-1.7c-0.1-0.6-0.2-1.2-0.3-1.8c0.6-0.1,1.2-0.3,1.8-0.4c0.2,0.2,0.3,0.5,0.3,0.8
				c0,0.1,0,0.2,0.1,0.2c0.2,0.3,0.2,0.6,0.3,0.9c0.1,0.3,0.1,0.6,0.3,0.9c0.2,0.3,0.2,0.7,0.3,1c0.1,0.4,0.1,0.9,0.3,1.3
				c0.2,0.4,0.2,0.8,0.4,1.2c0.1,0.2,0.3,0.4,0.4,0.7c0.1,0.1,0.1,0.3,0.2,0.4c0.1,0.2,0.2,0.4,0.3,0.5c0.1,0.2,0.3,0.3,0.2,0.6
				c0,0.2,0.2,0.3,0.2,0.5c0,0.2,0,0.4,0.1,0.5c0,0,0.1,0.1,0.1,0.2c0-0.1,0.1-0.2,0.1-0.2c0-0.4,0.2-0.7,0.3-1
				c0.1-0.2,0.2-0.4,0.3-0.6c0.1-0.2,0.2-0.3,0.3-0.5c0.3-0.4,0.6-0.7,0.7-1.2c0-0.1,0-0.1,0.1-0.1c0.2-0.2,0.5-0.4,0.5-0.8
				c0,0,0,0,0-0.1c0.2-0.2,0.3-0.4,0.5-0.7c0.2-0.3,0.3-0.5,0.5-0.8c0.2-0.4,0.5-0.8,0.8-1.1c0.5-0.7,1.1-1.4,1.7-2
				c0.1-0.1,0.2-0.2,0.3-0.3c0.5-0.5,1.1-1,1.5-1.5c0.2-0.3,0.6-0.4,0.7-0.8c0,0,0,0,0.1,0c0.4-0.3,0.8-0.5,1.2-0.8
				c0.1-0.1,0.2-0.2,0.4-0.3c0.5-0.4,1-0.7,1.5-1.1c0.3-0.2,0.6-0.4,0.9-0.5c0.2-0.1,0.3-0.3,0.5-0.4c0.3-0.2,0.6-0.3,0.9-0.5
				c0.1-0.1,0.3-0.2,0.4-0.2c0.4-0.3,0.9-0.4,1.4-0.6c0.6-0.2,1.2-0.4,1.9-0.5c0.7-0.1,1.4-0.1,2-0.1c0.8,0,1.5,0.1,2.3,0.2
				c0.3,0.1,0.6,0,0.9,0c0.4,0,0.9,0.1,1.3,0.2c0.2,0,0.4,0.2,0.5,0.3c0.2,0.2,0.3,0.3,0.5,0.3c0.1,0,0.1,0.1,0.1,0.1
				c0.2,0.3,0.4,0.4,0.7,0.5c0.4,0.2,0.8,0.3,1.2,0.5c0.1,0,0.1,0,0.2,0c-0.1-0.1-0.2-0.1-0.3-0.2c0.4-0.1,0.9,0,1.1,0.3
				c0.1,0.1,0.2,0.2,0.3,0.2c0.2,0.1,0.3,0.2,0.4,0.4c0.1,0.2,0.2,0.5,0.3,0.7c0.4,0.7,0.7,1.5,1.4,2.1c0.1,0,0.1,0.1,0.1,0.2
				c0.1,0.4,0.3,0.7,0.3,1.1c0.1,0.8,0.1,1.5,0,2.2c0,0.2-0.1,0.5,0,0.7c-0.2,0.3-0.1,0.6-0.3,0.9c-0.1,0.1-0.1,0.3-0.1,0.5
				c0,0.6-0.2,1.2-0.4,1.8c-0.1,0.3-0.2,0.7-0.2,1c0,0.1-0.1,0.2-0.1,0.3c0,0.1-0.1,0.2-0.1,0.2c0,0.3-0.1,0.5-0.2,0.8
				c-0.1,0.4-0.3,0.7-0.5,1c-0.1,0.2-0.3,0.5-0.4,0.7c-0.2,0.4-0.4,0.7-0.6,1c-0.2,0.3-0.3,0.6-0.5,0.9c-0.1,0.2-0.3,0.4-0.4,0.6
				c-0.1,0.2-0.2,0.4-0.4,0.5c-0.3,0.4-0.6,0.7-0.9,1.1c-0.3,0.4-0.8,0.7-1.2,1c-0.1,0.1-0.4,0.1-0.5,0.3c-0.4,0.1-0.6,0.4-0.9,0.6
				c-0.6,0.3-1.2,0.7-1.9,1c-0.6,0.2-1.2,0.3-1.8,0.6c-0.4,0.2-0.7,0.3-1.1,0.4c-0.5,0.2-1.1,0.4-1.6,0.4c-0.2,0-0.4,0.1-0.5,0.1
				c-0.4,0.1-0.8,0.1-1.2,0.2c0,0-0.1,0-0.1,0c-0.7,0-1.3,0.1-2,0c-0.7,0-1.3-0.1-2-0.2c-0.3,0-0.7-0.1-1-0.2
				c-0.1,0-0.2-0.1-0.2-0.1c-0.1,0-0.1-0.1-0.2-0.1c-0.5,0.1-0.9-0.2-1.4-0.3c-0.2,0-0.5-0.1-0.7-0.2c-0.1,0-0.1-0.1-0.2-0.1
				c0,0-0.1-0.1-0.1-0.1c-0.8-0.2-1.5-0.7-2.3-1c-0.1,0-0.2-0.1-0.2-0.2C117,45.1,116.8,45,116.7,45.1z M139.1,28.2
				c-0.4-0.2-0.7-0.5-1.1-0.7c-0.2-0.1-0.3-0.2-0.3-0.4c0-0.3-0.2-0.6-0.4-0.8c-0.2-0.1-0.3-0.3-0.5-0.4c-0.3-0.3-0.7-0.5-1.2-0.5
				c-0.1,0-0.2-0.1-0.3-0.1c-0.2-0.2-0.5-0.2-0.8-0.2c-0.3,0-0.6,0-0.9,0.1c-0.1,0-0.2,0-0.4,0.1c-0.6,0.1-1.3,0.2-1.9,0.4
				c-0.3,0.1-0.6,0.2-1,0.3c-0.2,0.1-0.4,0.2-0.5,0.3c-0.2,0.1-0.4,0.2-0.6,0.2c-0.3,0.1-0.6,0.3-0.9,0.5c-0.2,0.1-0.4,0.2-0.6,0.3
				c-0.1,0.1-0.2,0.1-0.3,0.2c-0.1,0.1-0.2,0.1-0.3,0.2c-0.2,0.1-0.3,0.3-0.5,0.4c-0.4,0.3-0.9,0.6-1.3,1c-0.3,0.2-0.6,0.5-0.9,0.7
				c-0.1,0.1-0.2,0.2-0.3,0.2c-0.2,0.2-0.3,0.3-0.5,0.5c-0.1,0.1-0.1,0.1-0.2,0.2c-0.3,0.3-0.6,0.7-0.9,1c0,0,0,0.1-0.1,0.1
				c-0.1,0.1-0.2,0.2-0.3,0.3c-0.2,0.3-0.3,0.5-0.6,0.7c-0.3,0.2-0.4,0.6-0.7,0.8c-0.1,0.1-0.1,0.3-0.2,0.3
				c-0.2,0.1-0.2,0.2-0.2,0.4c0,0.1,0,0.1,0,0.2c-0.3,0.4-0.5,0.7-0.7,1.1c-0.1,0.2-0.2,0.4-0.3,0.6c-0.2,0.3-0.4,0.6-0.6,0.9
				c-0.1,0.3-0.2,0.5-0.3,0.8c-0.1,0.2-0.1,0.5-0.3,0.6c0,0,0,0.1,0,0.1c-0.1,0.4-0.2,0.8-0.3,1.2c-0.1,0.3-0.2,0.5-0.3,0.8
				c0,0.1,0,0.1-0.1,0.2c-0.2,0.1-0.2,0.3-0.2,0.5c-0.1,0.4-0.1,0.9-0.2,1.3c0,0.3,0.1,0.5,0.3,0.6c0.1,0,0.2,0.1,0.3,0.2
				c0.3,0.2,0.6,0.4,0.9,0.5c0.6,0.3,1.1,0.5,1.7,0.8c0.2,0.1,0.5,0.2,0.7,0.2c0.2,0.1,0.5,0.1,0.8,0.1c0.7,0.2,1.5,0.2,2.2,0.2
				c0.5,0,1-0.1,1.5,0c0.8,0,1.6-0.2,2.4-0.3c0.4-0.1,0.9-0.2,1.3-0.3c0.5-0.1,0.9-0.3,1.4-0.4c0.4-0.1,0.8-0.2,1.1-0.4
				c0.3-0.1,0.5-0.2,0.8-0.3c0.2-0.1,0.3-0.1,0.4-0.2c0.4-0.2,0.7-0.5,1.1-0.7c0.4-0.2,0.7-0.4,1-0.7c0.2-0.2,0.4-0.3,0.6-0.5
				c0.2-0.2,0.5-0.4,0.7-0.6c0.4-0.6,0.8-1.2,1.2-1.9c0.2-0.3,0.4-0.6,0.6-0.9c0.2-0.3,0.3-0.7,0.4-1c0.1-0.4,0.2-0.7,0.3-1.1
				c0.1-0.5,0.4-0.9,0.4-1.4c0-0.3,0.1-0.6,0.2-0.9c0.3-0.6,0.3-1.2,0.4-1.8c0-0.2,0.1-0.5,0.1-0.7c0-0.1,0-0.1,0-0.2
				c-0.1-0.5-0.3-1-0.5-1.4c-0.1-0.1-0.1-0.3-0.3-0.3c-0.2,0-0.3-0.1-0.3-0.3C139.1,28.5,139.1,28.4,139.1,28.2z M176.5,54.5
				c0,0,0.1,0,0.1,0c0.3-0.4,0.6-0.7,0.9-1.1c0.7-0.8,1.2-1.8,1.8-2.7c0.3-0.6,0.7-1.1,1-1.7c0.2-0.4,0.5-0.8,0.7-1.1
				c0.4-0.5,0.7-0.9,0.9-1.5c0,0,0-0.1,0.1-0.1c0.3-0.3,0.5-0.7,0.7-1.1c0.1-0.1,0.2-0.3,0.3-0.4c0.1-0.2,0.3-0.3,0.3-0.5
				c0.1-0.7,0.4-1.3,0.7-1.9c0.2-0.4,0.4-0.8,0.6-1.2c0.3-0.6,0.6-1.2,1-1.8c0.2-0.3,0.4-0.6,0.5-0.9c0.1-0.2,0.1-0.4,0.2-0.6
				c0.1-0.5,0.3-1,0.4-1.5c0.1-0.2,0.1-0.4,0.1-0.6c0.1-0.2,0.1-0.4,0.2-0.5c0.1-0.2,0.1-0.4,0.1-0.5c0.4-0.8,0.6-1.6,1-2.4
				c0.1-0.2,0.2-0.5,0.2-0.8c0.1-0.6,0.3-1.1,0.4-1.7c0.1-0.3,0.1-0.6,0.2-0.9c0.2-0.5,0.3-1,0.5-1.5c0.1-0.2,0.1-0.4,0.2-0.6
				c0.1-0.2,0.1-0.3,0.1-0.5c0-0.2,0.1-0.5,0.1-0.7c0-0.1,0-0.2,0-0.3c-0.1-0.8-0.1-1.7-0.2-2.5c-0.2,0.1-0.2-0.1-0.2-0.2
				c0-0.1,0-0.3,0-0.4c0-0.1,0-0.2,0.1-0.3c0-0.2-0.2-0.3-0.3-0.5c-0.1,0-0.2,0-0.3,0c-0.3,0-0.5-0.2-0.8,0c-0.3,0-0.6,0.2-0.9,0.3
				c-0.1,0-0.1,0.1-0.2,0.2c-0.3,0.3-0.6,0.5-0.9,0.8c-0.1,0.1-0.1,0.1-0.2,0.2c-0.2,0.2-0.3,0.5-0.5,0.6c-0.4,0.4-0.8,0.7-1,1.2
				c-0.1,0.3-0.3,0.5-0.3,0.8c0,0,0,0.1-0.1,0.1c-0.1,0.2-0.2,0.4-0.3,0.6c-0.1,0.1-0.1,0.3-0.2,0.4c-0.1,0.1-0.2,0.3-0.2,0.4
				c-0.1,0.3-0.2,0.6-0.4,0.9c-0.1,0.1-0.1,0.2-0.1,0.3c-0.1,0.2-0.1,0.5-0.3,0.6c0,0-0.1,0.1-0.1,0.2c-0.1,0.3-0.1,0.6-0.3,0.9
				c-0.2,0.3-0.2,0.6-0.3,0.9c-0.1,0.2-0.1,0.5-0.3,0.7c0,0.1-0.1,0.2-0.1,0.3c-0.1,0.2-0.1,0.5-0.3,0.7c-0.1,0.2-0.2,0.3-0.2,0.5
				c0,0.1,0,0.2-0.1,0.2c-0.1,0.2-0.2,0.4-0.2,0.6c-0.1,0.4-0.1,0.7-0.2,1.1c0,0.1-0.1,0.2-0.1,0.3c-0.1,0.3-0.2,0.6-0.3,0.8
				c0,0,0,0.1,0,0.1c0,0.1,0,0.3-0.1,0.4c0,0.2-0.1,0.3-0.2,0.5c-0.1,0.3-0.1,0.6-0.2,0.9c-0.2,0.3-0.1,0.6-0.2,0.9
				c0,0.1-0.1,0.1-0.1,0.2c-0.1,0.2-0.2,0.5-0.2,0.7c0,0.1,0,0.1-0.1,0.2c-0.1,0.2-0.2,0.3-0.2,0.5c0,0.1,0,0.2-0.1,0.3
				c-0.3,0.6-0.5,1.2-0.6,1.9c0,0.1,0,0.1,0,0.2c-0.1,0.3-0.2,0.7-0.3,1c-0.1,0.6-0.4,1.2-0.4,1.9c0,0,0,0.1,0,0.1
				c-0.1,0.1-0.1,0.3-0.1,0.5c-0.1,0.3-0.1,0.7-0.2,1c-0.1,0.3-0.1,0.7-0.3,1c0,0,0,0.1,0,0.1c0,0.2,0,0.4-0.1,0.6
				c-0.1,0.4-0.1,0.8-0.2,1.1c-0.1,0.4-0.1,0.7-0.2,1.1c0,0.3-0.1,0.5-0.1,0.8C176.6,52.8,176.5,53.7,176.5,54.5z M191.7,53.4
				C191.7,53.4,191.6,53.4,191.7,53.4c-0.2,0.1-0.3,0.2-0.4,0.3c-0.2,0.2-0.4,0.3-0.6,0.4c-0.2,0.1-0.3,0.4-0.5,0.5
				c-0.3,0.4-0.7,0.8-1,1.2c-0.1,0.2-0.2,0.4-0.3,0.6c-0.2,0.2-0.4,0.5-0.5,0.8c-0.3,0.6-0.7,1.2-1,1.8c-0.2,0.4-0.4,0.8-0.6,1.2
				c-0.3,0.5-0.6,1-0.8,1.5c-0.1,0.2-0.3,0.4-0.4,0.6c-0.1,0.4-0.3,0.7-0.5,1c-0.1,0.2-0.2,0.3-0.2,0.5c-0.1,0.2-0.1,0.5-0.2,0.7
				c-0.1,0.4-0.3,0.7-0.4,1.1c-0.1,0.3-0.2,0.6-0.2,1c0,0.1-0.1,0.2-0.1,0.2c0,0.1-0.1,0.1-0.1,0.2c-0.1,0.5-0.1,1-0.3,1.5
				c0,0,0,0.1,0,0.1c0.1,0.4-0.1,0.7-0.2,1.1c0,0.4-0.2,0.8-0.3,1.2c0,0,0,0,0.1,0c0.3-0.2,0.6-0.4,0.8-0.6c0.2-0.1,0.3-0.3,0.5-0.5
				c0.2-0.2,0.3-0.4,0.5-0.6c0.2-0.2,0.3-0.3,0.5-0.4c0.6-0.4,1.2-0.8,1.8-1.1c0.4-0.2,0.7-0.4,1-0.7c0.4-0.4,0.9-0.8,1.3-1.2
				c0.4-0.4,0.8-0.8,1.2-1.2c0.4-0.4,0.7-0.7,1.1-1.1c0.2-0.2,0.4-0.4,0.5-0.7c0.2-0.4,0.4-0.7,0.6-1.1c0.1-0.1,0.1-0.2,0.1-0.3
				c0.1-0.3,0.3-0.6,0.4-0.9c0.1-0.2,0.2-0.3,0.2-0.5c0.1-0.2,0.2-0.3,0.3-0.5c0.2-0.3,0.2-0.7,0.3-1.1c0.2-0.4,0.3-0.8,0.4-1.2
				c0.3-0.6,0.3-1.2,0.3-1.8c0-0.1,0-0.2,0-0.3c0-0.6-0.2-1.1-0.4-1.6c-0.1-0.3-0.3-0.5-0.6-0.7c-0.2-0.1-0.4-0.1-0.5-0.1
				c-0.6-0.1-1.1,0.1-1.6,0.4C191.9,53.3,191.8,53.3,191.7,53.4z M225.5,55.3c0-0.3,0-0.6,0.1-0.9c0.1-0.4,0.1-0.8,0.1-1.1
				c0.1-0.7-0.2-1.4-0.4-2.1c-0.2-0.5-0.3-1-0.8-1.3c0,0,0-0.1-0.1-0.1c-0.1-0.2-0.2-0.3-0.4-0.5c-0.1-0.1-0.2-0.1-0.3-0.2
				c-0.3-0.3-0.7-0.6-1.2-0.4c-0.1-0.2-0.1-0.3-0.2-0.4c-0.5,0-0.9,0-1.4,0c-0.1,0-0.2,0-0.2,0c-0.4,0.2-0.9,0.2-1.3,0.5
				c-0.6,0.1-0.9,0.6-1.5,0.8c-0.2,0.3-0.6,0.3-0.7,0.6c0,0-0.1,0.1-0.1,0.1c-0.3,0.1-0.5,0.2-0.5,0.5c-0.1,0.3-0.3,0.6-0.4,1
				c-0.2,0.5-0.4,1-0.4,1.5c0,0.1,0,0.1,0,0.2c-0.2,0.5-0.2,1,0.2,1.5c0,0,0,0.1,0,0.1c0.2,0.2,0.3,0.5,0.5,0.7
				c0.1,0.1,0.1,0.2,0.1,0.3c0.5,0.7,1.2,1.1,2,1.2c0.5,0.1,1,0,1.5-0.1c0.5-0.1,1-0.3,1.4-0.4c0.3-0.1,0.6-0.1,0.8-0.2
				c0.5-0.2,0.9-0.4,1.4-0.6C224.4,55.8,224.9,55.5,225.5,55.3z"/>
			<path class="st1" d="M133.4,84c0.1,0.1,0.2,0.1,0.4,0.2c0.3,0.1,0.6,0.2,0.9,0.4c0.1,0.1,0.4,0.1,0.3,0.3c0,0.3,0,0.6-0.1,0.8
				c-0.2,0.3-0.4,0.5-0.8,0.6c-0.7,0.3-1.5,0.3-2.3,0.2c-0.6-0.1-1.1,0-1.7-0.1c-0.2,0-0.4,0-0.6,0c-0.3-0.1-0.6,0-0.9,0.2
				c-0.3,0.1-0.6,0.1-0.9,0.2c-0.5,0.1-0.9,0.1-1.4,0.3c0,0,0,0,0,0c-0.8,0.1-1.6,0.5-2.4,0.7c-0.9,0.2-1.7,0.6-2.6,0.9
				c-0.2,0.1-0.5,0.1-0.7,0.2c-0.5,0.2-1,0.3-1.4,0.6c0,0,0,0-0.1,0c-0.5,0-0.9,0.3-1.4,0.6c0,0,0,0-0.1,0c-0.4,0-0.6,0.3-0.9,0.5
				c-0.2,0.2-0.6,0.3-0.8,0.4c-0.1,0.1-0.2,0.1-0.3,0.2c-0.2,0.3-0.5,0.4-0.8,0.4c-0.2,0-0.4,0.1-0.4,0.3c-0.1,0.2-0.2,0.4-0.4,0.4
				c-0.3,0.1-0.5,0.3-0.7,0.5c-0.1,0.1-0.1,0.1-0.2,0.2c-0.2,0.1-0.4,0.2-0.5,0.5c0,0.1-0.1,0.1-0.2,0.1c-0.4,0.3-0.8,0.6-1.2,0.9
				c-0.2,0.2-0.4,0.4-0.7,0.5c0,0-0.1,0.1-0.1,0.1c-0.4,0.5-0.9,0.9-1.4,1.2c0,0-0.1,0-0.1,0.1c-0.2,0.4-0.7,0.5-0.9,0.8
				c-0.3,0.4-0.9,0.4-1.1,0.9c-0.1,0.1-0.1,0.1-0.2,0.2c-0.2,0.3-0.3,0.4-0.7,0.5c-0.2,0.1-0.4,0.2-0.5,0.4c-0.1,0-0.1,0.1-0.2,0.1
				c-0.1,0.1-0.3,0.2-0.4,0.1c-0.2-0.1-0.4-0.2-0.5-0.4c-0.2-0.2-0.3-0.4-0.5-0.4c-0.2-0.1-0.3-0.3-0.3-0.5c0-0.2-0.1-0.4-0.3-0.5
				c0-0.2,0-0.3,0.2-0.3c0.6-0.2,1.1-0.6,1.5-1.1c0.4-0.4,0.8-0.7,1.2-1c0.1-0.1,0.3-0.2,0.4-0.3c0.4-0.5,0.9-0.8,1.4-1.2
				c0.3-0.3,0.7-0.5,1-0.7c0.1-0.1,0.2-0.1,0.3-0.2c0.2-0.2,0.5-0.3,0.7-0.5c0.6-0.4,1.1-0.8,1.7-1.1c0.3-0.2,0.6-0.4,0.9-0.6
				c0.1-0.1,0.3-0.2,0.4-0.3c0.2-0.2,0.4-0.4,0.7-0.4c0.1,0,0.3-0.1,0.4-0.2c0.3-0.2,0.6-0.5,0.9-0.6c0.4-0.2,0.8-0.5,1.2-0.6
				c0.5-0.2,0.9-0.4,1.4-0.6c0.3-0.1,0.7-0.3,1-0.4c0.7-0.3,1.3-0.6,2-0.9c0.2-0.1,0.4-0.1,0.5-0.2c0.6-0.2,1.2-0.4,1.8-0.7
				c0.3-0.2,0.7-0.2,1.1-0.4c0.4-0.1,0.7-0.3,1.1-0.4c0.5-0.1,0.9-0.2,1.4-0.3c0.8-0.2,1.6-0.4,2.4-0.5c0.7-0.1,1.4-0.1,2.2-0.2
				c0.1,0,0.3,0,0.4-0.1c0.1,0,0.1,0,0.2,0c0.4,0,0.8,0.1,1.2,0.1C132.9,84,133.1,84,133.4,84z"/>
			<path class="st1" d="M153.3,35.3c0.1,0,0.1,0,0.1,0.1c0,0,0,0,0-0.1c0-0.5,0.2-0.9,0.5-1.3c0.1-0.3,0.4-0.4,0.6-0.6
				c0.3-0.2,0.6-0.5,0.9-0.8c0.1-0.1,0.2-0.1,0.4-0.1c0.3,0.2,0.3,0.2,0.6-0.1c0.2,0.3,0.5,0.2,0.9,0.2c0.3,0,0.6,0,0.9,0.1
				c0.3,0,0.7,0.1,1,0c0.2,0,0.4,0.1,0.5,0.2c0.4,0.3,0.7,0.7,1,1.2c0.1,0.3,0.3,0.5,0.6,0.7c0.2,0.2,0.4,0.4,0.4,0.8
				c0,0.2,0.1,0.4,0.1,0.6c0,0.1,0,0.2,0,0.3c0,0.1,0,0.1,0,0.2c0.1,0.5-0.1,1-0.4,1.4c-0.2,0.3-0.3,0.6-0.5,0.8
				c-0.2,0.3-0.3,0.6-0.5,0.8c-0.3,0.3-0.5,0.7-1,0.8c0,0,0,0-0.1,0c-0.2,0.4-0.6,0.4-1,0.6c-0.4,0.2-0.8,0.2-1.2,0.3
				c-0.4,0.1-0.9,0.1-1.3-0.1c-0.1-0.1-0.3,0-0.5-0.1c-0.3,0-0.5-0.1-0.6-0.4c-0.1-0.2-0.3-0.3-0.4-0.4c-0.1-0.1-0.2-0.1-0.2-0.2
				c0,0,0-0.1-0.1-0.1c-0.5-0.3-0.7-0.9-0.9-1.4c-0.1-0.3-0.3-0.6-0.4-0.9c-0.1-0.5-0.1-1,0.3-1.5c0.2-0.2,0.3-0.5,0.3-0.7
				C153.2,35.6,153.2,35.5,153.3,35.3z"/>
		</g>
	</g>
	<g>
		<g>
			<path class="st1" d="M47.5,50.3c0,0.2-0.1,0.4-0.1,0.5c-0.1,0.4-0.1,0.7-0.3,1.1C47,52.1,47,52.3,47,52.4c0,0.1,0.1,0.2,0.2,0.4
				c0,0,0,0.1-0.1,0.2c0.2,0.3,0,0.6,0,0.8c0,0-0.1,0.1-0.2,0.1c-0.3,0-0.6,0.1-0.9,0c-0.3-0.1-0.5,0-0.7,0.2c0-0.1,0-0.1,0.1-0.2
				c-0.1-0.1-0.3-0.2-0.4-0.3c0-0.2,0.1-0.4,0.2-0.6c0.2-0.5,0.4-1,0.5-1.6c0-0.2,0.1-0.3,0.1-0.5c0.1-0.3,0.1-0.5,0.1-0.8
				c0-0.1,0-0.1,0-0.1c0.2-0.1,0.1-0.3,0.2-0.5c0.1-0.3,0-0.7,0.1-1c0.2-0.5,0.1-1,0.2-1.6c0-0.1,0-0.3,0-0.4
				c-0.1-0.1-0.2-0.3-0.4-0.4c-0.1-0.1-0.3-0.1-0.4-0.2c-0.3-0.1-0.6-0.2-1-0.1c-0.3,0.1-0.6,0.2-0.9,0.3c-0.3,0.1-0.7,0.3-0.9,0.6
				c-0.2,0.2-0.4,0.5-0.7,0.7c-0.2,0.1-0.3,0.4-0.5,0.6c-0.1,0.1-0.1,0.2-0.2,0.3c-0.1,0.1-0.2,0.2-0.2,0.4
				c-0.1,0.2-0.2,0.3-0.3,0.4c0,0-0.1,0.1-0.1,0.1c0,0.2-0.2,0.2-0.3,0.3c0,0.4-0.3,0.6-0.5,0.9c-0.1,0.2-0.3,0.4-0.4,0.6
				c-0.2,0.2-0.3,0.4-0.4,0.7c0,0.1-0.1,0.2-0.2,0.3c-0.2,0.1-0.2,0.2-0.3,0.4c-0.1,0.2-0.3,0.3-0.3,0.5c-0.1,0.4-0.4,0.6-0.6,1
				c-0.1,0.2-0.3,0.4-0.4,0.6c-0.1,0.1-0.1,0.1-0.1,0.2c-0.2,0.3-0.3,0.7-0.6,0.9c0,0,0,0.1,0,0.1c0,0.2-0.1,0.3-0.2,0.4
				c-0.1,0.2-0.2,0.5-0.3,0.7c0,0.1-0.1,0.1-0.1,0.2c-0.2,0.2-0.3,0.5-0.5,0.8c0,0.1-0.1,0.1-0.1,0.2c-0.1,0.1-0.2,0.2-0.2,0.4
				c0,0.1-0.1,0.2-0.1,0.4c-0.1,0.2-0.1,0.4-0.2,0.6c-0.1,0.3-0.2,0.5-0.3,0.8c0,0.1,0,0.1-0.1,0.2c-0.1,0.3-0.2,0.5-0.2,0.8
				c0,0.1,0,0.1-0.1,0.2c-0.2,0.3-0.2,0.6-0.3,0.9c0,0.2-0.1,0.4-0.2,0.6c0,0.1-0.1,0.3-0.1,0.4c-0.1,0.7-0.2,1.5-0.3,2.2
				c0,0.3-0.1,0.6-0.1,0.9c0,0,0,0.1,0,0.1c-0.1,0.5-0.1,1-0.1,1.5c0,0.4,0,0.8,0,1.3c0,0.2,0,0.4,0.1,0.7c0,0,0,0.1,0,0.1
				c0,0.2-0.1,0.4,0,0.5c0.1,0.2,0.1,0.3,0.1,0.5c0.2,0.4,0.2,0.9,0.5,1.3c0.2,0.2,0.3,0.6,0.5,0.8c0.2,0.3,0.4,0.6,0.7,0.7
				c0.2,0.1,0.3,0.2,0.5,0.2c0.4,0.2,0.9,0.1,1.3-0.1c0.1-0.1,0.3-0.1,0.5-0.1c0.3-0.1,0.6-0.3,0.9-0.5c0.5-0.3,1-0.7,1.4-1.1
				c0.3-0.3,0.6-0.6,1-0.9c0.2-0.2,0.4-0.5,0.7-0.7c0.4-0.4,0.7-0.9,1.1-1.3c0.2-0.2,0.4-0.4,0.6-0.6c0.2-0.3,0.5-0.5,0.7-0.8
				c0.2-0.2,0.4-0.4,0.6-0.6c0.3-0.5,0.9-0.9,1.2-1.4c0.1-0.2,0.4-0.4,0.6-0.6c0.2-0.1,0.3-0.3,0.5-0.4c0,0,0.1-0.1,0.1-0.1
				c0-0.1,0.1-0.2,0.2-0.2c0.2-0.1,0.4-0.3,0.5-0.5c0.3-0.4,0.6-0.7,0.9-1.1c0.1-0.2,0.3-0.4,0.5-0.6c0,0,0-0.1,0.1-0.1
				c0.2-0.1,0.3-0.3,0.3-0.6c0.2,0,0.3,0,0.4,0.1c0.2,0.3,0.5,0.3,0.9,0.4c0.2,0,0.4,0.1,0.6,0.2c0.3,0.1,0.5,0.3,0.7,0.4
				c0.1,0.1,0.2,0.2,0.2,0.3c0.1,0.2,0.2,0.4,0.3,0.6c0,0.1,0.1,0.2,0,0.3c0,0.1,0,0.2-0.1,0.3c0,0.2-0.1,0.5-0.1,0.7
				c0,0.3-0.2,0.6-0.3,0.8c0,0.1-0.1,0.2-0.1,0.2C51.2,65.8,51,66,51,66.2c0,0.2-0.2,0.4-0.3,0.5c-0.1,0.2-0.2,0.3-0.1,0.5
				c-0.1,0.1-0.2,0.2-0.2,0.3c0,0.1-0.1,0.3-0.2,0.4c-0.2,0.4-0.1,0.9-0.4,1.4c-0.2,0.3-0.1,0.7-0.1,1c0,0.4-0.1,0.8-0.2,1.2
				c-0.1,0.6-0.1,1.2,0.4,1.7c0.2,0,0.5,0,0.7-0.1c0.2-0.1,0.4-0.2,0.5-0.3c0.5-0.2,1-0.5,1.5-0.9c0.2-0.2,0.5-0.5,0.7-0.7
				c0,0,0-0.1,0.1-0.1c0.4-0.4,0.7-0.8,1-1.2c0.1-0.2,0.3-0.4,0.4-0.6c0.2-0.2,0.4-0.5,0.6-0.7c0.1-0.1,0.2-0.3,0.3-0.4
				c0.2-0.2,0.3-0.5,0.5-0.7c0.2-0.3,0.3-0.5,0.4-0.8c0.1-0.1,0.1-0.2,0.2-0.3c0.3-0.4,0.5-0.9,0.7-1.4c0-0.1,0.1-0.3,0.1-0.4
				c0.1-0.5,0.3-1,0.4-1.5c0.1-0.5,0.3-0.9,0.5-1.4c-0.3-0.1-0.5,0-0.7,0c-0.5,0.1-0.9,0.3-1.4,0.2c-0.2,0-0.4,0.1-0.6,0.1
				c-0.5,0.1-0.9,0.1-1.4,0c-0.2,0-0.3-0.1-0.5-0.1c-0.1,0-0.2,0-0.3-0.1C53,61.5,52.4,61,52,60.3c-0.1-0.2-0.3-0.5-0.3-0.8
				c0-0.3-0.1-0.5,0-0.8c0-0.2,0-0.5,0-0.8c0-0.2,0-0.4,0.1-0.6c0-0.1,0.1-0.1,0.1-0.2c0.1-0.3,0.3-0.6,0.5-0.8
				c0.1-0.1,0.2-0.1,0.2-0.1c0.2-0.2,0.5-0.2,0.7-0.5c0.1-0.2,0.4-0.3,0.6-0.4c0.4-0.2,0.8-0.4,1.2-0.5c0.4-0.1,0.8-0.1,1.3,0
				c0.2,0,0.4,0,0.7,0c0.5,0,1,0.1,1.5,0.2c0.2,0.1,0.4,0.3,0.7,0.4c0.1,0,0.1,0,0.2,0.1c0-0.3-0.3-0.3-0.4-0.5
				c0.3,0.1,0.5,0.2,0.7,0.4c0.3,0.4,0.6,0.7,0.8,1.1c0.2,0.3,0.3,0.6,0.5,0.9c0.1,0.2,0.1,0.4,0.3,0.5c0.1,0.1,0.1,0.2,0.1,0.3
				c0.1,0.2,0.1,0.2,0.3,0.2c0.5-0.1,1-0.3,1.5-0.4c0.3-0.1,0.6-0.1,0.9-0.2c0.1-0.1,0.3-0.1,0.4-0.1c0.5-0.1,1-0.3,1.5-0.4
				c0.1,0,0.2-0.1,0.2-0.3c0.3,0,0.5,0,0.8,0c0.2,0,0.3,0,0.5,0c0.1,0,0.1,0,0.2,0c0.2,0.1,0.3,0.2,0.5,0.1c0.1,0,0.2,0,0.3,0.2
				c0,0,0.1,0.1,0.1,0.1c0.1,0,0.2,0.1,0.3,0.2c0.1,0.1,0.2,0.1,0.3,0.2c0.1,0.1,0.3,0.1,0.4,0.2c0.3,0.3,0.6,0.6,0.7,1
				c0,0.1,0.1,0.2,0.1,0.4c0,0.4,0,0.8-0.4,1.1c-0.2,0.2-0.3,0.4-0.4,0.7c-0.1,0.3-0.3,0.5-0.5,0.7c-0.1,0.1-0.2,0.2-0.3,0.4
				c0,0-0.1,0.1-0.1,0.1c-0.1,0.2-0.2,0.5-0.3,0.7c-0.1,0.2-0.2,0.5-0.4,0.7c-0.2,0.3-0.5,0.6-0.5,1c-0.2,0.3-0.2,0.7-0.4,1
				c0,0,0,0,0,0.1c-0.2,0.2-0.3,0.5-0.2,0.8c0,0.1,0,0.1-0.1,0.2c0,0.1-0.1,0.1-0.1,0.2c-0.1,0.6-0.3,1.3-0.4,1.9
				c-0.1,0.4,0,0.8,0,1.2c0,0.1,0,0.2,0,0.3c0,0.4,0.1,0.7,0.2,1.1c0.1,0.2,0.3,0.4,0.5,0.3c0.4,0,0.8,0,1.2-0.3
				c0.3-0.2,0.6-0.4,0.9-0.6c0.3-0.3,0.7-0.5,1.1-0.8c0.4-0.3,0.7-0.7,1.1-1c0.4-0.4,0.8-0.8,1.1-1.2c0.3-0.3,0.5-0.6,0.7-0.9
				c0,0,0-0.1,0.1-0.1c0.3-0.2,0.4-0.6,0.6-0.8c0.1-0.2,0.2-0.4,0.4-0.6c0.1-0.2,0.2-0.4,0.3-0.6c0.1-0.2,0.3-0.4,0.4-0.6
				c0.1-0.2,0.2-0.4,0.4-0.6c0.2-0.4,0.4-0.8,0.6-1.2c0.1-0.3,0.3-0.6,0.4-0.8c0.2-0.5,0.2-1.1,0.3-1.6c0-0.3,0.1-0.6,0.1-0.9
				c-0.1-0.1-0.1-0.1-0.2-0.2c-0.5,0.3-1.1,0.3-1.7,0.3c-0.2,0-0.4,0-0.6,0c-0.3,0-0.6-0.1-0.9-0.3c-0.3-0.2-0.6-0.4-0.9-0.6
				c-0.1-0.1-0.1-0.1-0.2-0.2c-0.2-0.2-0.3-0.4-0.5-0.6c-0.2-0.2-0.4-0.4-0.5-0.7c-0.1-0.1-0.2-0.2-0.2-0.4
				c-0.3-0.6-0.3-1.2-0.3-1.8c0-0.4-0.1-0.7,0.1-1.1c-0.1-0.3,0.1-0.5,0.2-0.8c0.1-0.2,0.3-0.3,0.4-0.3c0.1,0,0.2,0,0.3,0.1
				c0.3,0,0.3-0.3,0.6-0.4c0.1,0.1,0.2,0.1,0.3,0.2c0.2,0.1,0.4,0.2,0.6,0c0.4-0.3,0.7-0.2,1.1-0.1c0.3,0.1,0.7,0.2,1,0.1
				c0,0,0.1,0,0.1,0c0.3,0.1,0.6,0.2,0.9,0.2c0.3,0.1,0.5,0.2,0.7,0.4c0.1,0.1,0.2,0.2,0.3,0.2c0.2,0.1,0.3,0.2,0.5,0.4
				c0.3,0.4,0.5,0.9,0.8,1.4c0.1,0.1,0.1,0.2,0.1,0.4c0.1,0.2,0.2,0.4,0.3,0.6c0.7-0.2,1.3-0.4,2-0.6c0.3-0.1,0.6-0.2,0.9-0.3
				c0.2-0.1,0.3-0.1,0.3-0.3c0.2,0.1,0.4-0.1,0.5-0.2c0.3-0.3,0.7-0.4,1-0.6c0.1-0.1,0.2-0.2,0.3-0.3c0.1-0.2,0.1-0.5,0.2-0.7
				c0.1-0.2,0.1-0.3,0.2-0.5c0.3-0.7,0.5-1.5,0.8-2.2c0.1-0.2,0.2-0.5,0.3-0.7c0.1-0.2,0.2-0.4,0.3-0.5c0.1-0.2,0.2-0.4,0.2-0.6
				c0.2-0.4,0.4-0.8,0.6-1.1c0.2-0.3,0.3-0.5,0.4-0.8c0.2-0.3,0.3-0.6,0.5-0.9c0.2-0.4,0.4-0.8,0.7-1.1c0,0,0-0.1,0-0.1
				c0.2-0.2,0.3-0.5,0.4-0.7c0-0.1,0.1-0.1,0.2-0.1c0.3,0,0.3,0,0.6,0.4c0.2,0,0.3,0,0.4,0.1c0.4,0,0.6,0.3,0.9,0.4
				c0.6,0.3,0.9,1.2,0.7,1.8c-0.1,0.2-0.1,0.4-0.2,0.6c0,0.3-0.1,0.5-0.2,0.7c-0.2,0.4-0.2,0.9-0.5,1.3c0,0,0,0.1,0,0.1
				c0,0.1,0,0.1,0,0.2c-0.1,0.2-0.2,0.3-0.2,0.6c0,0.2-0.1,0.4-0.2,0.6c-0.1,0.3-0.2,0.6-0.3,0.9c-0.1,0.3-0.2,0.5-0.3,0.8
				c-0.1,0.3-0.2,0.6-0.3,0.9c-0.2,0.3-0.2,0.7-0.3,1c0,0.2-0.1,0.3-0.2,0.5c0,0.1-0.1,0.2-0.1,0.3c-0.1,0.4-0.2,0.8-0.4,1.2
				c-0.1,0.2-0.1,0.4-0.2,0.6c-0.1,0.2-0.1,0.4-0.2,0.6c-0.1,0.2-0.1,0.4-0.2,0.7c-0.1,0.3-0.2,0.5-0.3,0.8C87.2,59.1,87,59.5,87,60
				c0,0.2-0.1,0.4-0.2,0.7c-0.1,0.2-0.2,0.5-0.2,0.7c0,0.1,0,0.1,0,0.2c0.1-0.1,0.1-0.2,0.2-0.2c0.2-0.3,0.5-0.5,0.7-0.8
				c0.2-0.2,0.3-0.4,0.5-0.7c0,0,0,0,0-0.1c0.3-0.3,0.6-0.7,0.9-1c0.2-0.3,0.4-0.5,0.6-0.8c0.2-0.2,0.4-0.4,0.6-0.6
				c0.3-0.2,0.5-0.5,0.8-0.7c0.2-0.1,0.4-0.3,0.6-0.4c0.4-0.2,0.8-0.4,1.1-0.6c0.3-0.2,0.6-0.3,0.9-0.4c0.3-0.1,0.6-0.1,0.9-0.1
				c0.4,0,0.8,0,1.2,0c0.3,0,0.6,0.1,0.8,0.2c0.2,0.1,0.3,0.2,0.5,0.3c0.1,0.1,0.2,0.2,0.4,0.2c0.2,0.1,0.3,0.2,0.4,0.4
				c0.2,0.5,0.2,1,0.1,1.4c0,0.1,0,0.2,0,0.4c0,0.1,0,0.2-0.1,0.2c-0.2,0.2-0.2,0.4-0.2,0.6c0,0.4-0.2,0.6-0.4,0.9
				c0,0.1-0.1,0.1-0.1,0.2c-0.3,0.7-0.8,1.2-1.3,1.8c-0.2,0.2-0.4,0.4-0.6,0.5c-0.3,0.2-0.5,0.4-0.8,0.7c-0.1,0.1-0.2,0.1-0.3,0.1
				c-0.5,0.2-1,0.5-1.5,0.7c-0.2,0.1-0.4,0.3-0.6,0.4c-0.3,0.2-0.7,0.3-1,0.5c0,0-0.1,0-0.2,0c0,0.1,0.1,0.2,0.1,0.3
				c0.2,0.3,0.4,0.6,0.6,0.8c0.3,0.3,0.5,0.6,0.7,0.9c0.1,0.1,0.1,0.1,0.2,0.2c0.2,0.3,0.4,0.6,0.7,0.8c0.1,0.1,0.1,0.1,0.1,0.2
				c0.1,0.2,0.2,0.2,0.3,0.3c0,0.1,0.1,0.2,0.1,0.3c0.3,0.3,0.6,0.7,1,1c0.4,0.3,0.7,0.5,1.2,0.7c0.6,0.2,1.2,0.5,1.8,0.4
				c0.3,0,0.7,0,1-0.2c0.1-0.1,0.2-0.2,0.3-0.2c0.3-0.3,0.6-0.3,0.9-0.2c0.4,0.1,0.9,0.5,0.8,1.1c-0.1,0.4-0.3,0.8-0.7,1
				c-0.4,0.1-0.8,0.2-1.1,0.3c-0.1,0-0.2,0.1-0.2,0c-0.3-0.1-0.6,0-0.9,0c-0.5,0-1-0.1-1.5-0.2c-0.7-0.2-1.2-0.5-1.8-0.8
				c-0.5-0.3-0.9-0.7-1.4-1.1c-0.4-0.3-0.6-0.7-0.9-1.1c-0.2-0.2-0.4-0.4-0.6-0.7c-0.2-0.3-0.5-0.6-0.7-0.9
				c-0.2-0.3-0.5-0.6-0.7-0.8c-0.4-0.5-0.7-1-1.1-1.5c-0.2-0.2-0.3-0.3-0.5-0.4c-0.3-0.1-0.5-0.4-0.5-0.7c0-0.2,0-0.5,0-0.7
				c-0.2,0-0.3,0.1-0.4,0.3c-0.1,0.2-0.3,0.5-0.4,0.7c-0.1,0.2-0.2,0.4-0.3,0.6c-0.1,0.2-0.2,0.4-0.3,0.7c-0.2,0.4-0.3,0.8-0.4,1.1
				c-0.1,0.2-0.2,0.4-0.3,0.6c-0.1,0.2-0.2,0.4-0.3,0.7c-0.1,0.2-0.2,0.5-0.3,0.7c-0.2,0.4-0.4,0.8-0.6,1.2
				c-0.3,0.5-0.5,1.1-0.6,1.7c-0.1,0.3-0.1,0.5-0.2,0.8c0,0.2-0.2,0.5-0.3,0.7c-0.1,0.1-0.3,0.2-0.4,0.3C83.2,73.9,83.1,74,83,74
				c-0.3-0.1-0.4-0.3-0.5-0.5c-0.1-0.3-0.3-0.4-0.6-0.5c-0.4-0.2-0.6-0.5-0.8-0.7c-0.1-0.1-0.3-0.3-0.4-0.4
				c-0.2-0.2-0.3-0.5-0.3-0.8c0-0.3,0-0.6,0-0.9c0-0.1,0-0.2,0-0.3c-0.1-0.7,0.1-1.3,0.1-1.9c0.1-0.6,0.2-1.2,0.2-1.8
				c0-0.3,0.1-0.5,0.1-0.8c0-0.1,0-0.1,0-0.2c0-0.1,0.1-0.1,0.1-0.2c0.1-0.2,0.1-0.4,0.1-0.5c0.1-0.5,0.2-1,0.3-1.5
				c0.1-0.2,0.1-0.4,0.1-0.6c0.1-0.3,0.1-0.6,0.2-0.9c0.1-0.5,0.2-1,0.4-1.4c0.1-0.3,0.2-0.5,0.3-0.8c0.1-0.3,0.2-0.6,0.3-0.9
				c0.1-0.4,0.2-0.8,0.4-1.2c0,0,0-0.1,0-0.1c-0.3,0-0.6,0.1-0.9,0.3c-0.1,0-0.2,0.1-0.3,0.1c-0.4,0.1-0.8,0.2-1.1,0.4
				c-0.3,0.2-0.7,0.3-1,0.4c-0.2,0.1-0.4,0.4-0.4,0.7c0,0.3,0,0.7,0,1c0,0.4,0,0.8,0,1.2c0,0.2,0,0.3,0,0.5
				c-0.1,0.2-0.1,0.3-0.2,0.5c-0.1,0.2-0.1,0.4-0.2,0.6c0,0.1-0.1,0.2-0.1,0.2c-0.2,0.3-0.3,0.6-0.4,0.9c0,0.2-0.1,0.3-0.2,0.4
				c-0.1,0.2-0.2,0.3-0.3,0.5c0,0.2-0.2,0.3-0.2,0.5c-0.1,0.2-0.2,0.4-0.3,0.6c-0.2,0.3-0.3,0.6-0.5,0.9c0,0.1-0.1,0.1-0.1,0.2
				c-0.3,0.6-0.7,1.2-1.1,1.8c-0.3,0.4-0.6,0.8-0.9,1.2c-0.2,0.2-0.5,0.5-0.7,0.8c-0.3,0.5-0.7,0.8-1.1,1.2
				c-0.4,0.4-0.8,0.8-1.3,1.1c-0.2,0.1-0.4,0.3-0.6,0.5c-0.4,0.3-0.9,0.4-1.3,0.4c-0.4,0.1-0.8,0.2-1.2,0.2c-0.5,0.1-0.9,0-1.4-0.2
				c-0.3-0.1-0.6-0.2-0.9-0.5c-0.1-0.1-0.3-0.2-0.5-0.3c-0.4-0.1-0.8-0.3-1.1-0.6c0,0-0.1-0.1-0.1-0.1c-0.5-0.3-0.9-0.8-1.2-1.2
				c-0.2-0.3-0.7-1.3-0.7-1.6c-0.1-0.2-0.1-0.4-0.1-0.6c-0.1-0.9-0.1-1.7-0.1-2.6c0.1-0.7,0.3-1.4,0.5-2.1c0.1-0.5,0.3-0.9,0.5-1.3
				c0.1-0.2,0.2-0.4,0.2-0.6c0,0,0-0.1,0-0.1c0.2-0.2,0.3-0.6,0.5-0.8c0.2-0.2,0.3-0.5,0.5-0.7c0.2-0.3,0.4-0.6,0.6-0.9
				c0,0,0-0.1,0-0.2c-0.3-0.1-0.5,0-0.7,0.1c-0.2,0.2-0.5,0.2-0.8,0.3c-0.1,0-0.2,0-0.2,0.2c0,0-0.1,0-0.1,0.1
				c-0.3,0.1-0.6,0.2-0.8,0.3c-0.3,0.1-0.6,0.2-0.9,0.3c-0.2,0.1-0.3,0.3-0.3,0.5c0,0.3,0,0.6-0.2,0.9c0,0.1,0,0.2,0,0.3
				c-0.1,0.1-0.2,0.2-0.3,0.4c0,0.1,0.1,0.2,0,0.4c0,0,0,0,0,0.1c0.2,0.2,0,0.4-0.1,0.5c0,0,0,0.1,0,0.1c-0.1,0.6-0.3,1.2-0.5,1.8
				c-0.1,0.4-0.3,0.8-0.6,1.1c-0.1,0.1-0.1,0.2-0.2,0.3c-0.2,0.3-0.4,0.6-0.5,0.9c-0.1,0.3-0.4,0.6-0.5,1c-0.1,0.1-0.1,0.3-0.2,0.4
				c-0.3,0.6-0.7,1.1-1.1,1.6c-0.1,0.2-0.3,0.3-0.4,0.4c-0.1,0.2-0.2,0.4-0.3,0.6c0,0.1-0.1,0.1-0.1,0.2c-0.2,0.1-0.3,0.2-0.4,0.3
				c-0.3,0.3-0.6,0.7-0.9,1c-0.1,0.1-0.1,0.1-0.1,0.2c0,0.1-0.1,0.1-0.1,0.2c-0.5,0.4-1,0.8-1.6,1.1c-0.2,0.1-0.4,0.2-0.6,0.2
				c-0.5,0.1-0.9,0.2-1.4,0.3c-0.5,0-1,0-1.4-0.3c-0.2-0.1-0.4-0.2-0.6-0.4c-0.1,0-0.1-0.1-0.2-0.1c-0.5,0-1-0.3-1.4-0.5
				c-0.2-0.1-0.3-0.2-0.5-0.3c-0.2-0.1-0.4-0.2-0.6-0.4c-0.2-0.2-0.3-0.3-0.5-0.5c-0.1-0.1-0.1-0.2-0.2-0.3
				c-0.2-0.3-0.4-0.6-0.5-0.9c-0.1-0.3-0.2-0.6-0.2-0.9c0-0.2,0-0.5-0.1-0.8c0-0.1,0-0.2-0.1-0.3c-0.1-0.1-0.2,0-0.3,0.1
				c0,0.1-0.1,0.1-0.2,0.2c-0.3,0.4-0.5,0.8-0.8,1.2c0,0,0,0,0,0.1c-0.1,0.2-0.4,0.2-0.4,0.5c0,0.2-0.3,0.4-0.4,0.5
				c-0.1,0.1-0.1,0.2-0.2,0.2c-0.3,0.3-0.6,0.6-0.9,0.8c-0.3,0.2-0.6,0.5-0.8,0.8c-0.2,0.2-0.4,0.3-0.5,0.5
				c-0.2,0.2-0.4,0.3-0.6,0.5c-0.4,0.3-0.9,0.5-1.3,0.7c-0.1,0.1-0.1,0.2-0.2,0.2c-0.3,0.1-0.6,0.2-1,0.3c-0.5,0.1-1,0.2-1.6,0.1
				c-0.5-0.1-0.9-0.2-1.4-0.3c-0.3-0.1-0.6-0.1-0.9-0.2c-0.4-0.1-0.8-0.2-1.2-0.4c-0.4-0.2-0.8-0.4-1.2-0.6
				c-0.3-0.2-0.6-0.4-0.9-0.7c-0.6-0.5-1.1-1.2-1.5-2c-0.1-0.2-0.1-0.3-0.2-0.5c-0.1-0.2-0.2-0.4-0.3-0.6c-0.1-0.3-0.3-0.7-0.4-1
				c-0.1-0.3-0.1-0.5-0.1-0.8c0-0.1-0.1-0.2-0.1-0.3c0,0,0-0.1,0-0.1c0-0.5-0.2-1-0.1-1.5c0-0.5,0-1,0-1.6c0-0.4,0-0.8,0-1.2
				c0-0.5,0.1-1,0.2-1.6c0.1-0.5,0.2-1,0.3-1.5c0.2-0.7,0.3-1.4,0.5-2.1c0.1-0.3,0.3-0.7,0.4-1c0.1-0.2,0.2-0.5,0.3-0.8
				c0.2-0.5,0.4-0.9,0.7-1.4c0.3-0.6,0.7-1.2,1.1-1.8c0.1-0.2,0.3-0.4,0.5-0.7c0.1-0.1,0-0.2,0.1-0.3c0.2-0.1,0.2-0.2,0.3-0.4
				c0.4-0.6,0.8-1.1,1.2-1.6c0.2-0.2,0.4-0.4,0.6-0.6c0.4-0.3,0.7-0.7,1-1.1c0.3-0.4,0.7-0.7,1.1-1c0.3-0.3,0.6-0.6,1-0.9
				c0.3-0.3,0.6-0.5,0.9-0.8c0.1-0.1,0.2-0.2,0.3-0.3c0.2-0.2,0.3-0.3,0.5-0.4c0.1-0.1,0.2-0.2,0.3-0.3c0.2-0.2,0.4-0.3,0.5-0.5
				c0.1-0.2,0.4-0.3,0.6-0.4c0.2-0.1,0.4-0.2,0.6-0.4c0.2-0.1,0.4-0.2,0.6-0.4c0.2-0.1,0.3-0.2,0.5-0.3c0.2-0.1,0.4-0.2,0.7-0.3
				c0.3-0.1,0.7-0.2,1-0.3c0.4-0.1,0.7-0.2,1.1-0.3c0.2,0,0.4,0,0.5,0c0.4,0,0.8,0.1,1.3,0.2c0.1,0,0.2,0.1,0.2,0.1
				c0.1,0,0.1,0.1,0.2,0.1c0.5,0.2,0.7,0.5,0.8,1c0.1,0.3,0.1,0.7,0.2,1c0,0.2,0,0.3,0.1,0.4c0.1,0.3,0.1,0.6,0.1,0.8
				c0,0.4-0.1,0.7-0.1,1.1c0,0.1,0,0.3-0.1,0.4c0,0.2-0.1,0.4-0.1,0.6c0,0,0,0.1,0,0.2c0,0.2,0,0.3-0.1,0.4c0,0,0,0.1,0,0.1
				C47.6,50,47.6,50.2,47.5,50.3C47.5,50.3,47.5,50.3,47.5,50.3z M89.3,62C89.3,62,89.3,62,89.3,62c0.2,0.1,0.4,0.1,0.5,0.1
				c0.2-0.1,0.5-0.3,0.7-0.2c0,0,0.1,0,0.1-0.1c0.6-0.2,1.1-0.5,1.7-0.7c0.3-0.1,0.6-0.3,0.9-0.5c0.2-0.1,0.3-0.2,0.4-0.4
				c0.2-0.2,0.4-0.3,0.6-0.4c0.1-0.1,0.2-0.2,0.3-0.4c0.1-0.2,0.2-0.3,0.3-0.5c0-0.1,0.1-0.1,0.1-0.2c0.1-0.2,0.2-0.3,0.4-0.3
				c0.1-0.2,0.1-0.4,0.2-0.6c0.1-0.2,0.1-0.5,0-0.7c-0.2-0.1-0.4-0.1-0.7,0c-0.2,0.1-0.3,0.2-0.5,0.2c-0.3,0-0.5,0.2-0.7,0.3
				c-0.4,0.3-0.9,0.4-1.2,0.8c-0.4,0.4-0.8,0.7-1.2,1.1c-0.1,0.1-0.3,0.3-0.4,0.5c0,0.1-0.1,0.1-0.1,0.2c-0.4,0.5-0.8,1-1.2,1.5
				C89.6,61.7,89.4,61.8,89.3,62z M57.4,57c-0.3-0.1-0.6-0.2-0.9-0.3c-0.2,0-0.5-0.1-0.7,0c-0.4,0.2-0.8,0.6-1.1,0.9
				c-0.3,0.3-0.5,0.7-0.7,1c-0.1,0.2-0.3,0.4-0.1,0.6c0,0,0,0,0,0c-0.1,0.3,0,0.5,0.2,0.7c0.1,0,0.2,0.1,0.3,0.1
				c0.6,0.1,1.3,0,1.9-0.1c0.4-0.1,0.9-0.2,1.3-0.4c0.3-0.1,0.6-0.2,0.9-0.3c-0.1-0.3-0.1-0.5-0.3-0.7c-0.1-0.1-0.2-0.3-0.3-0.4
				c-0.1-0.2-0.3-0.4-0.5-0.5c-0.2-0.1-0.2-0.2-0.2-0.4C57.4,57.2,57.4,57.1,57.4,57z M74.2,54.3c-0.2,0.1-0.4,0.2-0.6,0.2
				c-0.3,0.1-0.5,0.2-0.6,0.5c0,0,0,0-0.1,0.1c-0.3,0.3-0.3,0.7-0.3,1c0.1,0.1,0,0.2,0,0.3c0.2,0.3,0.5,0.5,0.7,0.8
				c0.1,0.1,0.2,0.2,0.3,0.2c0.2,0,0.3,0.1,0.5,0.1c0.4,0,0.8,0,1.2,0c0.1,0,0.2,0,0.3,0c0.3-0.1,0.5-0.2,0.8-0.2c0-0.1,0-0.2,0-0.2
				c-0.1-0.4-0.3-0.8-0.5-1.2c-0.1-0.2-0.2-0.4-0.3-0.6c-0.1-0.1-0.1-0.2-0.2-0.3c-0.2-0.1-0.5-0.3-0.7-0.4
				C74.5,54.5,74.3,54.3,74.2,54.3z"/>
		</g>
	</g>
</g>
</svg>
