<?xml version="1.0" encoding="utf-8"?>
<!-- Generator: Adobe Illustrator 24.0.1, SVG Export Plug-In . SVG Version: 6.00 Build 0)  -->
<svg version="1.1" id="Layer_1" xmlns="http://www.w3.org/2000/svg" xmlns:xlink="http://www.w3.org/1999/xlink" x="0px" y="0px"
	 viewBox="0 0 135.3 50" style="enable-background:new 0 0 135.3 50;" xml:space="preserve">
<style type="text/css">
	.st0{fill:#EE1E3D;}
	.st1{fill:#FFFFFF;}
</style>
<g>
	<g>
		<g>
			<path class="st0" d="M135.2,17.7c0,0,0-0.1,0-0.1c0,0,0,0,0-0.1c0,0,0,0,0,0c0-0.1,0-0.1-0.1-0.1c-0.8-1.4-2.7-0.8-4-0.6
				c-1.1,0.2-2.2,0.4-3.2,0.6c-0.9,0.2-1.8,0.2-2.7,0.4c0-1.1,0.1-2.2,0.1-3.4c0,0,0-0.1,0-0.1c0-0.2,0.1-0.5,0.3-0.5
				c0.1,0,0.3-0.1,0.4-0.1c0.2-0.1,0.3-0.3,0.3-0.4c0,0,0,0,0-0.1c0,0,0,0,0,0c0,0,0,0,0,0H10c0,0,0,0,0,0c0,0.1,0,0.2,0,0.3
				c0,0,0,0,0,0.1c0,1.1,0,2.2,0,3.4c-0.9-0.2-1.8-0.3-2.7-0.5c-1.1-0.2-2.1-0.5-3.2-0.7c-1.3-0.3-3.2-0.9-4,0.5
				c0,0-0.1,0.1-0.1,0.1c0,0,0,0,0,0c0,0,0,0,0,0.1c0,0.1,0,0.1,0,0.1C0,16.8,0,17.1,0,17.4c0.1,0.4,0.3,0.7,0.6,1
				c0.7,0.6,2,0.7,2.8,0.9c1.2,0.3,2.3,0.6,3.5,0.9c0.6,0.2,1.2,0.3,1.8,0.4c0.1,0,1.1,0.3,1.4,0.5c0,0,0,0,0,0c0,0,0,0,0,0l0,0
				c0,0,0,0,0,0c0,2.3-0.1,4.6,0.1,7c0.2,2.3,0.6,4.6,1,6.8c0.4,2.3,0.8,4.5,1.7,6.7c0.4,1,0.8,2,1.3,2.9c0.1,0.2,0.2,0.4,0.3,0.6
				c0,0,0,0,0,0c0,0,0,0.1,0,0.1c0.4,0.7,0.9,1.4,1.3,2.1c0,0,0,0,0,0c0.2,0.5,1.2,0.7,2.3,1c0.2,0.1,0.4,0.1,0.5,0.1
				c0.7,0.2,1.4,0.3,2.1,0.5c0.3,0.1,0.6,0.1,0.9,0.2c1.5,0.3,3.1,0.4,4.6,0.5c0.5,0,1,0.1,1.6,0.1c2.5,0.2,4.6,0.3,6.7,0.3
				c2.4,0,66.2,0,69.8,0l0.1,0c2.3,0,8.3-0.1,13.6-1.8c0,0,0.1,0,0.1-0.1c0,0,0,0,0,0c0.6-0.9,1.3-1.8,1.8-2.8
				c0.5-0.9,0.9-1.9,1.4-2.9c0.9-2.2,1.4-4.4,1.9-6.7c0.5-2.2,0.9-4.5,1.2-6.8c0.3-2.3,0.2-4.6,0.3-7c0,0,0,0,0,0l0,0c0,0,0,0,0,0
				l0,0c0.4-0.1,1.3-0.4,1.5-0.4c0.6-0.1,1.2-0.2,1.8-0.4c1.2-0.3,2.3-0.5,3.5-0.8c0.9-0.2,2.1-0.1,2.8-0.8c0.3-0.2,0.5-0.6,0.6-0.9
				C135.3,18.3,135.3,18,135.2,17.7z"/>
			<path class="st0" d="M128.3,13.1c0,0,0-0.1,0-0.1l0,0c0,0,0,0,0,0c0,0,0-0.1,0-0.1c-0.1-0.1-0.2-0.3-0.3-0.4
				c-0.4-0.3-0.9-0.4-1.3-0.4c-0.9-0.1-1.8,0-2.7-0.1c0,0,0-0.1-0.1-0.1c-3.8-1.3-40.3-2.1-44.3-2.7C79,9.2,78.4,9.1,77.9,9
				c0,0,0-0.1-0.1-0.1c-0.7-0.2-1.3-0.4-1.9-0.8c-0.6-0.5-0.7-1.3-0.9-2c-0.3-1.2-0.9-2.3-1.5-3.3c-0.6-0.9-1.4-1.6-2.4-2.1
				C69.9,0,68.7,0,67.4,0c0,0,0,0,0,0c0,0,0,0,0,0c0,0,0,0,0,0c0,0,0,0,0,0c-1.3,0-2.6-0.1-3.8,0.5c-1,0.5-1.8,1.2-2.4,2.1
				c-0.7,1-1.2,2.1-1.6,3.3c-0.2,0.7-0.4,1.5-1,1.9c-0.6,0.4-1.2,0.7-1.9,0.8c-0.1,0-0.1,0.1-0.1,0.2c-0.5,0.1-1,0.2-1.5,0.2
				c-3.9,0.6-40,1.5-43.9,2.1c-0.3,0-0.6,0-0.9,0c-0.8,0-1.4,0.1-2.1,0.4c0,0-0.1,0-0.1,0c-0.1,0-0.2,0.1-0.3,0.1c0,0,0,0,0,0
				c-0.1,0-0.1,0.1-0.2,0.1c0,0,0,0.1-0.1,0.1c0,0-0.1,0-0.1,0.1c0,0,0,0,0,0c0,0,0,0,0,0v0c0,0.3,0,0.5,0.3,0.7
				C7.8,12.9,8,13,8.1,13c0.1,0,0.2,0.1,0.2,0.2c0,0,0,0,0,0L128.3,13.1C128.3,13.2,128.3,13.1,128.3,13.1z M67.2,8
				C64.8,7.9,62.4,8,60,8.3c0.4-0.2,0.8-0.5,1.1-0.8C61.7,6.7,62,5.8,62.4,5c0.4-0.9,1-1.9,2-2.3c0.9-0.4,1.9-0.5,2.9-0.5
				c1,0.1,2,0.2,2.9,0.6c1,0.5,1.5,1.4,1.9,2.4c0.4,0.8,0.6,1.8,1.2,2.5C73.6,8,74,8.3,74.4,8.6C72,8.3,69.6,8.1,67.2,8z"/>
		</g>
		<path class="st0" d="M126.6,12.3c-0.8,0-1.6,0-2.4,0c-0.9,0-1.8,0.4-1.8,0.9c0,0.5,0.8,0.9,1.8,0.9c0.8,0,1.6,0,2.4,0
			c0.9,0,1.8-0.4,1.8-0.9C128.3,12.7,127.6,12.3,126.6,12.3z"/>
	</g>
	<g>
		<g>
			<path class="st1" d="M58.3,22.6c-0.1,0.2-0.2,0.4-0.3,0.7c0,0.1,0,0.2-0.1,0.3c0,0.2-0.1,0.4-0.1,0.6c0,0.2-0.1,0.3-0.1,0.5
				c0,0,0,0.1-0.1,0.1c0,0,0,0.1,0,0.2c0,0.1,0,0.3-0.1,0.4c0,0.2-0.1,0.4-0.1,0.7c0,0.1,0,0.3,0,0.4c0,0.2-0.1,0.4-0.1,0.6
				c0,0.1,0,0.2,0,0.3c0,0.2,0,0.3-0.1,0.5c0,0.1-0.1,0.3-0.1,0.4c0,0.3-0.1,0.6-0.1,0.9c0,0.3,0,0.6-0.1,0.9c0,0,0,0,0,0.1
				c0,0.3,0,0.6-0.1,0.9c0,0.1,0,0.3,0,0.4c0,0.2,0,0.4,0.1,0.6c0,0.3,0,0.5,0,0.8c0,0.2,0,0.3,0,0.5c0,0.2,0,0.4,0.1,0.6
				c0,0.1,0.1,0.2,0.1,0.3c0,0.1,0,0.2,0,0.3c0.1,0.1,0.1,0.2,0.2,0.4c0.1,0.1,0.1,0.3,0.1,0.4c0,0,0,0,0,0c0,0.2,0.1,0.3,0.1,0.5
				c0,0.1,0,0.1,0,0.2c0,0,0,0.1,0,0.1c0.2,0.2,0.2,0.4,0.2,0.6c0,0.1,0,0.1,0.1,0.2c0.2,0.2,0.3,0.5,0.4,0.7
				c0.1,0.2,0.3,0.3,0.4,0.4c0.1,0.1,0.3,0.3,0.4,0.4c0,0,0.1,0,0.1,0c0.1,0.1,0.2,0.1,0.2,0.2c0.1,0.1,0.3,0.2,0.5,0.3
				c0.2,0.1,0.4,0.2,0.6,0.4c0.2,0.1,0.4,0.2,0.7,0.3c0.1,0,0.1,0,0.2,0.1c0.2,0,0.3,0.1,0.5,0.1c0,0,0,0,0.1,0c0.5,0,1,0,1.6-0.1
				c0.2,0,0.3-0.1,0.5-0.1c0.3-0.1,0.5-0.1,0.8-0.2c0.1,0,0.2-0.1,0.2-0.1c0,0,0,0,0.1,0c0.4-0.1,0.8-0.4,1.2-0.5
				c0.3-0.1,0.5-0.3,0.8-0.5c0,0,0.1,0,0.1-0.1c0.1,0,0.1-0.1,0.2-0.1c0.2-0.3,0.4-0.4,0.7-0.6c0.1-0.1,0.3-0.3,0.4-0.4
				c0.3-0.2,0.4-0.4,0.7-0.7c0.1-0.1,0.2-0.2,0.3-0.3c0.2-0.3,0.4-0.5,0.7-0.8c0,0,0.1-0.1,0.1-0.2c0.1-0.1,0.2-0.2,0.4-0.3
				c0-0.1,0-0.2,0.1-0.3c0.1-0.1,0.1-0.2,0.1-0.2c0.2-0.2,0.3-0.5,0.6-0.7c0,0,0.1-0.1,0.1-0.1c0-0.2,0.2-0.3,0.3-0.4
				c0-0.1,0.1-0.1,0.2-0.1c0,0,0.1,0,0.1,0c0-0.1,0-0.2,0.1-0.3c0,0,0-0.1,0-0.1c0.1-0.1,0.2-0.3,0.4-0.4c0,0,0-0.1,0-0.1
				c0-0.1,0.1-0.2,0.1-0.2c0.1-0.1,0.2-0.2,0.2-0.4c0.1-0.1,0.2-0.2,0.3-0.3c0.2-0.1,0.3-0.3,0.4-0.5c0.1-0.1,0.1-0.2,0.1-0.3
				c0,0,0-0.1,0-0.1c0-0.1,0-0.2,0.1-0.3c0,0,0-0.1,0-0.1c0.1-0.3,0.1-0.6,0.2-0.9c0-0.2,0.1-0.4,0.1-0.6c0.1-0.4,0.2-0.8,0.4-1.1
				c0.1-0.2,0.2-0.5,0.3-0.7c0.1-0.1,0.1-0.3,0.2-0.5c0.1-0.2,0.2-0.4,0.3-0.7c0.1-0.2,0.2-0.3,0.3-0.5c0.1-0.2,0.2-0.3,0.3-0.4
				c0-0.1,0-0.2,0.1-0.3c0.3,0,0.5,0,0.8,0.1c0.1-0.1,0.1-0.1,0.2,0c0,0,0.1,0,0.1,0c0.2,0,0.3,0.1,0.4,0.2c0.1,0.1,0.1,0.1,0.2,0.1
				c0.1,0,0.2,0.1,0.3,0.2c0.2,0.2,0.2,0.5,0.3,0.7c0.1,0.2,0.1,0.4,0.1,0.6c0,0.1,0,0.1,0,0.2c-0.1,0.2,0,0.3,0,0.5
				c0,0.1,0,0.2,0,0.2c0,0.1-0.1,0.2-0.1,0.2c0,0.3-0.1,0.6-0.1,0.8c0,0.2,0,0.4,0,0.7c0,0.3-0.1,0.5-0.2,0.7c0,0.1-0.1,0.1-0.1,0.2
				c0,0.2,0,0.3-0.1,0.5c0,0.1-0.1,0.2-0.1,0.3c0,0.1,0,0.2-0.1,0.3c0,0.1,0,0.2,0,0.3c0,0.1,0,0.3,0,0.4c0,0.1,0,0.1,0,0.2
				c0,0.1,0,0.3-0.1,0.4c0,0.3-0.2,0.6-0.2,0.9c0,0,0,0.1,0,0.1c0,0.1-0.1,0.1-0.1,0.2c0,0.1,0,0.1,0,0.2c0,0,0,0,0,0.1
				c0.1,0.2-0.1,0.5-0.1,0.7c0,0.2,0,0.3,0,0.5c0,0.2,0,0.5-0.1,0.7c0,0,0,0.1,0,0.2c0,0.1,0,0.3,0.1,0.4c0,0,0,0.1,0,0.1
				c0,0.1,0,0.2,0,0.3c0.1,0.2,0.1,0.3,0.1,0.5c0.1,0.2,0.1,0.4,0.2,0.6c0,0,0,0.1,0.1,0.1c0,0,0.1,0.1,0.1,0.1
				c0.3,0.3,0.7,0.4,1.2,0.4c0,0,0,0,0,0c0.2,0.1,0.4-0.1,0.6-0.2c0.1-0.1,0.2-0.1,0.4-0.1c0.1,0,0.1,0,0.2-0.1
				c0.2-0.2,0.5-0.4,0.7-0.6c0.1-0.1,0.3-0.2,0.4-0.4c0.3-0.2,0.5-0.5,0.8-0.7c0.2-0.2,0.4-0.3,0.5-0.5c0.1-0.2,0.2-0.3,0.3-0.4
				c0.1-0.2,0.2-0.4,0.4-0.5c0,0,0.1-0.1,0.1-0.1c0,0,0-0.1,0-0.1c0.1-0.1,0.2-0.2,0.3-0.3c0.1-0.2,0.3-0.3,0.4-0.5
				c0.1-0.2,0.3-0.3,0.4-0.4c0.1-0.1,0.2-0.3,0.3-0.4c0-0.1,0-0.2,0-0.3c0-0.5,0-0.9,0-1.4c0-0.2,0-0.5,0-0.7c0-0.6,0-1.3,0-1.9
				c0-0.3,0-0.7,0.1-1c0.1-0.3,0.1-0.7,0.1-1c0.1-0.5,0.1-0.9,0.2-1.3c0-0.3,0.1-0.6,0.1-0.9c0.1-0.5,0.2-0.9,0.3-1.4
				c0.1-0.4,0.1-0.7,0.2-1.1c0.1-0.3,0.2-0.7,0.3-1c0.1-0.3,0.2-0.6,0.4-1c0.1-0.3,0.2-0.5,0.3-0.8c0.1-0.2,0.2-0.4,0.2-0.6
				c0.1-0.3,0.2-0.5,0.3-0.8c0-0.1,0.1-0.1,0.1-0.2c0-0.1,0.1-0.2,0.1-0.3c0.2-0.4,0.3-0.7,0.5-1.1c0.3-0.6,0.5-1.2,0.7-1.9
				c0.1-0.3,0.3-0.6,0.4-0.9c0.1-0.3,0.3-0.5,0.5-0.8c0.2-0.2,0.4-0.4,0.5-0.7c0.1-0.2,0.3-0.3,0.4-0.5c0-0.1,0.1-0.1,0.2-0.2
				c0.2-0.2,0.4-0.4,0.6-0.6c0.2-0.2,0.4-0.3,0.5-0.4c0.1-0.1,0.2-0.1,0.2-0.2c0.2-0.2,0.5-0.4,0.7-0.6c0,0,0,0,0.1,0
				C92.6,9.1,92.9,9,93.2,9c0.3,0,0.6-0.1,1-0.1c0.4,0,0.7,0,1.1,0C95.4,9,95.6,9,95.8,9.1c0.2,0.2,0.5,0.3,0.6,0.5c0,0,0,0,0,0.1
				c0.1,0.1,0.1,0.2,0.1,0.4c0,0.2,0,0.5,0,0.7c0,0.1,0,0.2,0,0.3c0,0.1,0,0.2,0.1,0.3c0.1,0.1,0.1,0.3,0.1,0.5
				c-0.1,0.4-0.2,0.8-0.4,1.2c-0.1,0.2-0.1,0.3-0.1,0.5c0,0.2-0.1,0.5-0.2,0.7c0,0.1,0,0.1,0,0.2c0,0.2,0,0.3-0.1,0.5
				c0,0.1,0,0.2,0,0.3c0,0.2,0,0.4-0.1,0.6c-0.1,0.2-0.1,0.3-0.1,0.5c-0.1,0.3-0.2,0.7-0.4,1c-0.1,0.2-0.1,0.4-0.2,0.6
				c0,0.1,0,0.3-0.1,0.4C95,18.4,95,18.6,95,18.7c0,0.1-0.1,0.2-0.2,0.3c-0.1,0.2-0.2,0.4-0.3,0.6c0,0.1-0.1,0.2-0.1,0.3
				c-0.1,0.2-0.3,0.4-0.4,0.7c-0.1,0.1-0.1,0.3-0.1,0.4c-0.1,0.3-0.2,0.7-0.4,1c0,0.1-0.1,0.1-0.1,0.2c-0.1,0.2-0.3,0.3-0.4,0.6
				c-0.2,0.2-0.3,0.5-0.6,0.7c0,0.1-0.1,0.2-0.1,0.3c-0.1,0.2-0.2,0.3-0.3,0.5c0,0,0,0-0.1,0.1c0,0.1-0.1,0.3-0.1,0.4
				c-0.1,0-0.1,0-0.2,0.1c-0.1,0.3-0.3,0.6-0.5,0.9c-0.1,0.2-0.3,0.3-0.3,0.5c-0.2,0.1-0.2,0.3-0.3,0.4c-0.1,0.1-0.2,0.2-0.3,0.3
				c-0.2,0.3-0.4,0.5-0.6,0.8c-0.1,0.1-0.1,0.2-0.2,0.3c-0.1,0.1-0.2,0.1-0.2,0.3c0,0,0,0.1,0,0.1c-0.1,0.1-0.2,0.3-0.3,0.4
				c-0.1,0.2-0.2,0.3-0.3,0.4c0,0,0,0,0,0.1c0,0.2-0.2,0.3-0.2,0.4c0,0-0.1,0.1-0.1,0.1c0,0.2,0,0.3,0,0.4c0,0.3,0,0.6,0.1,0.8
				c0,0.2,0,0.3,0,0.5c0,0.2,0,0.3,0,0.5c0,0.1,0,0.2,0,0.3c0.1,0.1,0,0.2,0.1,0.4c0,0.2,0,0.5,0,0.7c0,0.1,0,0.2,0,0.2
				c0,0.2,0,0.3,0,0.5c0,0.1,0,0.3,0,0.4c0,0.2,0.1,0.4,0.1,0.7c0,0.1,0,0.3,0.1,0.4c0,0.2,0.1,0.4,0.1,0.7c0,0.2,0,0.5,0,0.7
				c0,0.2,0,0.4,0,0.6c0,0,0,0,0,0.1c0,0.2,0.1,0.4,0.1,0.6c0,0.3,0.2,0.5,0.2,0.8c0,0,0,0.1,0.1,0.1c0-0.1,0-0.2,0-0.3
				c0.1-0.4,0.1-0.8,0.2-1.1c0-0.2,0-0.4,0.1-0.5c0-0.3,0.1-0.7,0.2-1c0.1-0.3,0.1-0.7,0.2-1c0.1-0.3,0.1-0.6,0.2-0.9
				c0.1-0.4,0.2-0.7,0.3-1.1c0-0.1,0.1-0.3,0.1-0.4c0.1-0.3,0.2-0.6,0.4-0.8c0.1-0.1,0.1-0.3,0.2-0.4c0.1-0.3,0.3-0.6,0.4-0.9
				c0-0.1,0.1-0.1,0.1-0.2c0.1-0.2,0.1-0.3,0.2-0.5c0.1-0.1,0.2-0.3,0.2-0.5c0.3-0.5,0.4-1,0.8-1.4c0,0,0,0,0,0
				c0-0.2,0.1-0.2,0.2-0.3c0.1-0.1,0.1-0.2,0.2-0.3c0.1-0.2,0.3-0.3,0.4-0.5c0.2-0.2,0.3-0.3,0.5-0.5c0.1-0.1,0.3-0.2,0.4-0.3
				c0,0,0.1,0,0.1,0c0.2-0.2,0.4-0.3,0.7-0.5c0.1-0.1,0.3-0.2,0.4-0.3c0.1,0,0.2-0.1,0.2-0.1c0.3-0.1,0.6-0.2,1-0.2
				c0.2,0,0.4,0,0.6,0.1c0.3,0.2,0.6,0.4,0.9,0.6c0.1,0.1,0.2,0.3,0.3,0.4c0,0,0,0.1,0,0.1c0.1,0.1,0.2,0.3,0.2,0.4
				c0,0.1,0.1,0.2,0.1,0.3c0.1,0.5,0.1,0.9,0.1,1.4c0,0.1,0,0.3,0,0.4c-0.1,0.3-0.2,0.5-0.2,0.8c-0.1,0.2-0.2,0.4-0.2,0.6
				c0,0.1,0,0.1-0.1,0.2c-0.1,0.2-0.1,0.3-0.2,0.5c0,0,0,0.1-0.1,0.1c0,0.1-0.1,0.1-0.1,0.2c0,0.1-0.1,0.2-0.2,0.2
				c0,0-0.1,0.1-0.1,0.2c0,0.2-0.2,0.4-0.3,0.6c0,0-0.1,0.1-0.1,0.1c-0.1,0.2-0.3,0.4-0.4,0.6c-0.1,0.1-0.1,0.2-0.2,0.3
				c-0.1,0.1-0.1,0.2-0.2,0.2c-0.1,0.1-0.2,0.2-0.3,0.3c-0.1,0.2-0.3,0.4-0.5,0.5c-0.1,0.1-0.2,0.2-0.3,0.3
				c-0.2,0.2-0.4,0.4-0.7,0.6c-0.1,0.1-0.3,0.2-0.4,0.3c0,0,0,0-0.1,0.1c0.1,0,0.1,0,0.2,0c0.1,0.1,0.2,0.2,0.4,0.2
				c0.2,0,0.4,0.1,0.6,0.2c0,0,0.1,0,0.2,0c0.2,0,0.2,0.2,0.4,0.2c0.1,0,0.1,0.1,0.2,0.1c0.1,0.1,0.3,0.2,0.4,0.2c0,0,0,0,0,0
				c0.3,0.1,0.4,0.3,0.6,0.5c0,0,0.1,0.1,0.1,0.1c0.3,0.2,0.6,0.5,0.9,0.7c0.1,0.1,0.3,0.2,0.4,0.4c0.1,0.1,0.2,0.1,0.2,0.2
				c0.1,0.2,0.3,0.3,0.5,0.4c0.2,0.1,0.5,0.3,0.7,0.5c0.2,0.1,0.4,0.2,0.6,0.3c0.3,0.1,0.7,0.2,1,0.3c0.2,0,0.4,0,0.7,0
				c0.2,0,0.4,0,0.6,0c0.2,0,0.4,0,0.6-0.1c-0.1-0.1-0.1-0.2-0.2-0.2c-0.3-0.3-0.6-0.7-0.8-1.2c-0.2-0.4-0.3-0.8-0.4-1.2
				c-0.1-0.4-0.2-0.7-0.2-1.1c-0.1-0.4,0-0.8,0-1.2c0-0.3,0.1-0.6,0.1-0.9c0-0.1,0-0.2,0-0.2c0-0.1,0-0.3,0.1-0.4c0-0.1,0-0.1,0-0.2
				c0-0.1,0.1-0.3,0.1-0.4c0.1-0.3,0.2-0.5,0.3-0.8c0.1-0.2,0.1-0.4,0.2-0.6c0.2-0.4,0.4-0.9,0.7-1.2c0.1-0.1,0.2-0.2,0.3-0.4
				c0.1-0.2,0.3-0.4,0.3-0.7c0-0.1,0.1-0.1,0.1-0.2c0.1,0,0.2,0.1,0.3,0.1c0,0,0.1-0.1,0.1-0.1c0.1,0,0.1,0,0.2,0.1
				c0-0.1,0-0.1,0-0.1c0,0,0,0,0.1,0c0.1,0.1,0.2,0.2,0.2,0.3c0,0,0.1,0.1,0.1,0.1c0.2,0.1,0.4,0.2,0.6,0.4c0.1,0.1,0.2,0.1,0.3,0.2
				c0.2,0.2,0.4,0.4,0.4,0.7c0,0.1,0.1,0.2,0,0.3c0,0,0,0.1,0,0.1c0,0.1,0,0.3,0,0.4c0.1,0.2-0.1,0.4,0,0.6c0,0.1-0.1,0.3-0.1,0.5
				c0,0.2-0.1,0.3-0.1,0.5c0,0.1,0,0.2,0,0.4c0,0.2,0,0.3,0,0.5c-0.1,0.2-0.2,0.4-0.2,0.6c-0.1,0.2-0.1,0.5-0.1,0.7
				c0,0.2,0,0.4-0.1,0.6c0,0.1,0,0.1,0,0.2c0,0.2,0,0.4,0,0.5c0,0.2,0,0.3,0.1,0.5c0.1,0.2,0,0.4,0.1,0.6c0,0.2,0.1,0.4,0.2,0.6
				c0.1,0.1,0.1,0.3,0.2,0.4c0.2,0.4,0.4,0.7,0.8,0.9c0.3,0.1,0.6,0.2,0.9,0.1c0.2,0,0.5-0.2,0.6-0.4c0.1-0.1,0.3-0.2,0.4-0.4
				c0.1-0.1,0.1-0.1,0.2-0.2c0,0,0,0,0-0.1c0.2-0.1,0.3-0.3,0.5-0.5c0.1-0.1,0.2-0.3,0.3-0.4c0,0,0,0,0,0c0.1-0.1,0.2-0.2,0.2-0.3
				c0.1-0.2,0.3-0.4,0.3-0.6c0-0.1,0.1-0.2,0.1-0.2c0.2-0.4,0.2-0.8,0.3-1.2c0-0.3,0-0.5,0.1-0.8c0.1-0.3,0.1-0.6,0.2-0.9
				c0.1-0.2,0.1-0.4,0.2-0.7c0.1-0.4,0.2-0.7,0.3-1.1c0-0.1,0-0.2,0.1-0.3c0-0.1,0-0.3,0.1-0.4c0-0.2,0.1-0.4,0.1-0.6
				c0.2-0.2,0.1-0.4,0.1-0.6c0,0,0,0,0-0.1c0,0-0.1,0-0.1,0c0,0,0,0-0.1,0c-0.2,0.1-0.4,0.1-0.6,0.2c0,0-0.1,0-0.1,0
				c-0.1,0.1-0.3,0.1-0.4,0.1c-0.1,0-0.1,0-0.2,0c-0.1,0-0.2,0-0.3,0c-0.1,0-0.2,0-0.3,0c-0.4,0-0.8-0.1-1.2-0.1c0,0,0,0,0,0
				c-0.2-0.1-0.5-0.1-0.7-0.2c-0.2-0.1-0.4-0.1-0.6-0.3c-0.1-0.1-0.2-0.1-0.3-0.2c-0.3-0.2-0.5-0.4-0.6-0.8c0,0,0-0.1,0-0.1
				c-0.2-0.3-0.4-0.6-0.5-1c-0.1-0.3-0.1-0.6-0.2-0.8c-0.1-0.2,0-0.5-0.1-0.7c0-0.1,0-0.2,0.1-0.3c0.1-0.3,0.2-0.6,0.4-1
				c0.1-0.1,0.2-0.3,0.2-0.4c0.2-0.3,0.4-0.5,0.6-0.8c0.1-0.1,0.1-0.1,0.2-0.2c0.2-0.2,0.5-0.5,0.7-0.6c0.2-0.1,0.3-0.2,0.6-0.2
				c0.1,0,0.2,0,0.2,0c0.1,0,0.3,0,0.4-0.1c0.1,0,0.2,0,0.3-0.1c0.2,0,0.2,0,0.3,0.1c0.1,0.2,0.2,0.2,0.4,0.2c0.1,0,0.1,0,0.2,0
				c0.1,0,0.2,0,0.3,0c0.3,0,0.5,0.1,0.7,0.3c0,0,0.1,0,0.1,0.1c0,0.1,0.1,0.2,0.2,0.3c0,0,0,0,0.1,0.1c0.1,0.1,0.2,0.2,0.4,0.3
				c0.1,0,0.1,0.1,0.2,0.2c0,0.1,0,0.1,0.1,0.1c0,0,0,0,0.1,0.1c0.1,0.1,0.1,0.3,0.2,0.5c0,0,0,0.1,0.1,0.1c0.1,0.1,0.2,0.2,0.4,0.3
				c0.2,0.1,0.3,0.3,0.5,0.5c0.1,0.1,0.1,0.2,0.1,0.3c0,0,0,0.1,0,0.1c0.1,0.1,0.1,0.3,0.1,0.5c0,0,0,0.1,0,0.1c0.1,0,0.1,0,0.2,0
				c0,0,0,0,0,0c0.1-0.2,0.3-0.3,0.4-0.4c0.1,0,0.1-0.1,0.2-0.1c0.2-0.2,0.5-0.4,0.8-0.5c0.1,0,0.1-0.1,0.2-0.2
				c0.1-0.1,0.3-0.2,0.4-0.3c0.1,0,0.1,0,0.2-0.1c0.2-0.1,0.4-0.2,0.6-0.3c0.1-0.1,0.2-0.1,0.4-0.2c0.4-0.2,0.8-0.4,1.2-0.6
				c0.2-0.1,0.4-0.1,0.5-0.2c0.2-0.1,0.3-0.2,0.5-0.2c0.2,0,0.4-0.2,0.7-0.2c0.4-0.1,0.8-0.2,1.2-0.3c0.2,0,0.4,0,0.6,0
				c0.1,0,0.2,0,0.4,0c0.3,0,0.7,0,1,0.1c0,0,0,0,0,0c0.4,0,0.8,0.2,1.2,0.3c0.2,0.1,0.4,0.2,0.6,0.3c0.1,0,0.2,0.1,0.2,0.2
				c0.2,0.2,0.4,0.3,0.5,0.6c0,0,0.1,0.1,0.1,0.1c0.1,0.1,0.2,0.3,0.2,0.4c0,0.1,0,0.3,0,0.4c0,0.1,0,0.2-0.1,0.2
				c0,0.1-0.1,0.1-0.1,0.2c0,0.1-0.1,0.2-0.2,0.2c0,0,0,0.1-0.1,0.1c0,0-0.1-0.1-0.1-0.1c-0.1,0-0.2,0-0.3,0.1c-0.4,0.1-0.8,0-1-0.4
				c0-0.1-0.1-0.2,0-0.3c0.1-0.1,0-0.2,0-0.3c-0.1-0.2-0.2-0.3-0.4-0.4c0,0,0,0-0.1,0c-0.3-0.3-0.5-0.3-0.8-0.4
				c-0.2,0-0.5-0.1-0.7-0.1c-0.1,0-0.2,0-0.3,0.1c0,0,0,0,0,0c-0.4,0-0.6,0.2-0.9,0.3c-0.2,0.1-0.4,0.2-0.6,0.2
				c-0.2,0.1-0.5,0.2-0.7,0.4c-0.1,0-0.2,0.1-0.3,0.1c-0.2,0.1-0.5,0.2-0.7,0.3c0,0,0,0,0,0c-0.2,0.1-0.5,0.2-0.7,0.4
				c-0.1,0-0.1,0.1-0.2,0.1c-0.1,0.1-0.2,0.1-0.3,0.2c-0.1,0.1-0.3,0.2-0.4,0.3c-0.2,0.1-0.4,0.2-0.5,0.4c-0.1,0.1-0.3,0.2-0.4,0.2
				c-0.1,0.1-0.2,0.1-0.2,0.2c-0.1,0.2-0.3,0.3-0.5,0.4c0,0,0,0,0,0c-0.1,0.1-0.3,0.3-0.4,0.4c0,0-0.1,0.1-0.1,0.1
				c-0.2,0.1-0.3,0.2-0.5,0.3c-0.1,0-0.1,0.1-0.1,0.2c0,0.2,0,0.4,0,0.6c0,0.1,0,0.1,0,0.2c0,0.1-0.1,0.3,0,0.5
				c-0.1,0.1-0.1,0.2-0.1,0.3c0,0.4,0,0.8-0.2,1.2c0,0,0,0,0,0.1c0,0.2,0,0.4-0.1,0.5c0,0,0,0.1,0,0.1c0,0.1,0,0.3-0.1,0.4
				c-0.1,0.1,0,0.3,0,0.5c0,0.2,0,0.4,0,0.5c0,0.3,0,0.7-0.1,1c0,0,0,0.1,0,0.1c0,0.1,0,0.2-0.1,0.3c0,0,0,0,0,0.1
				c0,0.2,0,0.3-0.1,0.4c0,0.1,0,0.3-0.1,0.4c-0.1,0.1-0.1,0.3-0.2,0.4c-0.1,0.2-0.1,0.5-0.3,0.6c0,0,0,0,0,0c0,0.2-0.1,0.3-0.1,0.5
				c0,0.1-0.1,0.2-0.1,0.3c-0.1,0.2-0.2,0.3-0.2,0.5c0,0,0,0.1,0,0.1c0,0.1,0,0.1-0.1,0.2c0,0.1-0.1,0.1-0.1,0.2
				c0,0.1-0.1,0.2-0.2,0.3c-0.2,0.1-0.3,0.3-0.4,0.4c-0.1,0.1-0.2,0.2-0.3,0.3c0,0-0.1,0.1-0.1,0.1c0,0.1-0.1,0.2-0.1,0.2
				c-0.1,0.1-0.2,0.2-0.3,0.3c-0.1,0.1-0.2,0.2-0.4,0.3c-0.3,0.2-0.6,0.4-1,0.5c-0.2,0.1-0.4,0.1-0.7,0.1c-0.1,0-0.1,0-0.2,0
				c-0.1,0-0.2-0.1-0.2,0c-0.3,0-0.6,0.2-0.9,0.1c-0.1,0-0.1,0-0.2,0c-0.3,0.1-0.6,0.1-0.8,0c-0.3-0.1-0.6-0.2-0.8-0.4
				c-0.2-0.1-0.4-0.2-0.7-0.3c-0.1,0-0.2-0.1-0.3-0.1c-0.1-0.1-0.2-0.1-0.3-0.2c0,0-0.1,0.1-0.1,0.1c0,0.1-0.1,0.2-0.2,0.2
				c-0.2,0.1-0.3,0.2-0.3,0.3c0,0-0.1,0-0.1-0.1c-0.4,0.2-0.8,0.2-1.2,0.2c-0.2,0-0.3,0-0.4,0c-0.2,0-0.3,0-0.5,0
				c-0.2,0-0.3,0-0.5,0c-0.2,0-0.3,0-0.5,0c-0.1,0-0.3-0.1-0.5-0.1c-0.1,0-0.1,0-0.2,0c-0.1,0-0.3-0.1-0.4-0.1c0,0,0,0-0.1,0
				c-0.2-0.1-0.5-0.2-0.8-0.3c0,0,0,0-0.1,0c-0.3-0.2-0.6-0.3-0.9-0.5c-0.5-0.3-0.9-0.6-1.3-1c-0.1-0.1-0.2-0.2-0.4-0.3
				c-0.1,0-0.1-0.1-0.1-0.2c-0.2-0.2-0.4-0.4-0.6-0.6c-0.1-0.1-0.2-0.2-0.4-0.3c0,0-0.1,0-0.1-0.1c-0.1-0.2-0.3-0.3-0.6-0.5
				c-0.3-0.2-0.5-0.2-0.8-0.3c-0.3-0.1-0.7-0.1-1-0.1c-0.1,0-0.1,0-0.2,0c-0.2,0-0.5,0-0.7,0.1c-0.1,0-0.1,0.1-0.1,0.1
				c-0.1,0.1-0.3,0.2-0.2,0.5c0,0.1,0,0.2,0,0.2c0,0.2,0,0.3,0,0.5c0,0.2,0,0.4,0,0.7c0,0.1,0,0.2,0,0.3c0,0.2,0,0.4,0,0.7
				c0,0,0,0.1-0.1,0.1c0,0,0,0,0,0c0.1,0.1,0,0.2,0,0.3c0,0.3,0,0.6,0,0.9c0,0,0,0.1,0,0.1c0,0.2,0,0.4,0,0.7c0,0,0,0.1,0,0.1
				c0,0.1,0.1,0.3,0,0.4c0,0.4,0,0.7,0.1,1.1c0,0.2,0.1,0.3,0.1,0.5c0,0.2,0.1,0.3,0.1,0.5c0,0.1,0.1,0.1,0.1,0.2
				c0,0,0.1,0.1,0.1,0.1c0.1,0.1,0.1,0.2,0,0.3c-0.1,0.1-0.1,0.1-0.1,0.2c-0.1,0.1-0.1,0.2-0.2,0.2c-0.1,0-0.2,0.1-0.2,0.2
				c0,0-0.1,0.1-0.1,0.1c-0.1,0-0.3,0.1-0.3,0.2c-0.1,0-0.2-0.1-0.3,0c-0.2-0.1-0.4-0.2-0.6-0.3c-0.1,0.1,0,0.2-0.1,0.3
				c0,0,0-0.1-0.1-0.1c-0.1-0.1-0.3-0.2-0.4-0.2c-0.1,0-0.3,0-0.4-0.1c-0.2,0-0.3-0.1-0.4-0.1c-0.2-0.1-0.3-0.1-0.5-0.2
				c-0.2-0.1-0.3-0.2-0.5-0.3c-0.1-0.1-0.3-0.2-0.3-0.4c0,0,0,0-0.1,0c0,0,0,0,0-0.1c0,0,0-0.1,0-0.1C87,44.2,87,44,86.8,43.9
				c-0.1-0.1-0.1-0.1-0.1-0.2c-0.1-0.1-0.2-0.3-0.2-0.4c-0.1-0.2-0.1-0.3-0.2-0.5c-0.1-0.2-0.1-0.4-0.2-0.6C86,42,86,41.8,85.9,41.7
				c0-0.1-0.1-0.2-0.2-0.3c0,0,0-0.1,0-0.1c0-0.1,0-0.2-0.1-0.3c0,0,0,0,0,0c0-0.3-0.2-0.5-0.2-0.7c-0.1-0.6-0.3-1.1-0.4-1.7
				c0,0,0-0.1,0-0.1c0-0.1-0.1-0.2-0.1-0.2c0-0.1,0-0.3-0.1-0.4c0,0-0.1-0.1,0-0.1c0-0.1,0-0.2-0.1-0.3c0,0,0-0.1,0-0.1
				c0-0.1,0-0.2,0-0.3c-0.1-0.2-0.1-0.4-0.1-0.6c0-0.3-0.1-0.6-0.1-0.9c0-0.2,0-0.4,0-0.6c0,0,0-0.1,0-0.1c-0.1,0.1-0.2,0.2-0.3,0.3
				c0,0.1-0.1,0.1-0.2,0.2c0,0.1-0.1,0.2-0.2,0.2c0,0.2-0.2,0.2-0.3,0.3c-0.1,0.1-0.2,0.3-0.3,0.4c-0.1,0.1-0.2,0.1-0.2,0.2
				c0,0.1-0.1,0.2-0.2,0.3c-0.3,0.3-0.6,0.6-0.9,0.9c-0.1,0.1-0.2,0.2-0.3,0.4c0,0,0,0,0,0c-0.2,0.1-0.3,0.3-0.6,0.4
				c-0.1,0.1-0.3,0.2-0.3,0.3c-0.1,0.1-0.2,0.2-0.4,0.3c-0.2,0.1-0.3,0.1-0.5,0.2c0,0,0,0-0.1,0c-0.2,0-0.3,0-0.4,0.1
				c-0.1,0.1-0.3,0.1-0.4,0.1c-0.1,0-0.1,0-0.2,0c-0.1,0-0.2,0-0.2,0.1c-0.2,0-0.3,0-0.5,0c-0.1,0-0.3,0-0.4,0c-0.3,0-0.5,0.1-0.7,0
				c-0.1,0-0.2-0.1-0.3-0.2C76.4,39.1,76.2,39,76,39c-0.3-0.1-0.6-0.2-0.9-0.3c-0.3-0.2-0.7-0.5-0.9-0.8c-0.1-0.2-0.2-0.3-0.3-0.5
				c0-0.1-0.1-0.1-0.2-0.2c-0.2-0.3-0.3-0.6-0.4-1c0-0.2-0.1-0.3-0.1-0.5c0,0,0-0.1,0-0.1c0-0.1,0-0.2,0-0.3c0-0.2,0-0.4-0.1-0.6
				c0-0.1,0-0.3,0-0.4c0-0.1,0-0.2,0-0.3c-0.1,0-0.1,0.1-0.1,0.1c-0.2,0.3-0.4,0.6-0.6,0.8c-0.1,0.2-0.3,0.3-0.4,0.5
				c-0.1,0.1-0.2,0.2-0.2,0.3c0,0.1-0.1,0.1-0.1,0.2c0,0.1-0.1,0.1-0.1,0.2c-0.1,0.1-0.2,0.2-0.2,0.3c0,0,0,0,0,0.1
				c-0.3,0.4-0.7,0.8-1.1,1.2c0,0,0,0.1-0.1,0.1c-0.1,0.1-0.1,0.1-0.2,0.2c-0.3,0.2-0.5,0.5-0.8,0.7c0,0-0.1,0-0.1,0.1
				c-0.2,0.1-0.4,0.3-0.6,0.5c-0.1,0.1-0.2,0.2-0.4,0.2c-0.3,0.2-0.5,0.4-0.8,0.5c-0.2,0.1-0.5,0.3-0.7,0.4
				c-0.3,0.1-0.5,0.3-0.8,0.4c-0.1,0.1-0.2,0.1-0.3,0.1c-0.1,0-0.2,0.1-0.4,0.1c-0.2,0.1-0.3,0.1-0.5,0.1c-0.1,0-0.1,0.1-0.2,0.1
				c-0.2,0-0.4,0.1-0.6,0.3c-0.2,0.1-0.4,0.1-0.6,0.1c-0.1,0-0.2,0-0.2,0.1c-0.2,0.1-0.5,0.1-0.7,0.1c-0.1,0-0.2,0-0.3,0
				c-0.3,0-0.6,0-0.8,0c-0.2,0-0.4-0.1-0.6-0.2c-0.2-0.1-0.5-0.1-0.7-0.1c-0.1,0-0.1,0-0.2,0c-0.3-0.1-0.6-0.2-0.9-0.3
				c-0.4-0.2-0.9-0.4-1.2-0.6c-0.2-0.2-0.5-0.3-0.7-0.5c-0.1-0.1-0.2-0.2-0.3-0.3c-0.3-0.2-0.6-0.5-0.8-0.7
				c-0.1-0.1-0.2-0.2-0.3-0.3c-0.1-0.1-0.2-0.3-0.3-0.4c-0.1-0.1-0.2-0.3-0.3-0.4c-0.1-0.1-0.2-0.3-0.2-0.4c0-0.1-0.1-0.1-0.1-0.2
				c0-0.1-0.1-0.2-0.2-0.3c0-0.2-0.1-0.4-0.2-0.5c0-0.1-0.1-0.1-0.1-0.2c-0.1-0.2-0.2-0.4-0.2-0.7c0-0.2-0.1-0.4-0.1-0.6
				c0-0.1-0.1-0.3-0.1-0.4c0-0.1,0-0.2-0.1-0.4c0-0.1,0-0.2-0.1-0.3c0,0,0-0.1,0-0.1c-0.1-0.3-0.1-0.6-0.2-0.9
				c0-0.3-0.1-0.6-0.1-0.9c0-0.2,0-0.3,0-0.5c0,0,0,0,0,0c-0.1-0.2,0-0.4,0-0.6c0-0.2,0-0.4,0-0.6c0-0.3,0-0.7,0.1-1
				c0-0.3,0.1-0.5,0.2-0.8c0.1-0.2,0.1-0.3,0.1-0.5c0-0.2,0.1-0.3,0.1-0.5c0-0.1,0.1-0.3,0.1-0.4c0.1-0.4,0.2-0.9,0.4-1.3
				c0.1-0.3,0.2-0.6,0.3-0.9c0.1-0.2,0.2-0.4,0.2-0.7c0.1-0.3,0.2-0.5,0.3-0.8c0-0.1,0.1-0.2,0.1-0.4c0-0.1,0.1-0.2,0.1-0.4
				c0.1-0.2,0.2-0.4,0.2-0.6c0.1-0.2,0.2-0.5,0.3-0.7c0.1-0.3,0.3-0.6,0.4-0.9c0-0.1,0-0.2,0-0.2c0,0-0.1-0.1-0.1-0.1
				c-0.2-0.2-0.3-0.5-0.4-0.8c0-0.1,0-0.2-0.1-0.2c-0.1-0.2-0.1-0.4-0.2-0.6c-0.2-0.5-0.4-1-0.6-1.5c0,0,0-0.1-0.1-0.1
				c0,0,0-0.1,0-0.1c0-0.2,0-0.3-0.1-0.4c0,0,0,0,0-0.1c0-0.3-0.2-0.6-0.2-0.8c-0.1-0.3-0.1-0.6-0.2-0.9c0.3-0.1,0.6-0.1,0.9-0.2
				c0.1,0.1,0.2,0.2,0.2,0.4c0,0,0,0.1,0,0.1c0.1,0.1,0.1,0.3,0.1,0.5c0,0.2,0.1,0.3,0.1,0.5c0.1,0.1,0.1,0.3,0.1,0.5
				c0,0.2,0.1,0.4,0.1,0.6c0.1,0.2,0.1,0.4,0.2,0.6c0.1,0.1,0.1,0.2,0.2,0.3c0,0.1,0.1,0.1,0.1,0.2c0,0.1,0.1,0.2,0.1,0.3
				c0.1,0.1,0.1,0.2,0.1,0.3c0,0.1,0.1,0.2,0.1,0.2c0,0.1,0,0.2,0,0.3c0,0,0,0,0.1,0.1c0,0,0.1-0.1,0.1-0.1c0-0.2,0.1-0.3,0.2-0.5
				c0.1-0.1,0.1-0.2,0.1-0.3c0-0.1,0.1-0.2,0.1-0.2c0.1-0.2,0.3-0.4,0.3-0.6c0,0,0-0.1,0-0.1c0.1-0.1,0.2-0.2,0.2-0.4c0,0,0,0,0,0
				c0.1-0.1,0.2-0.2,0.3-0.3c0.1-0.1,0.2-0.3,0.2-0.4c0.1-0.2,0.3-0.4,0.4-0.6c0.3-0.4,0.5-0.7,0.9-1c0.1,0,0.1-0.1,0.2-0.2
				c0.3-0.3,0.5-0.5,0.8-0.8c0.1-0.1,0.3-0.2,0.4-0.4c0,0,0,0,0,0c0.2-0.1,0.4-0.3,0.6-0.4c0.1,0,0.1-0.1,0.2-0.1
				c0.3-0.2,0.5-0.4,0.8-0.5c0.1-0.1,0.3-0.2,0.4-0.3c0.1-0.1,0.2-0.1,0.2-0.2c0.1-0.1,0.3-0.2,0.5-0.3c0.1,0,0.1-0.1,0.2-0.1
				c0.2-0.1,0.4-0.2,0.7-0.3c0.3-0.1,0.6-0.2,0.9-0.2c0.3,0,0.7-0.1,1-0.1c0.4,0,0.8,0,1.1,0.1c0.2,0,0.3,0,0.5,0
				c0.2,0,0.4,0,0.6,0.1c0.1,0,0.2,0.1,0.3,0.2c0.1,0.1,0.2,0.1,0.3,0.2c0,0,0.1,0,0.1,0.1c0.1,0.1,0.2,0.2,0.4,0.3
				c0.2,0.1,0.4,0.2,0.6,0.3c0,0,0.1,0,0.1,0c0,0-0.1-0.1-0.1-0.1c0.2-0.1,0.4,0,0.6,0.2c0,0,0.1,0.1,0.2,0.1c0.1,0,0.2,0.1,0.2,0.2
				c0,0.1,0.1,0.2,0.1,0.3c0.2,0.4,0.4,0.8,0.7,1c0,0,0,0.1,0.1,0.1c0.1,0.2,0.1,0.4,0.2,0.6c0.1,0.4,0,0.7,0,1.1
				c0,0.1-0.1,0.2,0,0.4c-0.1,0.1,0,0.3-0.1,0.5c0,0.1,0,0.2,0,0.3c0,0.3-0.1,0.6-0.2,0.9c0,0.2-0.1,0.3-0.1,0.5
				c0,0.1,0,0.1-0.1,0.1c0,0,0,0.1,0,0.1c0,0.1-0.1,0.3-0.1,0.4c0,0.2-0.2,0.3-0.2,0.5c-0.1,0.1-0.2,0.2-0.2,0.4
				c-0.1,0.2-0.2,0.3-0.3,0.5c-0.1,0.1-0.2,0.3-0.3,0.4c-0.1,0.1-0.2,0.2-0.2,0.3c-0.1,0.1-0.1,0.2-0.2,0.3
				c-0.2,0.2-0.3,0.4-0.5,0.5c-0.2,0.2-0.4,0.3-0.6,0.5c-0.1,0.1-0.2,0-0.2,0.1c-0.2,0-0.3,0.2-0.5,0.3c-0.3,0.2-0.6,0.4-0.9,0.5
				c-0.3,0.1-0.6,0.2-0.9,0.3c-0.2,0.1-0.4,0.1-0.6,0.2c-0.3,0.1-0.5,0.2-0.8,0.2c-0.1,0-0.2,0-0.3,0.1c-0.2,0-0.4,0.1-0.6,0.1
				c0,0,0,0-0.1,0c-0.3,0-0.7,0-1,0c-0.3,0-0.7-0.1-1-0.1c-0.2,0-0.3-0.1-0.5-0.1c0,0-0.1,0-0.1,0c0,0-0.1,0-0.1,0
				c-0.2,0-0.5-0.1-0.7-0.1c-0.1,0-0.2-0.1-0.3-0.1c0,0-0.1,0-0.1-0.1c0,0,0,0-0.1-0.1c-0.4-0.1-0.7-0.4-1.1-0.5
				c0,0-0.1-0.1-0.1-0.1C58.5,22.5,58.4,22.5,58.3,22.6z M69.5,14.1c-0.2-0.1-0.4-0.3-0.6-0.3c-0.1,0-0.1-0.1-0.1-0.2
				c0-0.2-0.1-0.3-0.2-0.4c-0.1-0.1-0.2-0.1-0.3-0.2c-0.2-0.1-0.3-0.2-0.6-0.2c0,0-0.1,0-0.1-0.1c-0.1-0.1-0.2-0.1-0.4-0.1
				c-0.1,0-0.3,0-0.4,0c-0.1,0-0.1,0-0.2,0c-0.3,0.1-0.6,0.1-1,0.2c-0.2,0-0.3,0.1-0.5,0.2c-0.1,0-0.2,0.1-0.3,0.1
				c-0.1,0-0.2,0.1-0.3,0.1c-0.2,0.1-0.3,0.2-0.5,0.3c-0.1,0-0.2,0.1-0.3,0.2c0,0-0.1,0.1-0.1,0.1c-0.1,0-0.1,0.1-0.2,0.1
				c-0.1,0.1-0.2,0.1-0.3,0.2c-0.2,0.2-0.4,0.3-0.6,0.5c-0.1,0.1-0.3,0.2-0.4,0.3c-0.1,0-0.1,0.1-0.2,0.1c-0.1,0.1-0.2,0.2-0.3,0.3
				c0,0-0.1,0.1-0.1,0.1c-0.1,0.2-0.3,0.3-0.4,0.5c0,0,0,0,0,0c-0.1,0-0.1,0.1-0.2,0.1c-0.1,0.1-0.2,0.3-0.3,0.4
				c-0.1,0.1-0.2,0.3-0.4,0.4c0,0,0,0.1-0.1,0.1c-0.1,0-0.1,0.1-0.1,0.2c0,0,0,0.1,0,0.1c-0.1,0.2-0.3,0.4-0.4,0.6
				c0,0.1-0.1,0.2-0.1,0.3c-0.1,0.2-0.2,0.3-0.3,0.5c-0.1,0.1-0.1,0.3-0.2,0.4c-0.1,0.1,0,0.3-0.2,0.3c0,0,0,0,0,0.1
				c0,0.2-0.1,0.4-0.2,0.6c0,0.1-0.1,0.3-0.1,0.4c0,0,0,0.1,0,0.1c-0.1,0.1-0.1,0.2-0.1,0.2c0,0.2-0.1,0.4-0.1,0.7
				c0,0.1,0,0.3,0.2,0.3c0.1,0,0.1,0,0.2,0.1c0.2,0.1,0.3,0.2,0.5,0.3c0.3,0.1,0.6,0.3,0.9,0.4c0.1,0,0.2,0.1,0.3,0.1
				c0.1,0,0.3,0,0.4,0.1c0.4,0.1,0.7,0.1,1.1,0.1c0.2,0,0.5,0,0.7,0c0.4,0,0.8-0.1,1.2-0.1c0.2,0,0.4-0.1,0.7-0.2
				c0.2-0.1,0.5-0.2,0.7-0.2c0.2,0,0.4-0.1,0.6-0.2c0.1-0.1,0.3-0.1,0.4-0.2c0.1,0,0.2-0.1,0.2-0.1c0.2-0.1,0.4-0.2,0.6-0.3
				c0.2-0.1,0.4-0.2,0.5-0.4c0.1-0.1,0.2-0.2,0.3-0.3c0.1-0.1,0.2-0.2,0.3-0.3c0.2-0.3,0.4-0.6,0.6-0.9c0.1-0.2,0.2-0.3,0.3-0.5
				c0.1-0.2,0.2-0.3,0.2-0.5c0-0.2,0.1-0.4,0.1-0.6c0.1-0.2,0.2-0.5,0.2-0.7c0-0.2,0.1-0.3,0.1-0.5c0.1-0.3,0.1-0.6,0.2-0.9
				c0-0.1,0-0.2,0-0.4c0,0,0-0.1,0-0.1c-0.1-0.2-0.1-0.5-0.3-0.7c0-0.1-0.1-0.2-0.2-0.2c-0.1,0-0.1-0.1-0.1-0.1
				C69.5,14.3,69.5,14.2,69.5,14.1z M88.2,27.3C88.3,27.3,88.3,27.3,88.2,27.3c0.2-0.2,0.4-0.4,0.5-0.6c0.3-0.4,0.6-0.9,0.9-1.4
				c0.2-0.3,0.3-0.6,0.5-0.9c0.1-0.2,0.2-0.4,0.4-0.6c0.2-0.2,0.4-0.5,0.5-0.7c0,0,0,0,0,0c0.2-0.2,0.2-0.4,0.4-0.6
				c0-0.1,0.1-0.1,0.1-0.2c0.1-0.1,0.1-0.2,0.2-0.2c0.1-0.3,0.2-0.7,0.4-1c0.1-0.2,0.2-0.4,0.3-0.6c0.2-0.3,0.3-0.6,0.5-0.9
				c0.1-0.2,0.2-0.3,0.3-0.5c0-0.1,0.1-0.2,0.1-0.3c0.1-0.2,0.1-0.5,0.2-0.7c0-0.1,0-0.2,0.1-0.3c0-0.1,0.1-0.2,0.1-0.3
				c0-0.1,0-0.2,0.1-0.3c0.2-0.4,0.3-0.8,0.5-1.2c0.1-0.1,0.1-0.3,0.1-0.4c0.1-0.3,0.1-0.6,0.2-0.9c0-0.1,0.1-0.3,0.1-0.4
				c0.1-0.3,0.2-0.5,0.3-0.8c0-0.1,0.1-0.2,0.1-0.3c0-0.1,0.1-0.2,0.1-0.3c0-0.1,0-0.2,0-0.4c0-0.1,0-0.1,0-0.2
				c0-0.4-0.1-0.8-0.1-1.3c-0.1,0-0.1,0-0.1-0.1c0-0.1,0-0.1,0-0.2c0-0.1,0-0.1,0-0.2c0-0.1-0.1-0.2-0.1-0.2c0,0-0.1,0-0.1,0
				c-0.1,0-0.3-0.1-0.4,0c-0.2,0-0.3,0.1-0.4,0.2c0,0-0.1,0.1-0.1,0.1c-0.1,0.1-0.3,0.3-0.4,0.4c0,0-0.1,0.1-0.1,0.1
				c-0.1,0.1-0.2,0.2-0.3,0.3c-0.2,0.2-0.4,0.4-0.5,0.6c0,0.1-0.2,0.2-0.2,0.4c0,0,0,0,0,0c0,0.1-0.1,0.2-0.1,0.3
				c0,0.1-0.1,0.1-0.1,0.2c0,0.1-0.1,0.1-0.1,0.2c0,0.2-0.1,0.3-0.2,0.5c0,0,0,0.1-0.1,0.1c0,0.1,0,0.2-0.1,0.3c0,0,0,0.1,0,0.1
				c0,0.2-0.1,0.3-0.2,0.5c-0.1,0.1-0.1,0.3-0.1,0.5c0,0.1-0.1,0.2-0.1,0.3c0,0,0,0.1-0.1,0.1c0,0.1-0.1,0.3-0.1,0.4
				c-0.1,0.1-0.1,0.2-0.1,0.3c0,0,0,0.1,0,0.1c0,0.1-0.1,0.2-0.1,0.3c0,0.2-0.1,0.4-0.1,0.6c0,0.1,0,0.1,0,0.2
				c-0.1,0.1-0.1,0.3-0.2,0.4c0,0,0,0,0,0.1c0,0.1,0,0.1,0,0.2c0,0.1-0.1,0.2-0.1,0.2c0,0.1,0,0.3-0.1,0.4c-0.1,0.1-0.1,0.3-0.1,0.4
				c0,0,0,0.1,0,0.1c0,0.1-0.1,0.2-0.1,0.3c0,0,0,0.1,0,0.1c-0.1,0.1-0.1,0.2-0.1,0.3c0,0,0,0.1,0,0.1c-0.2,0.3-0.2,0.6-0.3,1
				c0,0,0,0.1,0,0.1c-0.1,0.2-0.1,0.3-0.2,0.5c-0.1,0.3-0.2,0.6-0.2,0.9c0,0,0,0,0,0c-0.1,0.1-0.1,0.2-0.1,0.3
				c0,0.2-0.1,0.3-0.1,0.5c-0.1,0.2,0,0.4-0.2,0.5c0,0,0,0,0,0.1c0,0.1,0,0.2,0,0.3c0,0.2-0.1,0.4-0.1,0.6c0,0.2-0.1,0.4-0.1,0.5
				c0,0.1-0.1,0.3-0.1,0.4C88.3,26.4,88.3,26.8,88.2,27.3z M95.8,26.7C95.8,26.7,95.8,26.7,95.8,26.7c-0.1,0-0.1,0.1-0.2,0.2
				c-0.1,0.1-0.2,0.1-0.3,0.2c-0.1,0.1-0.2,0.2-0.2,0.3c-0.2,0.2-0.3,0.4-0.5,0.6c-0.1,0.1-0.1,0.2-0.2,0.3
				c-0.1,0.1-0.2,0.2-0.2,0.4c-0.2,0.3-0.3,0.6-0.5,0.9c-0.1,0.2-0.2,0.4-0.3,0.6c-0.1,0.2-0.3,0.5-0.4,0.7
				c-0.1,0.1-0.1,0.2-0.2,0.3c-0.1,0.2-0.2,0.3-0.2,0.5c0,0.1-0.1,0.2-0.1,0.3c0,0.1-0.1,0.2-0.1,0.3c-0.1,0.2-0.2,0.4-0.2,0.5
				c-0.1,0.2-0.1,0.3-0.1,0.5c0,0,0,0.1,0,0.1c0,0,0,0.1,0,0.1c0,0.3,0,0.5-0.1,0.8c0,0,0,0,0,0.1c0,0.2-0.1,0.3-0.1,0.5
				c0,0.2-0.1,0.4-0.1,0.6c0,0,0,0,0,0c0.1-0.1,0.3-0.2,0.4-0.3c0.1-0.1,0.2-0.2,0.3-0.3c0.1-0.1,0.2-0.2,0.3-0.3
				c0.1-0.1,0.1-0.2,0.2-0.2c0.3-0.2,0.6-0.4,0.9-0.5c0.2-0.1,0.4-0.2,0.5-0.4c0.2-0.2,0.4-0.4,0.6-0.6c0.2-0.2,0.4-0.4,0.6-0.6
				c0.2-0.2,0.4-0.4,0.5-0.6c0.1-0.1,0.2-0.2,0.3-0.3c0.1-0.2,0.2-0.4,0.3-0.6c0,0,0-0.1,0.1-0.1c0.1-0.1,0.2-0.3,0.2-0.4
				c0-0.1,0.1-0.2,0.1-0.2c0-0.1,0.1-0.2,0.1-0.3c0.1-0.2,0.1-0.4,0.2-0.5c0.1-0.2,0.1-0.4,0.2-0.6c0.2-0.3,0.1-0.6,0.1-0.9
				c0,0,0-0.1,0-0.1c0-0.3-0.1-0.6-0.2-0.8c-0.1-0.1-0.1-0.3-0.3-0.3c-0.1,0-0.2,0-0.3,0c-0.3-0.1-0.6,0-0.8,0.2
				C96,26.7,95.9,26.7,95.8,26.7z M112.7,27.6c0-0.2,0-0.3,0-0.4c0-0.2,0-0.4,0.1-0.6c0-0.4-0.1-0.7-0.2-1c-0.1-0.2-0.2-0.5-0.4-0.6
				c0,0,0,0,0-0.1c-0.1-0.1-0.1-0.2-0.2-0.2c0,0-0.1-0.1-0.1-0.1c-0.2-0.1-0.3-0.3-0.6-0.2c0-0.1-0.1-0.1-0.1-0.2
				c-0.2,0-0.5,0-0.7,0c0,0-0.1,0-0.1,0c-0.2,0.1-0.5,0.1-0.6,0.2c-0.3,0.1-0.5,0.3-0.7,0.4c-0.1,0.2-0.3,0.2-0.4,0.3c0,0,0,0-0.1,0
				c-0.1,0-0.2,0.1-0.3,0.3c0,0.2-0.2,0.3-0.2,0.5c-0.1,0.2-0.2,0.5-0.2,0.8c0,0,0,0.1,0,0.1c-0.1,0.3-0.1,0.5,0.1,0.7
				c0,0,0,0,0,0.1c0.1,0.1,0.2,0.2,0.3,0.4c0,0,0,0.1,0.1,0.2c0.2,0.4,0.6,0.5,1,0.6c0.3,0,0.5,0,0.7-0.1c0.2-0.1,0.5-0.1,0.7-0.2
				c0.1,0,0.3-0.1,0.4-0.1c0.2-0.1,0.5-0.2,0.7-0.3C112.2,27.9,112.5,27.8,112.7,27.6z"/>
			<path class="st1" d="M66.7,42c0,0,0.1,0.1,0.2,0.1c0.2,0,0.3,0.1,0.5,0.2c0.1,0,0.2,0,0.2,0.2c0,0.1,0,0.3-0.1,0.4
				c-0.1,0.1-0.2,0.2-0.4,0.3c-0.4,0.1-0.8,0.2-1.1,0.1c-0.3,0-0.6,0-0.9,0c-0.1,0-0.2,0-0.3,0c-0.2,0-0.3,0-0.5,0.1
				c-0.1,0.1-0.3,0-0.5,0.1c-0.2,0.1-0.5,0.1-0.7,0.2c0,0,0,0,0,0c-0.4,0-0.8,0.3-1.2,0.3c-0.4,0.1-0.9,0.3-1.3,0.5
				c-0.1,0-0.2,0.1-0.4,0.1c-0.2,0.1-0.5,0.1-0.7,0.3c0,0,0,0,0,0c-0.3,0-0.5,0.2-0.7,0.3c0,0,0,0,0,0c-0.2,0-0.3,0.1-0.5,0.3
				c-0.1,0.1-0.3,0.1-0.4,0.2c-0.1,0-0.1,0.1-0.2,0.1c-0.1,0.1-0.2,0.2-0.4,0.2c-0.1,0-0.2,0.1-0.2,0.2c0,0.1-0.1,0.2-0.2,0.2
				c-0.1,0.1-0.3,0.1-0.4,0.2c0,0-0.1,0.1-0.1,0.1c-0.1,0.1-0.2,0.1-0.3,0.2c0,0-0.1,0-0.1,0.1c-0.2,0.1-0.4,0.3-0.6,0.4
				c-0.1,0.1-0.2,0.2-0.4,0.2c0,0,0,0,0,0.1c-0.2,0.3-0.4,0.5-0.7,0.6c0,0,0,0-0.1,0c-0.1,0.2-0.3,0.3-0.5,0.4
				c-0.2,0.2-0.4,0.2-0.6,0.4c0,0-0.1,0.1-0.1,0.1c-0.1,0.1-0.2,0.2-0.3,0.3c-0.1,0-0.2,0.1-0.3,0.2c0,0-0.1,0-0.1,0.1
				c-0.1,0-0.1,0.1-0.2,0.1c-0.1,0-0.2-0.1-0.3-0.2c-0.1-0.1-0.1-0.2-0.3-0.2c-0.1,0-0.1-0.2-0.2-0.2c0-0.1-0.1-0.2-0.2-0.2
				c0-0.1,0-0.1,0.1-0.2c0.3-0.1,0.5-0.3,0.7-0.5c0.2-0.2,0.4-0.4,0.6-0.5c0.1,0,0.2-0.1,0.2-0.2c0.2-0.2,0.5-0.4,0.7-0.6
				c0.2-0.1,0.3-0.2,0.5-0.3c0,0,0.1-0.1,0.1-0.1c0.1-0.1,0.2-0.2,0.4-0.3c0.3-0.2,0.6-0.4,0.8-0.6c0.1-0.1,0.3-0.2,0.4-0.3
				c0.1,0,0.1-0.1,0.2-0.1c0.1-0.1,0.2-0.2,0.3-0.2c0.1,0,0.1-0.1,0.2-0.1c0.2-0.1,0.3-0.2,0.5-0.3c0.2-0.1,0.4-0.2,0.6-0.3
				c0.2-0.1,0.5-0.2,0.7-0.3c0.2-0.1,0.3-0.1,0.5-0.2c0.3-0.1,0.7-0.3,1-0.4c0.1,0,0.2-0.1,0.3-0.1c0.3-0.1,0.6-0.2,0.9-0.3
				c0.2-0.1,0.4-0.1,0.5-0.2c0.2-0.1,0.4-0.1,0.5-0.2c0.2-0.1,0.5-0.1,0.7-0.2c0.4-0.1,0.8-0.2,1.2-0.2c0.4-0.1,0.7-0.1,1.1-0.1
				c0.1,0,0.1,0,0.2,0c0,0,0.1,0,0.1,0c0.2,0,0.4,0,0.6,0.1C66.4,42,66.6,42,66.7,42z"/>
			<path class="st1" d="M76.6,17.7C76.7,17.7,76.7,17.7,76.6,17.7C76.7,17.7,76.7,17.7,76.6,17.7c0.1-0.3,0.2-0.5,0.3-0.7
				c0.1-0.1,0.2-0.2,0.3-0.3c0.1-0.1,0.3-0.2,0.4-0.4c0.1-0.1,0.1-0.1,0.2,0c0.2,0.1,0.2,0.1,0.3-0.1c0.1,0.2,0.3,0.1,0.4,0.1
				c0.2,0,0.3,0,0.5,0c0.2,0,0.3,0.1,0.5,0c0.1,0,0.2,0,0.2,0.1c0.2,0.2,0.4,0.3,0.5,0.6c0.1,0.1,0.2,0.3,0.3,0.4
				c0.1,0.1,0.2,0.2,0.2,0.4c0,0.1,0,0.2,0,0.3c0,0,0,0.1,0,0.2c0,0,0,0.1,0,0.1c0.1,0.3,0,0.5-0.2,0.7c-0.1,0.1-0.2,0.3-0.3,0.4
				c-0.1,0.1-0.2,0.3-0.3,0.4c-0.1,0.2-0.3,0.3-0.5,0.4c0,0,0,0,0,0c-0.1,0.2-0.3,0.2-0.5,0.3c-0.2,0.1-0.4,0.1-0.6,0.1
				c-0.2,0-0.5,0.1-0.7-0.1c-0.1,0-0.2,0-0.2,0c-0.1,0-0.3,0-0.3-0.2c0-0.1-0.1-0.1-0.2-0.2c0,0-0.1,0-0.1-0.1c0,0,0-0.1,0-0.1
				c-0.3-0.2-0.4-0.4-0.5-0.7c-0.1-0.2-0.2-0.3-0.2-0.5c-0.1-0.3-0.1-0.5,0.1-0.7c0.1-0.1,0.1-0.2,0.2-0.4
				C76.6,17.8,76.6,17.7,76.6,17.7z"/>
		</g>
	</g>
	<g>
		<g>
			<path class="st1" d="M23.8,25.2c0,0.1,0,0.2,0,0.3c0,0.2-0.1,0.4-0.2,0.5c0,0.1-0.1,0.2-0.1,0.3c0,0.1,0.1,0.1,0.1,0.2
				c0,0,0,0,0,0.1c0.1,0.1,0,0.3,0,0.4c0,0-0.1,0.1-0.1,0.1c-0.2,0-0.3,0.1-0.5,0c-0.1,0-0.3,0-0.4,0.1c0,0,0-0.1,0-0.1
				c-0.1,0-0.1-0.1-0.2-0.2c0-0.1,0-0.2,0.1-0.3c0.1-0.3,0.2-0.5,0.3-0.8c0-0.1,0-0.2,0.1-0.2c0.1-0.1,0.1-0.3,0.1-0.4
				c0,0,0-0.1,0-0.1c0.1-0.1,0.1-0.2,0.1-0.3c0-0.2,0-0.3,0.1-0.5c0.1-0.3,0-0.5,0.1-0.8c0-0.1,0-0.2,0-0.2c0-0.1-0.1-0.1-0.2-0.2
				c-0.1,0-0.1-0.1-0.2-0.1c-0.2-0.1-0.3-0.1-0.5,0c-0.1,0-0.3,0.1-0.5,0.1c-0.2,0.1-0.3,0.1-0.5,0.3c-0.1,0.1-0.2,0.3-0.3,0.3
				c-0.1,0.1-0.2,0.2-0.3,0.3c0,0-0.1,0.1-0.1,0.1c-0.1,0.1-0.1,0.1-0.1,0.2c0,0.1-0.1,0.1-0.2,0.2c0,0-0.1,0-0.1,0.1
				c0,0.1-0.1,0.1-0.2,0.2c0,0.2-0.2,0.3-0.2,0.4c-0.1,0.1-0.1,0.2-0.2,0.3c-0.1,0.1-0.2,0.2-0.2,0.4c0,0.1,0,0.1-0.1,0.1
				c-0.1,0-0.1,0.1-0.1,0.2c-0.1,0.1-0.1,0.1-0.2,0.2c-0.1,0.2-0.2,0.3-0.3,0.5c0,0.1-0.1,0.2-0.2,0.3c0,0-0.1,0.1-0.1,0.1
				c-0.1,0.2-0.1,0.3-0.3,0.5c0,0,0,0,0,0.1c0,0.1,0,0.1-0.1,0.2c-0.1,0.1-0.1,0.2-0.2,0.4c0,0,0,0.1-0.1,0.1
				c-0.1,0.1-0.2,0.3-0.2,0.4c0,0,0,0.1-0.1,0.1c-0.1,0.1-0.1,0.1-0.1,0.2c0,0.1,0,0.1-0.1,0.2c0,0.1-0.1,0.2-0.1,0.3
				c0,0.1-0.1,0.3-0.2,0.4c0,0,0,0.1,0,0.1c0,0.1-0.1,0.2-0.1,0.4c0,0,0,0.1,0,0.1C17,30.8,17,30.9,17,31.1c0,0.1-0.1,0.2-0.1,0.3
				c0,0.1-0.1,0.1-0.1,0.2c0,0.4-0.1,0.7-0.1,1.1c0,0.2,0,0.3-0.1,0.5c0,0,0,0,0,0c-0.1,0.2,0,0.5-0.1,0.7c0,0.2,0,0.4,0,0.6
				c0,0.1,0,0.2,0,0.3c0,0,0,0,0,0c0,0.1,0,0.2,0,0.3c0,0.1,0,0.2,0.1,0.2c0.1,0.2,0.1,0.4,0.2,0.6c0.1,0.1,0.1,0.3,0.2,0.4
				c0.1,0.1,0.2,0.3,0.4,0.4c0.1,0,0.2,0.1,0.3,0.1c0.2,0.1,0.4,0.1,0.7,0c0.1,0,0.2,0,0.2-0.1c0.1-0.1,0.3-0.1,0.4-0.2
				c0.2-0.2,0.5-0.4,0.7-0.6c0.2-0.2,0.3-0.3,0.5-0.5c0.1-0.1,0.2-0.2,0.3-0.4c0.2-0.2,0.4-0.5,0.5-0.7c0.1-0.1,0.2-0.2,0.3-0.3
				c0.1-0.1,0.2-0.3,0.3-0.4c0.1-0.1,0.2-0.2,0.3-0.3c0.2-0.3,0.4-0.4,0.6-0.7c0.1-0.1,0.2-0.2,0.3-0.3c0.1-0.1,0.2-0.1,0.2-0.2
				c0,0,0,0,0-0.1c0-0.1,0.1-0.1,0.1-0.1c0.1-0.1,0.2-0.1,0.3-0.2c0.2-0.2,0.3-0.4,0.4-0.6c0.1-0.1,0.2-0.2,0.2-0.3c0,0,0,0,0-0.1
				c0.1-0.1,0.2-0.2,0.1-0.3c0.1,0,0.1,0,0.2,0c0.1,0.1,0.3,0.2,0.4,0.2c0.1,0,0.2,0,0.3,0.1c0.1,0.1,0.2,0.1,0.4,0.2
				c0,0,0.1,0.1,0.1,0.1c0.1,0.1,0.1,0.2,0.2,0.3c0,0,0,0.1,0,0.1c0,0,0,0.1,0,0.1c0,0.1-0.1,0.2-0.1,0.4c0,0.2-0.1,0.3-0.2,0.4
				c0,0,0,0.1-0.1,0.1c-0.1,0.1-0.1,0.1-0.1,0.3c0,0.1-0.1,0.2-0.1,0.3c-0.1,0.1-0.1,0.2,0,0.3c-0.1,0-0.1,0.1-0.1,0.2
				c0,0.1,0,0.1-0.1,0.2c-0.1,0.2-0.1,0.5-0.2,0.7c-0.1,0.2-0.1,0.3-0.1,0.5c0,0.2-0.1,0.4-0.1,0.6c0,0.3,0,0.6,0.2,0.8
				c0.1,0,0.2,0,0.3-0.1c0.1,0,0.2-0.1,0.3-0.1c0.3-0.1,0.5-0.3,0.7-0.4c0.1-0.1,0.2-0.2,0.3-0.4c0,0,0,0,0,0
				c0.2-0.2,0.4-0.4,0.5-0.6c0.1-0.1,0.1-0.2,0.2-0.3c0.1-0.1,0.2-0.2,0.3-0.4c0-0.1,0.1-0.1,0.1-0.2c0.1-0.1,0.2-0.2,0.2-0.4
				c0.1-0.1,0.1-0.3,0.2-0.4c0,0,0.1-0.1,0.1-0.1c0.2-0.2,0.3-0.4,0.3-0.7c0-0.1,0.1-0.1,0.1-0.2c0.1-0.3,0.1-0.5,0.2-0.8
				c0.1-0.2,0.2-0.5,0.2-0.7c-0.1-0.1-0.3,0-0.4,0c-0.2,0.1-0.5,0.1-0.7,0.1c-0.1,0-0.2,0-0.3,0.1c-0.2,0-0.5,0-0.7,0
				c-0.1,0-0.2,0-0.3,0c0,0-0.1,0-0.1,0c-0.4-0.2-0.7-0.4-0.9-0.8c-0.1-0.1-0.1-0.2-0.1-0.4c0-0.1,0-0.3,0-0.4c0-0.1,0-0.3,0-0.4
				c0-0.1,0-0.2,0.1-0.3c0,0,0-0.1,0-0.1c0.1-0.2,0.2-0.3,0.3-0.4c0,0,0.1,0,0.1-0.1c0.1-0.1,0.3-0.1,0.3-0.3
				c0.1-0.1,0.2-0.1,0.3-0.2c0.2-0.1,0.4-0.2,0.6-0.2c0.2,0,0.4,0,0.6,0c0.1,0,0.2,0,0.3,0c0.3,0,0.5,0,0.7,0.1
				c0.1,0,0.2,0.1,0.3,0.2c0,0,0.1,0,0.1,0c0-0.1-0.2-0.1-0.2-0.2c0.2,0,0.3,0.1,0.4,0.2c0.1,0.2,0.3,0.3,0.4,0.5
				c0.1,0.1,0.2,0.3,0.2,0.5c0,0.1,0.1,0.2,0.1,0.3c0,0,0,0.1,0,0.1c0,0.1,0.1,0.1,0.2,0.1c0.2-0.1,0.5-0.1,0.7-0.2
				c0.1,0,0.3,0,0.4-0.1c0.1,0,0.1,0,0.2,0c0.3,0,0.5-0.1,0.8-0.2c0.1,0,0.1-0.1,0.1-0.1c0.1,0,0.3,0,0.4,0c0.1,0,0.2,0,0.2,0
				c0,0,0.1,0,0.1,0c0.1,0,0.2,0.1,0.3,0.1c0.1,0,0.1,0,0.2,0.1c0,0,0,0,0.1,0c0.1,0,0.1,0,0.1,0.1c0,0,0.1,0.1,0.1,0.1
				c0.1,0,0.1,0.1,0.2,0.1c0.2,0.1,0.3,0.3,0.4,0.5c0,0.1,0,0.1,0,0.2c0,0.2,0,0.4-0.2,0.6c-0.1,0.1-0.2,0.2-0.2,0.3
				c0,0.1-0.2,0.2-0.2,0.4c0,0.1-0.1,0.1-0.2,0.2c0,0,0,0,0,0c-0.1,0.1-0.1,0.3-0.2,0.4c-0.1,0.1-0.1,0.2-0.2,0.3
				c-0.1,0.2-0.2,0.3-0.3,0.5c-0.1,0.1-0.1,0.3-0.2,0.5c0,0,0,0,0,0c-0.1,0.1-0.1,0.2-0.1,0.4c0,0,0,0.1,0,0.1c0,0,0,0.1,0,0.1
				c-0.1,0.3-0.1,0.6-0.2,0.9c0,0.2,0,0.4,0,0.6c0,0.1,0,0.1,0,0.2c0,0.2,0,0.4,0.1,0.5c0,0.1,0.1,0.2,0.2,0.2c0.2,0,0.4,0,0.6-0.1
				c0.2-0.1,0.3-0.2,0.4-0.3c0.2-0.1,0.4-0.3,0.5-0.4c0.2-0.2,0.4-0.3,0.6-0.5c0.2-0.2,0.4-0.4,0.6-0.6c0.1-0.2,0.2-0.3,0.4-0.5
				c0,0,0,0,0-0.1c0.1-0.1,0.2-0.3,0.3-0.4c0.1-0.1,0.1-0.2,0.2-0.3c0.1-0.1,0.1-0.2,0.2-0.3c0.1-0.1,0.2-0.2,0.2-0.3
				c0.1-0.1,0.1-0.2,0.2-0.3c0.1-0.2,0.2-0.4,0.3-0.6c0.1-0.1,0.1-0.3,0.2-0.4c0.1-0.3,0.1-0.5,0.1-0.8c0-0.1,0-0.3,0-0.4
				c0,0-0.1-0.1-0.1-0.1c-0.3,0.1-0.6,0.1-0.9,0.1c-0.1,0-0.2,0-0.3,0c-0.2,0-0.3,0-0.4-0.1c-0.1-0.1-0.3-0.2-0.4-0.3
				c0,0-0.1-0.1-0.1-0.1c-0.1-0.1-0.2-0.2-0.3-0.3c-0.1-0.1-0.2-0.2-0.3-0.3c0-0.1-0.1-0.1-0.1-0.2c-0.1-0.3-0.2-0.6-0.2-0.9
				c0-0.2,0-0.4,0-0.5c0-0.2,0.1-0.3,0.1-0.4c0-0.1,0.1-0.1,0.2-0.2c0,0,0.1,0,0.2,0c0.1,0,0.2-0.2,0.3-0.2c0,0,0.1,0.1,0.1,0.1
				c0.1,0.1,0.2,0.1,0.3,0c0.2-0.1,0.4-0.1,0.5,0c0.2,0,0.3,0.1,0.5,0c0,0,0,0,0.1,0c0.2,0,0.3,0.1,0.5,0.1c0.1,0,0.2,0.1,0.3,0.2
				c0,0,0.1,0.1,0.2,0.1c0.1,0,0.2,0.1,0.2,0.2c0.2,0.2,0.3,0.5,0.4,0.7c0,0.1,0,0.1,0.1,0.2c0,0.1,0.1,0.2,0.2,0.3
				c0.3-0.1,0.7-0.2,1-0.3c0.1,0,0.3-0.1,0.4-0.2c0.1,0,0.1-0.1,0.2-0.2c0.1,0,0.2,0,0.3-0.1c0.2-0.1,0.3-0.2,0.5-0.3
				c0.1,0,0.1-0.1,0.1-0.2c0-0.1,0.1-0.2,0.1-0.3c0-0.1,0.1-0.2,0.1-0.2c0.1-0.4,0.2-0.7,0.4-1.1c0.1-0.1,0.1-0.2,0.1-0.4
				c0-0.1,0.1-0.2,0.1-0.3c0-0.1,0.1-0.2,0.1-0.3c0.1-0.2,0.2-0.4,0.3-0.6c0.1-0.1,0.1-0.3,0.2-0.4c0.1-0.2,0.1-0.3,0.2-0.5
				c0.1-0.2,0.2-0.4,0.3-0.6c0,0,0,0,0,0c0.1-0.1,0.1-0.2,0.2-0.4c0-0.1,0.1-0.1,0.1-0.1c0.2,0,0.2,0,0.3,0.2c0.1,0,0.2,0,0.2,0
				c0.2,0,0.3,0.1,0.5,0.2c0.3,0.2,0.4,0.6,0.4,0.9c0,0.1-0.1,0.2-0.1,0.3c0,0.1-0.1,0.3-0.1,0.4c-0.1,0.2-0.1,0.5-0.3,0.6
				c0,0,0,0,0,0.1c0,0,0,0.1,0,0.1c0,0.1-0.1,0.2-0.1,0.3c0,0.1,0,0.2-0.1,0.3c0,0.1-0.1,0.3-0.2,0.4c0,0.1-0.1,0.3-0.1,0.4
				c0,0.2-0.1,0.3-0.2,0.5c-0.1,0.2-0.1,0.3-0.1,0.5c0,0.1-0.1,0.2-0.1,0.2c0,0,0,0.1,0,0.1c0,0.2-0.1,0.4-0.2,0.6
				c-0.1,0.1-0.1,0.2-0.1,0.3c0,0.1-0.1,0.2-0.1,0.3c0,0.1-0.1,0.2-0.1,0.3c0,0.1-0.1,0.3-0.1,0.4c-0.1,0.2-0.1,0.4-0.2,0.6
				c0,0.1-0.1,0.2-0.1,0.3c0,0.1-0.1,0.2-0.1,0.3c0,0,0,0.1,0,0.1c0-0.1,0.1-0.1,0.1-0.1c0.1-0.1,0.2-0.3,0.4-0.4
				c0.1-0.1,0.2-0.2,0.3-0.3c0,0,0,0,0,0c0.1-0.2,0.3-0.3,0.4-0.5c0.1-0.1,0.2-0.3,0.3-0.4c0.1-0.1,0.2-0.2,0.3-0.3
				c0.1-0.1,0.3-0.2,0.4-0.3c0.1-0.1,0.2-0.1,0.3-0.2c0.2-0.1,0.4-0.2,0.6-0.3c0.1-0.1,0.3-0.2,0.5-0.2c0.1,0,0.3-0.1,0.4-0.1
				c0.2,0,0.4,0,0.6,0c0.1,0,0.3,0,0.4,0.1c0.1,0,0.2,0.1,0.3,0.2c0.1,0,0.1,0.1,0.2,0.1c0.1,0,0.1,0.1,0.2,0.2
				c0.1,0.2,0.1,0.5,0.1,0.7c0,0.1,0,0.1,0,0.2c0,0,0,0.1,0,0.1c-0.1,0.1-0.1,0.2-0.1,0.3c0,0.2-0.1,0.3-0.2,0.5c0,0,0,0,0,0.1
				c-0.2,0.3-0.4,0.6-0.6,0.9c-0.1,0.1-0.2,0.2-0.3,0.3c-0.1,0.1-0.3,0.2-0.4,0.3c0,0-0.1,0-0.1,0.1c-0.2,0.1-0.5,0.2-0.7,0.4
				c-0.1,0.1-0.2,0.1-0.3,0.2c-0.2,0.1-0.3,0.2-0.5,0.3c0,0-0.1,0-0.1,0c0,0.1,0,0.1,0.1,0.1c0.1,0.1,0.2,0.3,0.3,0.4
				c0.1,0.1,0.3,0.3,0.4,0.5c0,0,0.1,0.1,0.1,0.1c0.1,0.2,0.2,0.3,0.4,0.4c0,0,0,0.1,0.1,0.1c0,0.1,0.1,0.1,0.2,0.1
				c0,0.1,0,0.1,0.1,0.2c0.2,0.2,0.3,0.4,0.5,0.5c0.2,0.1,0.4,0.3,0.6,0.4c0.3,0.1,0.6,0.2,0.9,0.2c0.2,0,0.3,0,0.5-0.1
				c0.1,0,0.1-0.1,0.2-0.1c0.1-0.1,0.3-0.1,0.5-0.1c0.2,0.1,0.5,0.3,0.4,0.5c-0.1,0.2-0.1,0.4-0.4,0.5c-0.2,0.1-0.4,0.1-0.6,0.2
				c0,0-0.1,0-0.1,0c-0.1,0-0.3,0-0.4,0c-0.3,0-0.5-0.1-0.8-0.1c-0.3-0.1-0.6-0.2-0.9-0.4c-0.3-0.1-0.5-0.4-0.7-0.5
				c-0.2-0.2-0.3-0.4-0.5-0.5c-0.1-0.1-0.2-0.2-0.3-0.3c-0.1-0.2-0.2-0.3-0.4-0.5c-0.1-0.1-0.2-0.3-0.3-0.4
				c-0.2-0.2-0.4-0.5-0.6-0.7c-0.1-0.1-0.2-0.1-0.3-0.2c-0.2-0.1-0.2-0.2-0.3-0.4c0-0.1,0-0.2,0-0.4c-0.1,0-0.1,0.1-0.2,0.1
				c-0.1,0.1-0.1,0.2-0.2,0.3c0,0.1-0.1,0.2-0.1,0.3c0,0.1-0.1,0.2-0.1,0.3c-0.1,0.2-0.1,0.4-0.2,0.6c0,0.1-0.1,0.2-0.1,0.3
				c0,0.1-0.1,0.2-0.1,0.3c0,0.1-0.1,0.2-0.1,0.3c-0.1,0.2-0.2,0.4-0.3,0.6c-0.1,0.3-0.2,0.6-0.3,0.9c0,0.1-0.1,0.3-0.1,0.4
				c0,0.1-0.1,0.2-0.2,0.4c-0.1,0.1-0.1,0.1-0.2,0.2c0,0-0.1,0-0.1,0.1c-0.1,0-0.2-0.2-0.3-0.3c-0.1-0.1-0.2-0.2-0.3-0.3
				c-0.2-0.1-0.3-0.2-0.4-0.4c-0.1-0.1-0.1-0.1-0.2-0.2c-0.1-0.1-0.1-0.2-0.2-0.4c0-0.1,0-0.3,0-0.4c0-0.1,0-0.1,0-0.2
				c-0.1-0.3,0-0.6,0.1-1c0-0.3,0.1-0.6,0.1-0.9c0-0.1,0-0.3,0-0.4c0,0,0-0.1,0-0.1c0,0,0-0.1,0.1-0.1c0-0.1,0-0.2,0.1-0.3
				c0-0.2,0.1-0.5,0.1-0.7c0-0.1,0-0.2,0.1-0.3c0-0.1,0.1-0.3,0.1-0.4c0-0.2,0.1-0.5,0.2-0.7c0-0.1,0.1-0.3,0.1-0.4
				c0.1-0.2,0.1-0.3,0.2-0.5c0.1-0.2,0.1-0.4,0.2-0.6c0,0,0,0,0-0.1c-0.2,0-0.3,0.1-0.4,0.1c-0.1,0-0.1,0-0.2,0.1
				c-0.2,0.1-0.4,0.1-0.5,0.2c-0.2,0.1-0.3,0.1-0.5,0.2c-0.1,0-0.2,0.2-0.2,0.4c0,0.2,0,0.3,0,0.5c0,0.2,0,0.4,0,0.6
				c0,0.1,0,0.2,0,0.3c0,0.1,0,0.2-0.1,0.2c-0.1,0.1-0.1,0.2-0.1,0.3c0,0,0,0.1-0.1,0.1c-0.1,0.1-0.1,0.3-0.2,0.4
				c0,0.1-0.1,0.1-0.1,0.2c0,0.1-0.1,0.1-0.1,0.3c0,0.1-0.1,0.2-0.1,0.3c0,0.1-0.1,0.2-0.2,0.3c-0.1,0.1-0.2,0.3-0.2,0.5
				c0,0,0,0.1,0,0.1c-0.2,0.3-0.4,0.6-0.6,0.9c-0.1,0.2-0.3,0.4-0.5,0.6c-0.1,0.1-0.2,0.2-0.3,0.4c-0.2,0.2-0.4,0.4-0.5,0.6
				c-0.2,0.2-0.4,0.4-0.6,0.6c-0.1,0.1-0.2,0.2-0.3,0.2c-0.2,0.1-0.4,0.2-0.7,0.2c-0.2,0-0.4,0.1-0.6,0.1c-0.2,0-0.5,0-0.7-0.1
				c-0.2-0.1-0.3-0.1-0.4-0.2c-0.1-0.1-0.2-0.1-0.3-0.1c-0.2-0.1-0.4-0.2-0.5-0.3c0,0,0,0,0,0c-0.3-0.1-0.4-0.4-0.6-0.6
				c-0.1-0.1-0.3-0.6-0.4-0.8c0-0.1,0-0.2-0.1-0.3c0-0.4-0.1-0.9,0-1.3c0-0.4,0.1-0.7,0.3-1c0.1-0.2,0.2-0.4,0.2-0.7
				c0-0.1,0.1-0.2,0.1-0.3c0,0,0,0,0,0c0.1-0.1,0.2-0.3,0.3-0.4c0.1-0.1,0.1-0.3,0.2-0.4c0.1-0.1,0.2-0.3,0.3-0.4c0,0,0,0,0-0.1
				c-0.1,0-0.3,0-0.4,0.1c-0.1,0.1-0.2,0.1-0.4,0.1c-0.1,0-0.1,0-0.1,0.1c0,0,0,0-0.1,0c-0.1,0.1-0.3,0.1-0.4,0.1
				c-0.1,0.1-0.3,0.1-0.4,0.1c-0.1,0-0.1,0.1-0.2,0.3c0,0.1,0,0.3-0.1,0.4c0,0,0,0.1,0,0.1c0,0.1-0.1,0.1-0.2,0.2
				c0,0.1,0.1,0.1,0,0.2c0,0,0,0,0,0c0.1,0.1,0,0.2,0,0.3c0,0,0,0,0,0.1c-0.1,0.3-0.1,0.6-0.2,0.9c-0.1,0.2-0.1,0.4-0.3,0.5
				c0,0-0.1,0.1-0.1,0.2c-0.1,0.2-0.2,0.3-0.3,0.5c-0.1,0.2-0.2,0.3-0.2,0.5c0,0.1,0,0.1-0.1,0.2c-0.1,0.3-0.3,0.5-0.5,0.8
				c-0.1,0.1-0.1,0.1-0.2,0.2c-0.1,0.1-0.1,0.2-0.2,0.3c0,0,0,0.1-0.1,0.1c-0.1,0-0.1,0.1-0.2,0.2c-0.2,0.2-0.3,0.3-0.5,0.5
				c0,0,0,0.1-0.1,0.1c0,0,0,0.1-0.1,0.1c-0.3,0.2-0.5,0.4-0.8,0.6c-0.1,0.1-0.2,0.1-0.3,0.1c-0.2,0.1-0.5,0.1-0.7,0.1
				c-0.2,0-0.5,0-0.7-0.2c-0.1-0.1-0.2-0.1-0.3-0.2c0,0-0.1,0-0.1,0c-0.3,0-0.5-0.1-0.7-0.3C23.8,37,23.8,37,23.7,37
				c-0.1,0-0.2-0.1-0.3-0.2c-0.1-0.1-0.2-0.2-0.2-0.3c0,0-0.1-0.1-0.1-0.1c-0.1-0.2-0.2-0.3-0.3-0.5c-0.1-0.1-0.1-0.3-0.1-0.5
				c0-0.1,0-0.3,0-0.4c0-0.1,0-0.1,0-0.2c-0.1,0-0.1,0-0.1,0c0,0.1-0.1,0.1-0.1,0.1c-0.1,0.2-0.3,0.4-0.4,0.6c0,0,0,0,0,0
				c-0.1,0.1-0.2,0.1-0.2,0.3c0,0.1-0.1,0.2-0.2,0.3c0,0,0,0.1-0.1,0.1c-0.1,0.1-0.3,0.3-0.4,0.4c-0.2,0.1-0.3,0.3-0.4,0.4
				c-0.1,0.1-0.2,0.2-0.3,0.2c-0.1,0.1-0.2,0.2-0.3,0.2c-0.2,0.1-0.4,0.2-0.7,0.3c0,0-0.1,0.1-0.1,0.1c-0.2,0.1-0.3,0.1-0.5,0.1
				c-0.3,0-0.5,0.1-0.8,0c-0.2,0-0.5-0.1-0.7-0.2c-0.1,0-0.3-0.1-0.4-0.1c-0.2-0.1-0.4-0.1-0.6-0.2c-0.2-0.1-0.4-0.2-0.6-0.3
				c-0.2-0.1-0.3-0.2-0.4-0.3c-0.3-0.3-0.5-0.6-0.7-1c0-0.1-0.1-0.2-0.1-0.3c0-0.1-0.1-0.2-0.1-0.3C14.1,35.4,14,35.2,14,35
				c0-0.1,0-0.3-0.1-0.4c0,0,0-0.1,0-0.1c0,0,0,0,0-0.1c0-0.3-0.1-0.5-0.1-0.8c0-0.3,0-0.5,0-0.8c0-0.2,0-0.4,0-0.6
				c0-0.3,0-0.5,0.1-0.8c0-0.2,0.1-0.5,0.1-0.7c0.1-0.3,0.2-0.7,0.3-1c0.1-0.2,0.1-0.3,0.2-0.5c0.1-0.1,0.1-0.3,0.2-0.4
				c0.1-0.2,0.2-0.5,0.3-0.7c0.2-0.3,0.4-0.6,0.5-0.9c0.1-0.1,0.2-0.2,0.2-0.3c0,0,0-0.1,0.1-0.1c0.1,0,0.1-0.1,0.1-0.2
				c0.2-0.3,0.4-0.5,0.6-0.8c0.1-0.1,0.2-0.2,0.3-0.3c0.2-0.2,0.4-0.3,0.5-0.5c0.2-0.2,0.4-0.3,0.5-0.5c0.2-0.2,0.3-0.3,0.5-0.5
				c0.1-0.1,0.3-0.3,0.4-0.4c0.1-0.1,0.1-0.1,0.2-0.2c0.1-0.1,0.2-0.2,0.3-0.2c0.1,0,0.1-0.1,0.2-0.2c0.1-0.1,0.2-0.2,0.3-0.2
				c0.1-0.1,0.2-0.1,0.3-0.2c0.1-0.1,0.2-0.1,0.3-0.2c0.1-0.1,0.2-0.1,0.3-0.2c0.1-0.1,0.2-0.1,0.3-0.2c0.1-0.1,0.2-0.1,0.3-0.1
				c0.2-0.1,0.3-0.1,0.5-0.1c0.2-0.1,0.4-0.1,0.6-0.2c0.1,0,0.2,0,0.3,0c0.2,0,0.4,0.1,0.6,0.1c0,0,0.1,0,0.1,0.1c0,0,0.1,0,0.1,0.1
				c0.2,0.1,0.3,0.3,0.4,0.5c0,0.2,0.1,0.3,0.1,0.5c0,0.1,0,0.2,0.1,0.2c0.1,0.1,0,0.3,0,0.4c0,0.2-0.1,0.3,0,0.5c0,0.1,0,0.1,0,0.2
				c0,0.1,0,0.2-0.1,0.3c0,0,0,0.1,0,0.1c0,0.1,0,0.2,0,0.2c0,0,0,0,0,0.1C23.8,25,23.8,25.1,23.8,25.2
				C23.8,25.2,23.8,25.2,23.8,25.2z M44.6,31C44.6,31,44.7,31,44.6,31c0.1,0,0.2,0.1,0.2,0c0.1-0.1,0.2-0.1,0.4-0.1c0,0,0,0,0.1,0
				c0.3-0.1,0.6-0.2,0.8-0.4c0.2-0.1,0.3-0.2,0.5-0.2c0.1,0,0.1-0.1,0.2-0.2c0.1-0.1,0.2-0.1,0.3-0.2c0.1,0,0.1-0.1,0.1-0.2
				c0-0.1,0.1-0.2,0.2-0.2c0,0,0.1,0,0.1-0.1c0-0.1,0.1-0.2,0.2-0.2c0-0.1,0-0.2,0.1-0.3c0.1-0.1,0.1-0.2,0-0.4
				c-0.1,0-0.2-0.1-0.3,0c-0.1,0-0.2,0.1-0.3,0.1c-0.1,0-0.2,0.1-0.4,0.1c-0.2,0.1-0.4,0.2-0.6,0.4c-0.2,0.2-0.4,0.4-0.6,0.5
				c-0.1,0.1-0.2,0.1-0.2,0.3c0,0,0,0.1,0,0.1c-0.2,0.2-0.4,0.5-0.6,0.7C44.8,30.8,44.7,30.9,44.6,31z M28.7,28.5
				c-0.2,0-0.3-0.1-0.4-0.1c-0.1,0-0.2,0-0.3,0c-0.2,0.1-0.4,0.3-0.6,0.4c-0.1,0.1-0.2,0.3-0.3,0.5c-0.1,0.1-0.2,0.2-0.1,0.3
				c0,0,0,0,0,0c0,0.1,0,0.2,0.1,0.3c0.1,0,0.1,0,0.2,0c0.3,0,0.6,0,1-0.1c0.2-0.1,0.4-0.1,0.7-0.2c0.2,0,0.3-0.1,0.5-0.1
				c0-0.1-0.1-0.3-0.1-0.4c0-0.1-0.1-0.1-0.1-0.2c0-0.1-0.1-0.2-0.2-0.2c-0.1,0-0.1-0.1-0.1-0.2C28.7,28.6,28.7,28.6,28.7,28.5z
				 M37.1,27.1c-0.1,0-0.2,0.1-0.3,0.1c-0.1,0-0.3,0.1-0.3,0.2c0,0,0,0,0,0c-0.2,0.1-0.1,0.3-0.1,0.5c0.1,0,0,0.1,0,0.1
				c0.1,0.1,0.2,0.2,0.3,0.4c0,0.1,0.1,0.1,0.2,0.1c0.1,0,0.2,0,0.2,0c0.2,0,0.4,0,0.6,0c0,0,0.1,0,0.1,0c0.1,0,0.3-0.1,0.4-0.1
				c0,0,0-0.1,0-0.1c-0.1-0.2-0.1-0.4-0.2-0.6c-0.1-0.1-0.1-0.2-0.1-0.3c0-0.1-0.1-0.1-0.1-0.1c-0.1-0.1-0.2-0.1-0.4-0.2
				C37.2,27.2,37.2,27.2,37.1,27.1z"/>
		</g>
	</g>
</g>
</svg>
